<?xml version="1.0" encoding="utf-8"?>
<!-- Generator: Adobe Illustrator 16.0.0, SVG Export Plug-In . SVG Version: 6.00 Build 0)  -->
<!DOCTYPE svg PUBLIC "-//W3C//DTD SVG 1.0//EN" "http://www.w3.org/TR/2001/REC-SVG-20010904/DTD/svg10.dtd">
<svg version="1.0" id="Livello_1" xmlns="http://www.w3.org/2000/svg" xmlns:xlink="http://www.w3.org/1999/xlink" x="0px" y="0px"
	 width="91px" height="91.088px" viewBox="0 0 91 91.088" enable-background="new 0 0 91 91.088" xml:space="preserve">
<g>
	<g>
		<defs>
			<rect id="SVGID_4_" y="0.052" width="91" height="92"/>
		</defs>
		<clipPath id="SVGID_1_">
			<use xlink:href="#SVGID_4_"  overflow="visible"/>
		</clipPath>
	</g>
	<g>
		<defs>
			<rect id="SVGID_6_" y="0.052" width="91" height="92"/>
		</defs>
		<clipPath id="SVGID_2_">
			<use xlink:href="#SVGID_6_"  overflow="visible"/>
		</clipPath>
		<g clip-path="url(#SVGID_2_)">
			
				<linearGradient id="SVGID_3_" gradientUnits="userSpaceOnUse" x1="-3320.084" y1="465.1504" x2="-3260.7266" y2="465.1504" gradientTransform="matrix(-1 0 0 -1 -3204 504.1035)">
				<stop  offset="0" style="stop-color:#DE0B18"/>
				<stop  offset="0.282" style="stop-color:#E02B17"/>
				<stop  offset="0.75" style="stop-color:#E45212"/>
			</linearGradient>
			<path fill="url(#SVGID_3_)" d="M89.254,88.438c1.164,1.295,2.836,2.112,4.707,2.112h15.783c3.498,0,6.34-2.829,6.34-6.323V-6.338
				c0-3.434-2.765-6.236-6.184-6.306c-0.063,0-12.924,0-12.965,0c-3.426,0.07-6.172,2.872-6.172,6.306v41.537
				c0,3.495-2.85,6.34-6.35,6.34c-2.04,0-3.84-0.979-4.998-2.487L56.727,7.146v35.178C56.727,42.324,88.932,88.062,89.254,88.438z"
				/>
			
				<linearGradient id="SVGID_5_" gradientUnits="userSpaceOnUse" x1="-3288.4473" y1="465.2646" x2="-3195.834" y2="465.2646" gradientTransform="matrix(-1 0 0 -1 -3204 504.1035)">
				<stop  offset="0" style="stop-color:#DE0B18"/>
				<stop  offset="0.282" style="stop-color:#E02B17"/>
				<stop  offset="0.75" style="stop-color:#E45212"/>
			</linearGradient>
			<path fill="url(#SVGID_5_)" d="M-7.627-7.758l67.865,95.403c1.164,1.62,3.039,2.677,5.178,2.677h15.892
				c1.735,0,3.14-1.408,3.14-3.137c0-0.674-0.211-1.303-0.565-1.816L16.125-9.933c-1.143-1.646-3.043-2.711-5.196-2.711h-15.94
				c-1.742,0-3.154,1.4-3.154,3.146C-8.166-8.867-7.951-8.255-7.627-7.758z"/>
			
				<linearGradient id="SVGID_7_" gradientUnits="userSpaceOnUse" x1="-3252.9482" y1="488.8623" x2="-3228.6665" y2="488.8623" gradientTransform="matrix(-1 0 0 -1 -3204 504.1035)">
				<stop  offset="0" style="stop-color:#DE0B18"/>
				<stop  offset="0.282" style="stop-color:#E02B17"/>
				<stop  offset="0.75" style="stop-color:#E45212"/>
			</linearGradient>
			<path fill="url(#SVGID_7_)" d="M25.74-4.044c0,0,0.243-0.282,0.367-0.399c0-0.021,0.031-0.036,0.046-0.044
				c0.112-0.112,0.206-0.196,0.325-0.306l0.086-0.059c0.115-0.086,0.212-0.173,0.336-0.25l0.115-0.068
				c0.102-0.068,0.209-0.135,0.32-0.203c0.02-0.009,0.047-0.018,0.066-0.034l0.086-0.044c0.123-0.057,0.203-0.101,0.316-0.145
				c0.02-0.008,0.063-0.017,0.089-0.05l0.084-0.018c0.125-0.049,0.226-0.084,0.312-0.109c0.039-0.025,0.076-0.036,0.117-0.052
				l0.095-0.015c0.124-0.039,0.214-0.063,0.304-0.071c0.043-0.016,0.095-0.025,0.141-0.025l0.078-0.007
				c0.127-0.037,0.211-0.054,0.315-0.054c0.056-0.008,0.1-0.008,0.138-0.008l0.219-0.019c0.045,0,0.082-0.017,0.123-0.017
				c0,0,3.613,0,6.404,0c3.209,0,6.413,0,6.529,0c2.916,0.061,5.286,2.499,5.286,5.42v36.774l0.91,1.271V-0.62
				c0-3.441-2.763-6.238-6.194-6.322c-0.041,0-11.392,0-12.811,0l0,0h-0.018c-0.072,0-0.133,0-0.133,0
				c-0.098,0-0.182,0.018-0.289,0.026c-0.086,0-0.174,0.008-0.27,0.034c-0.113,0.008-0.229,0.024-0.361,0.034
				c-0.09,0.025-0.174,0.035-0.248,0.051c-0.124,0.026-0.246,0.07-0.371,0.095c-0.07,0.017-0.156,0.042-0.231,0.067
				c-0.129,0.042-0.249,0.077-0.36,0.137c-0.076,0.026-0.141,0.051-0.229,0.077c-0.121,0.05-0.24,0.117-0.35,0.179
				c-0.061,0.024-0.114,0.06-0.179,0.085c-0.129,0.076-0.253,0.153-0.371,0.231c-0.052,0.023-0.089,0.048-0.136,0.086
				c-0.133,0.092-0.26,0.185-0.395,0.271c-0.021,0.043-0.063,0.06-0.098,0.093c-0.135,0.103-0.426,0.384-0.426,0.384
				c-0.161,0.154-0.281,0.289-0.395,0.435c-0.015,0.008-0.015,0.016-0.015,0.016C24.168-3.549,24.947-3.073,25.74-4.044z"/>
		</g>
	</g>
	<g>
		<defs>
			<rect id="SVGID_11_" y="0.052" width="91" height="92"/>
		</defs>
		<clipPath id="SVGID_8_">
			<use xlink:href="#SVGID_11_"  overflow="visible"/>
		</clipPath>
	</g>
</g>
</svg>
