<?xml version="1.0" encoding="utf-8"?>
<!-- Generator: Adobe Illustrator 16.0.0, SVG Export Plug-In . SVG Version: 6.00 Build 0)  -->
<!DOCTYPE svg PUBLIC "-//W3C//DTD SVG 1.0//EN" "http://www.w3.org/TR/2001/REC-SVG-20010904/DTD/svg10.dtd">
<svg version="1.0" id="Livello_1" xmlns="http://www.w3.org/2000/svg" xmlns:xlink="http://www.w3.org/1999/xlink" x="0px" y="0px"
	 width="60px" height="59px" viewBox="0 0 60 59" enable-background="new 0 0 60 59" xml:space="preserve">
<g>
	<g>
		<defs>
			<rect id="SVGID_6_" x="-105" y="-33" width="91" height="92"/>
		</defs>
		<clipPath id="SVGID_1_">
			<use xlink:href="#SVGID_6_"  overflow="visible"/>
		</clipPath>
		<g clip-path="url(#SVGID_1_)">
			
				<linearGradient id="SVGID_2_" gradientUnits="userSpaceOnUse" x1="-3425.084" y1="432.0986" x2="-3365.7266" y2="432.0986" gradientTransform="matrix(-1 0 0 -1 -3414 438)">
				<stop  offset="0" style="stop-color:#DE0B18"/>
				<stop  offset="0.282" style="stop-color:#E02B17"/>
				<stop  offset="0.75" style="stop-color:#E45212"/>
			</linearGradient>
			<path fill="url(#SVGID_2_)" d="M-15.746,55.387c1.164,1.295,2.836,2.112,4.707,2.112H4.744c3.498,0,6.34-2.829,6.34-6.323V-39.39
				c0-3.434-2.765-6.236-6.184-6.306c-0.063,0-12.924,0-12.965,0c-3.426,0.07-6.172,2.872-6.172,6.306V2.147
				c0,3.495-2.85,6.34-6.35,6.34c-2.04,0-3.84-0.979-4.998-2.487l-22.689-31.906V9.272C-48.273,9.272-16.068,55.01-15.746,55.387z"
				/>
		</g>
	</g>
</g>
<g>
	<g>
		<defs>
			<rect id="SVGID_13_" width="60" height="60"/>
		</defs>
		<clipPath id="SVGID_3_">
			<use xlink:href="#SVGID_13_"  overflow="visible"/>
		</clipPath>
	</g>
	<g>
		<defs>
			<rect id="SVGID_15_" width="60" height="60"/>
		</defs>
		<clipPath id="SVGID_5_">
			<use xlink:href="#SVGID_15_"  overflow="visible"/>
		</clipPath>
		<g clip-path="url(#SVGID_5_)">
			
				<linearGradient id="SVGID_7_" gradientUnits="userSpaceOnUse" x1="-3490.6777" y1="412.9229" x2="-3451.6377" y2="412.9229" gradientTransform="matrix(-1 0 0 -1 -3414 438)">
				<stop  offset="0" style="stop-color:#DE0B18"/>
				<stop  offset="0.282" style="stop-color:#E02B17"/>
				<stop  offset="0.75" style="stop-color:#E45212"/>
			</linearGradient>
			<path fill="url(#SVGID_7_)" d="M59.031,57.624c0.766,0.852,1.865,1.389,3.096,1.389h10.381c2.301,0,4.17-1.86,4.17-4.159V-4.711
				c0-2.258-1.818-4.102-4.067-4.147c-0.042,0-8.5,0-8.526,0c-2.254,0.045-4.061,1.889-4.061,4.147v27.319
				c0,2.298-1.874,4.169-4.176,4.169c-1.342,0-2.525-0.644-3.287-1.636L37.638,4.157v23.137
				C37.638,27.294,58.819,57.376,59.031,57.624z"/>
			
				<linearGradient id="SVGID_8_" gradientUnits="userSpaceOnUse" x1="-3469.8691" y1="412.998" x2="-3408.958" y2="412.998" gradientTransform="matrix(-1 0 0 -1 -3414 438)">
				<stop  offset="0" style="stop-color:#DE0B18"/>
				<stop  offset="0.282" style="stop-color:#E02B17"/>
				<stop  offset="0.75" style="stop-color:#E45212"/>
			</linearGradient>
			<path fill="url(#SVGID_8_)" d="M-4.688-5.646l44.636,62.747c0.766,1.065,1.998,1.761,3.405,1.761h10.451
				c1.142,0,2.064-0.926,2.064-2.063c0-0.443-0.138-0.857-0.371-1.194L10.935-7.075c-0.752-1.083-2.001-1.783-3.418-1.783H-2.968
				c-1.146,0-2.074,0.921-2.074,2.068C-5.042-6.375-4.901-5.972-4.688-5.646z"/>
			
				<linearGradient id="SVGID_9_" gradientUnits="userSpaceOnUse" x1="-3446.5225" y1="428.5176" x2="-3430.5522" y2="428.5176" gradientTransform="matrix(-1 0 0 -1 -3414 438)">
				<stop  offset="0" style="stop-color:#DE0B18"/>
				<stop  offset="0.282" style="stop-color:#E02B17"/>
				<stop  offset="0.75" style="stop-color:#E45212"/>
			</linearGradient>
			<path fill="url(#SVGID_9_)" d="M17.259-3.203c0,0,0.159-0.186,0.241-0.262c0-0.014,0.021-0.023,0.029-0.029
				c0.074-0.074,0.137-0.129,0.215-0.202l0.057-0.038c0.075-0.057,0.139-0.114,0.221-0.165l0.076-0.045
				c0.066-0.044,0.137-0.088,0.211-0.133c0.013-0.006,0.03-0.012,0.043-0.022l0.057-0.029c0.081-0.038,0.133-0.066,0.208-0.095
				c0.013-0.005,0.04-0.011,0.059-0.033l0.056-0.012c0.081-0.032,0.147-0.055,0.204-0.072c0.026-0.017,0.05-0.023,0.077-0.034
				l0.063-0.01c0.081-0.025,0.141-0.041,0.199-0.046c0.028-0.011,0.063-0.017,0.092-0.017l0.052-0.004
				c0.084-0.024,0.14-0.036,0.208-0.036c0.037-0.005,0.065-0.005,0.09-0.005l0.145-0.012c0.029,0,0.055-0.011,0.081-0.011
				c0,0,2.377,0,4.212,0c2.11,0,4.218,0,4.295,0c1.917,0.04,3.477,1.644,3.477,3.565v24.186l0.599,0.836V-0.95
				c0-2.263-1.817-4.103-4.075-4.158c-0.026,0-7.491,0-8.425,0l0,0h-0.011c-0.048,0-0.088,0-0.088,0
				c-0.064,0-0.119,0.012-0.19,0.017c-0.056,0-0.114,0.005-0.177,0.022c-0.074,0.005-0.151,0.016-0.237,0.022
				c-0.06,0.017-0.114,0.023-0.164,0.033c-0.081,0.017-0.162,0.046-0.243,0.063c-0.047,0.011-0.104,0.027-0.153,0.044
				c-0.084,0.027-0.164,0.05-0.236,0.09c-0.051,0.017-0.092,0.033-0.15,0.05c-0.08,0.033-0.158,0.077-0.229,0.118
				c-0.04,0.016-0.076,0.04-0.118,0.056c-0.085,0.05-0.166,0.101-0.243,0.152c-0.035,0.016-0.059,0.032-0.09,0.057
				c-0.088,0.061-0.171,0.122-0.26,0.178c-0.014,0.028-0.041,0.04-0.064,0.062c-0.088,0.067-0.279,0.252-0.279,0.252
				c-0.106,0.101-0.186,0.19-0.26,0.286c-0.01,0.005-0.01,0.01-0.01,0.01C16.225-2.877,16.737-2.563,17.259-3.203z"/>
		</g>
	</g>
	<g>
		<defs>
			<rect id="SVGID_20_" width="60" height="60"/>
		</defs>
		<clipPath id="SVGID_10_">
			<use xlink:href="#SVGID_20_"  overflow="visible"/>
		</clipPath>
	</g>
</g>
</svg>
