<?xml version="1.0" encoding="utf-8"?>
<!-- Generator: Adobe Illustrator 16.0.0, SVG Export Plug-In . SVG Version: 6.00 Build 0)  -->
<!DOCTYPE svg PUBLIC "-//W3C//DTD SVG 1.1//EN" "http://www.w3.org/Graphics/SVG/1.1/DTD/svg11.dtd">
<svg version="1.1" id="Livello_1" xmlns="http://www.w3.org/2000/svg" xmlns:xlink="http://www.w3.org/1999/xlink" x="0px" y="0px"
	 width="171px" height="36px" viewBox="0 0 171 36" enable-background="new 0 0 171 36" xml:space="preserve">
<g>
	<g>
		<g>
			<path fill="#FFFFFF" d="M65.15,8.738c0.033,0.226,0.105,0.411,0.223,0.555c0.119,0.146,0.271,0.258,0.467,0.341v0.14
				c-0.221-0.042-0.414-0.07-0.578-0.087c-0.164-0.02-0.322-0.028-0.469-0.028c-0.16,0-0.326,0.009-0.494,0.023
				c-0.168,0.014-0.371,0.042-0.609,0.082V9.642c0-0.053,0.047-0.11,0.139-0.182c0.064-0.053,0.115-0.099,0.152-0.145
				c0.031-0.043,0.053-0.104,0.053-0.186c0-0.007-0.004-0.014-0.01-0.027V9.068l-0.488-3.852L61.822,9.65
				c-0.016,0.023-0.045,0.049-0.084,0.078c-0.041,0.03-0.09,0.045-0.143,0.045c-0.07,0-0.121-0.013-0.152-0.036
				c-0.035-0.022-0.064-0.059-0.09-0.104c-0.021-0.046-0.047-0.098-0.072-0.151c-0.029-0.057-0.064-0.127-0.104-0.21
				c-0.041-0.084-0.113-0.244-0.219-0.483c-0.105-0.236-0.268-0.604-0.49-1.103c-0.623-1.393-0.996-2.224-1.121-2.495l-0.432,3.538
				c-0.004,0.029-0.006,0.087-0.006,0.174c0,0.18,0.033,0.326,0.102,0.438c0.066,0.113,0.178,0.205,0.33,0.274l0.053,0.147
				c-0.188-0.029-0.381-0.051-0.576-0.066c-0.199-0.013-0.369-0.02-0.509-0.02c-0.126,0-0.253,0.005-0.39,0.018
				c-0.136,0.011-0.313,0.033-0.528,0.068l0.106-0.139c0.178-0.063,0.323-0.195,0.434-0.394c0.111-0.194,0.182-0.434,0.215-0.711
				l0.643-5.061c0-0.342-0.165-0.638-0.497-0.889V2.471c0.206,0.021,0.382,0.036,0.528,0.04c0.145,0.007,0.33,0.01,0.551,0.01
				l2.314,5.409l1.73-4.375l0.402-1.034c0.121,0,0.225-0.002,0.307-0.003c0.084-0.003,0.223-0.011,0.418-0.024
				c0.16-0.01,0.281-0.019,0.357-0.022v0.101c-0.143,0.084-0.256,0.206-0.338,0.372c-0.084,0.164-0.127,0.331-0.127,0.5
				c0,0.017,0,0.041,0,0.067c0.006,0.031,0.01,0.05,0.01,0.062L65.15,8.738z"/>
			<path fill="#FFFFFF" d="M68.386,9.703c-0.273-0.046-0.529-0.142-0.771-0.289c-0.242-0.148-0.443-0.37-0.602-0.669
				c-0.156-0.297-0.234-0.68-0.242-1.147l-0.01-0.605c-0.01-0.37-0.016-0.614-0.016-0.737c0-0.165,0.006-0.479,0.016-0.928
				c0.006-0.408,0.01-0.738,0.01-0.987c0-0.182-0.006-0.444-0.016-0.779c-0.012-0.213-0.051-0.4-0.107-0.558
				c-0.064-0.159-0.186-0.302-0.363-0.43V2.471c0.252,0.022,0.455,0.04,0.6,0.052c0.148,0.01,0.287,0.017,0.424,0.017
				c0.107,0,0.285-0.008,0.527-0.024c0.209-0.02,0.367-0.031,0.477-0.035v0.103c-0.146,0.081-0.25,0.211-0.316,0.396
				c-0.064,0.18-0.105,0.384-0.119,0.61c-0.02,0.22-0.025,0.447-0.029,0.685c-0.004,0.236-0.004,0.537-0.004,0.9v1.03
				c0,0.175,0,0.348,0.004,0.525c0.004,0.175,0.008,0.415,0.02,0.715c0.012,0.397,0.057,0.719,0.137,0.966
				c0.082,0.246,0.188,0.428,0.316,0.553c0.133,0.125,0.277,0.209,0.438,0.249c0.158,0.039,0.35,0.06,0.57,0.06
				c0.301,0,0.551-0.023,0.74-0.069c0.197-0.048,0.357-0.14,0.49-0.278c0.131-0.137,0.232-0.343,0.307-0.613
				c0.074-0.273,0.117-0.63,0.129-1.074C70.996,7.071,71,6.876,71,6.645V6.231c0-0.079,0.004-0.338,0.01-0.781
				c0-0.3,0-0.575,0-0.822c0-0.479-0.006-0.836-0.016-1.067c-0.012-0.271-0.049-0.472-0.111-0.601
				c-0.064-0.131-0.199-0.257-0.41-0.378V2.479c0.143,0.004,0.299,0.016,0.471,0.035c0.145,0.01,0.246,0.017,0.301,0.017
				c0.102,0,0.273-0.009,0.52-0.027c0.211-0.018,0.375-0.027,0.494-0.033v0.103c-0.166,0.094-0.281,0.208-0.342,0.343
				c-0.057,0.136-0.094,0.357-0.105,0.663c-0.016,0.364-0.025,0.749-0.027,1.155c-0.002,0.407-0.006,0.895-0.006,1.461
				c0,0.046,0,0.17,0,0.373c-0.004,0.208-0.008,0.333-0.008,0.381c0,0.629-0.061,1.136-0.189,1.52
				c-0.127,0.386-0.305,0.669-0.527,0.854c-0.223,0.186-0.48,0.308-0.766,0.364C70,9.745,69.652,9.773,69.246,9.773
				C68.943,9.773,68.658,9.749,68.386,9.703z"/>
			<path fill="#FFFFFF" d="M74.273,9.73c-0.166-0.035-0.361-0.09-0.594-0.165c-0.098-0.029-0.16-0.051-0.195-0.062
				c-0.145-0.046-0.242-0.116-0.289-0.206c-0.047-0.087-0.068-0.212-0.068-0.369c0-0.006-0.004-0.034-0.01-0.087
				c-0.014-0.08-0.027-0.174-0.037-0.282c-0.014-0.107-0.018-0.206-0.018-0.3c0-0.075,0.023-0.151,0.068-0.227
				c0.045-0.076,0.123-0.114,0.23-0.114c0.051,0,0.092,0.029,0.125,0.084c0.037,0.057,0.084,0.146,0.137,0.274
				c0.08,0.204,0.148,0.342,0.211,0.417c0.139,0.175,0.322,0.319,0.547,0.436c0.227,0.115,0.418,0.173,0.58,0.173
				c0.127,0,0.25-0.023,0.377-0.073c0.127-0.049,0.25-0.123,0.361-0.227c0.113-0.102,0.207-0.23,0.271-0.386
				c0.068-0.158,0.102-0.335,0.102-0.531c0-0.192-0.033-0.369-0.107-0.531c-0.066-0.161-0.162-0.311-0.285-0.447
				c-0.121-0.136-0.252-0.264-0.395-0.379c-0.139-0.116-0.322-0.256-0.543-0.419c-0.238-0.174-0.434-0.32-0.586-0.446
				c-0.148-0.126-0.291-0.266-0.426-0.422c-0.133-0.157-0.232-0.331-0.313-0.518c-0.08-0.189-0.119-0.393-0.119-0.612
				c0-0.221,0.039-0.438,0.113-0.653c0.072-0.215,0.191-0.41,0.346-0.593c0.154-0.179,0.348-0.323,0.588-0.435
				c0.236-0.11,0.514-0.164,0.828-0.164c0.141,0,0.338,0.025,0.59,0.078c0.205,0.046,0.354,0.07,0.439,0.07
				c0.006,0,0.016-0.006,0.033-0.018c0.043-0.024,0.09-0.042,0.141-0.056c0.053-0.017,0.125-0.024,0.215-0.024
				c0.078,0,0.129,0.015,0.16,0.045c0.029,0.028,0.043,0.055,0.043,0.077c0,0.145,0.016,0.356,0.043,0.637
				c0.021,0.254,0.029,0.444,0.029,0.574c0,0.033-0.012,0.074-0.047,0.12c-0.033,0.046-0.086,0.07-0.162,0.07
				c-0.08,0-0.152-0.039-0.209-0.117c-0.063-0.079-0.129-0.191-0.205-0.336c-0.078-0.14-0.129-0.227-0.164-0.261
				c-0.15-0.14-0.316-0.241-0.488-0.304c-0.176-0.063-0.35-0.096-0.516-0.096c-0.207,0-0.398,0.092-0.576,0.278
				c-0.18,0.187-0.268,0.401-0.268,0.651c0,0.308,0.102,0.579,0.311,0.814s0.531,0.518,0.961,0.848
				c0.246,0.186,0.445,0.348,0.605,0.483s0.314,0.291,0.459,0.465c0.146,0.175,0.262,0.364,0.352,0.57
				c0.084,0.206,0.131,0.427,0.137,0.663c0,0.263-0.045,0.518-0.137,0.764c-0.096,0.244-0.234,0.468-0.42,0.665
				c-0.188,0.197-0.424,0.355-0.709,0.475C75.508,9.72,75.184,9.78,74.814,9.78C74.615,9.783,74.435,9.764,74.273,9.73z"/>
			<path fill="#FFFFFF" d="M79.111,9.691c-0.15,0.012-0.348,0.032-0.598,0.061c-0.029,0-0.07,0.004-0.129,0.009V9.57
				c0.064-0.042,0.131-0.099,0.195-0.171c0.07-0.072,0.131-0.161,0.193-0.26c0.129-0.214,0.195-0.412,0.201-0.593
				c0.012-0.441,0.02-0.808,0.02-1.097c0-0.288,0-0.696,0-1.227c0-0.443-0.008-0.895-0.02-1.354
				c-0.01-0.459-0.027-0.905-0.045-1.336c-0.014-0.192-0.066-0.369-0.166-0.529c-0.096-0.16-0.248-0.294-0.451-0.406l-0.025-0.146
				l0.129,0.007c0.314,0.035,0.578,0.061,0.787,0.08c0.213,0.018,0.375,0.025,0.488,0.025c0.086,0,0.205-0.001,0.354-0.008
				c0.146-0.007,0.328-0.014,0.539-0.026c0.104-0.007,0.182-0.012,0.236-0.019c0.398-0.029,0.684-0.043,0.852-0.043
				c0.119,0,0.223,0,0.316,0.004c0.09,0.001,0.186,0.012,0.283,0.027c0.096,0.012,0.18,0.036,0.244,0.067
				c0.066,0.032,0.098,0.075,0.098,0.128c0,0.146,0.012,0.309,0.039,0.49c0.018,0.133,0.023,0.236,0.023,0.313
				c0,0.017-0.016,0.041-0.051,0.069c-0.035,0.03-0.084,0.044-0.148,0.044c-0.084,0-0.143-0.019-0.176-0.051
				c-0.037-0.035-0.066-0.087-0.094-0.149c-0.016-0.029-0.027-0.046-0.033-0.053c-0.086-0.14-0.221-0.247-0.395-0.324
				c-0.182-0.074-0.459-0.113-0.84-0.113c-0.113,0-0.309,0.012-0.584,0.037l-0.258,0.026c-0.018,0.063-0.027,0.188-0.031,0.374
				c-0.008,0.076-0.014,0.143-0.018,0.202c-0.023,0.325-0.033,0.845-0.033,1.553v0.621c0.389,0.012,0.674,0.019,0.85,0.019
				c0.166,0,0.289-0.004,0.369-0.009c0.17-0.007,0.316-0.041,0.432-0.102c0.117-0.062,0.24-0.192,0.361-0.396h0.34
				c-0.006,0.081-0.012,0.171-0.021,0.27c-0.023,0.193-0.033,0.361-0.033,0.506c0,0.158,0,0.268,0,0.329
				c0,0.06,0.004,0.186,0.016,0.371h-0.35c-0.082-0.171-0.188-0.285-0.324-0.351c-0.135-0.063-0.297-0.104-0.486-0.122
				c-0.242-0.023-0.629-0.035-1.152-0.035c0,0.408,0.006,0.778,0.014,1.106c0.016,0.328,0.029,0.733,0.051,1.219
				c0.006,0.146,0.047,0.266,0.127,0.362c0.078,0.094,0.176,0.171,0.297,0.222c0.125,0.053,0.252,0.088,0.387,0.105
				c0.137,0.017,0.283,0.027,0.439,0.027c0.23,0,0.426-0.02,0.576-0.053c0.148-0.036,0.301-0.117,0.447-0.246
				c0.08-0.069,0.193-0.197,0.34-0.382c0.109-0.135,0.197-0.233,0.262-0.298c0.064-0.065,0.127-0.098,0.189-0.098
				c0.068,0,0.121,0.016,0.164,0.048c0.047,0.034,0.066,0.059,0.066,0.075c0,0.069-0.057,0.212-0.172,0.429
				c-0.133,0.248-0.217,0.442-0.248,0.575l-0.008,0.02c-0.029,0.111-0.08,0.197-0.156,0.263c-0.074,0.063-0.232,0.095-0.471,0.095
				H81.11c-0.336,0-0.635-0.004-0.895-0.009c-0.348,0-0.59,0-0.723,0C79.388,9.674,79.257,9.679,79.111,9.691z"/>
			<path fill="#FFFFFF" d="M89.039,2.735c0.439,0.19,0.813,0.452,1.115,0.788c0.305,0.334,0.533,0.722,0.688,1.158
				C91,5.121,91.08,5.591,91.08,6.093c0,0.513-0.092,0.996-0.273,1.451c-0.182,0.45-0.432,0.844-0.758,1.174
				c-0.322,0.333-0.701,0.589-1.133,0.771c-0.43,0.182-0.885,0.273-1.369,0.273c-0.479,0-0.936-0.098-1.365-0.287
				c-0.429-0.189-0.807-0.454-1.131-0.797c-0.328-0.339-0.58-0.73-0.76-1.175c-0.182-0.446-0.271-0.908-0.271-1.394
				s0.09-0.949,0.271-1.395c0.18-0.442,0.432-0.837,0.76-1.181c0.324-0.343,0.701-0.609,1.131-0.8s0.887-0.284,1.365-0.284
				C88.102,2.451,88.598,2.545,89.039,2.735z M86.604,3.167c-0.289,0.141-0.543,0.335-0.756,0.595
				c-0.213,0.255-0.379,0.563-0.492,0.926c-0.117,0.36-0.176,0.759-0.176,1.197c0,0.438,0.059,0.86,0.178,1.269
				c0.121,0.405,0.287,0.768,0.502,1.087c0.217,0.313,0.469,0.563,0.762,0.743c0.289,0.179,0.6,0.269,0.926,0.269
				c0.348,0,0.67-0.064,0.965-0.195c0.295-0.131,0.553-0.318,0.775-0.567c0.221-0.248,0.395-0.549,0.518-0.899
				c0.119-0.352,0.18-0.744,0.18-1.177c0-0.543-0.061-1.029-0.18-1.459c-0.123-0.429-0.297-0.793-0.518-1.089
				c-0.223-0.298-0.48-0.522-0.775-0.678c-0.295-0.151-0.617-0.228-0.965-0.228C87.208,2.96,86.893,3.03,86.604,3.167z"/>
			<path fill="#FFFFFF" d="M98.016,5.2c-0.156-0.38-0.34-0.822-0.555-1.329l-0.135-0.319L97.301,3.5
				c-0.086-0.226-0.178-0.404-0.271-0.54c-0.098-0.135-0.247-0.261-0.459-0.376l-0.024-0.12l0.236,0.026
				c0.383,0.034,0.651,0.052,0.803,0.052c0.188,0,0.517-0.017,0.976-0.045l0.057,0.112c-0.119,0.08-0.18,0.231-0.18,0.449
				c0,0.191,0.028,0.362,0.08,0.52c0.133,0.369,0.282,0.786,0.461,1.251c0.178,0.468,0.346,0.917,0.504,1.349
				c0.143,0.386,0.373,0.966,0.684,1.738l0.033,0.068c0.176-0.467,0.369-0.979,0.586-1.537c0.105-0.302,0.227-0.642,0.361-1.024
				c0.133-0.384,0.287-0.847,0.467-1.388c0.041-0.126,0.086-0.267,0.137-0.424c0.074-0.195,0.111-0.375,0.111-0.544
				c0-0.127-0.027-0.227-0.08-0.302c-0.053-0.076-0.156-0.131-0.309-0.164l0.057-0.138c0.42,0.046,0.738,0.068,0.959,0.068
				c0.109,0,0.291-0.008,0.541-0.025c0.219-0.017,0.389-0.028,0.514-0.035l-0.047,0.112c-0.182,0.081-0.334,0.207-0.467,0.381
				c-0.127,0.172-0.25,0.383-0.371,0.628c-0.123,0.289-0.25,0.595-0.371,0.914c-0.125,0.318-0.271,0.71-0.439,1.17
				c-0.088,0.242-0.15,0.419-0.195,0.526c-0.069,0.187-0.186,0.477-0.35,0.874c-0.174,0.419-0.338,0.829-0.488,1.222
				c-0.155,0.396-0.328,0.846-0.52,1.354c-0.01,0.021-0.037,0.046-0.078,0.075c-0.043,0.03-0.098,0.045-0.164,0.045
				c-0.063,0-0.119-0.018-0.168-0.052c-0.051-0.035-0.084-0.068-0.098-0.104c-0.088-0.242-0.195-0.523-0.328-0.851
				c-0.125-0.324-0.303-0.759-0.533-1.309c-0.125-0.293-0.223-0.528-0.291-0.7c-0.072-0.172-0.141-0.34-0.203-0.502
				C98.311,5.93,98.172,5.576,98.016,5.2z"/>
			<path fill="#FFFFFF" d="M105.371,9.741c-0.148,0.008-0.338,0.024-0.566,0.049V9.665c0.148-0.079,0.262-0.183,0.342-0.311
				c0.082-0.125,0.125-0.28,0.131-0.467c0.011-0.585,0.015-1.457,0.015-2.621c0-0.442-0.004-0.896-0.015-1.358
				c-0.012-0.461-0.028-0.906-0.049-1.34c-0.012-0.215-0.045-0.404-0.106-0.564c-0.06-0.16-0.181-0.306-0.356-0.434V2.465
				c0.25,0.025,0.448,0.042,0.594,0.053c0.146,0.012,0.285,0.018,0.424,0.018c0.102,0,0.273-0.01,0.518-0.025
				c0.211-0.02,0.377-0.03,0.496-0.037v0.105c-0.152,0.082-0.26,0.215-0.328,0.399c-0.063,0.183-0.105,0.389-0.123,0.615
				c-0.014,0.226-0.021,0.455-0.025,0.694c-0.002,0.24-0.004,0.542-0.004,0.913v1.041c0,0.807,0.021,1.67,0.066,2.593
				c0.014,0.397,0.176,0.675,0.479,0.831V9.79c-0.252-0.024-0.459-0.041-0.612-0.049c-0.153-0.01-0.306-0.013-0.451-0.013
				C105.66,9.729,105.52,9.731,105.371,9.741z"/>
			<path fill="#FFFFFF" d="M109.914,2.511c0.326-0.021,0.57-0.034,0.734-0.034c0.197,0,0.426,0.03,0.688,0.092
				c0.26,0.062,0.465,0.145,0.617,0.25c0.291,0.188,0.508,0.43,0.648,0.728c0.143,0.298,0.211,0.603,0.211,0.912
				c0,0.332-0.074,0.648-0.222,0.949c-0.151,0.302-0.36,0.55-0.631,0.75c-0.108,0.075-0.211,0.132-0.31,0.166
				c0.076,0.129,0.197,0.339,0.363,0.631c0.229,0.397,0.428,0.734,0.592,1.012c0.172,0.276,0.351,0.541,0.543,0.788
				c0.193,0.248,0.388,0.447,0.59,0.595c0.197,0.15,0.392,0.224,0.58,0.224c0.035,0,0.082-0.002,0.144-0.007
				c0.097-0.012,0.172-0.017,0.228-0.017c0.049,0,0.094,0.008,0.133,0.028c0.039,0.022,0.068,0.039,0.084,0.058
				c0,0.047-0.031,0.093-0.098,0.136c-0.063,0.044-0.146,0.084-0.25,0.121c-0.104,0.039-0.205,0.069-0.31,0.089
				c-0.104,0.021-0.188,0.031-0.25,0.031c-0.319,0-0.61-0.063-0.873-0.189c-0.265-0.125-0.5-0.291-0.709-0.504
				c-0.207-0.209-0.394-0.436-0.554-0.672c-0.163-0.24-0.354-0.545-0.577-0.912c-0.181-0.294-0.328-0.533-0.449-0.724
				c-0.123-0.188-0.25-0.362-0.387-0.521h-0.326c-0.067,0-0.179,0.008-0.33,0.027l-0.096,0.008c0,0.812,0.02,1.573,0.055,2.285
				c0.019,0.246,0.06,0.425,0.127,0.535c0.068,0.11,0.187,0.208,0.358,0.289v0.121c-0.254-0.021-0.459-0.038-0.616-0.046
				c-0.158-0.011-0.31-0.014-0.457-0.014c-0.322,0-0.685,0.019-1.086,0.06V9.635c0.17-0.093,0.305-0.2,0.407-0.325
				c0.104-0.122,0.156-0.269,0.16-0.446c0.013-0.583,0.019-1.459,0.019-2.629c0-0.44-0.006-0.895-0.019-1.355
				c-0.01-0.462-0.024-0.91-0.047-1.342c-0.01-0.211-0.049-0.391-0.113-0.54c-0.063-0.147-0.19-0.275-0.383-0.38V2.485
				c0.465,0.047,0.814,0.071,1.047,0.071C109.33,2.557,109.586,2.542,109.914,2.511z M109.699,5.043v0.974
				c0.084,0,0.205-0.004,0.355-0.008c0.122,0,0.2,0,0.233,0c0.53,0,0.896-0.124,1.101-0.373c0.203-0.249,0.303-0.662,0.303-1.241
				c0-0.245-0.049-0.481-0.148-0.713c-0.102-0.229-0.229-0.405-0.383-0.522c-0.129-0.094-0.266-0.151-0.418-0.179
				c-0.15-0.025-0.328-0.04-0.533-0.04c-0.088,0-0.225,0.013-0.414,0.035h-0.023c-0.021,0.071-0.035,0.194-0.035,0.369
				c0,0.099-0.002,0.175-0.006,0.229C109.707,3.882,109.699,4.37,109.699,5.043z"/>
			<path fill="#FFFFFF" d="M120.078,3.052c-0.129,0.281-0.207,0.485-0.236,0.609c-0.006,0.036-0.039,0.065-0.102,0.092
				c-0.063,0.027-0.111,0.039-0.146,0.039c-0.08,0-0.131-0.026-0.156-0.078c-0.026-0.053-0.047-0.126-0.057-0.225
				c-0.004-0.05-0.012-0.083-0.016-0.094c-0.016-0.08-0.049-0.139-0.094-0.177c-0.047-0.038-0.097-0.059-0.148-0.065
				c-0.131-0.005-0.34-0.007-0.617-0.007h-0.645l-0.039,0.559c-0.027,0.375-0.041,0.843-0.041,1.411c0,0.189,0.002,0.398,0.008,0.63
				c0,0.319,0,0.506,0,0.558c0,0.792,0.021,1.64,0.064,2.545c0.018,0.39,0.176,0.666,0.479,0.818v0.121
				c-0.252-0.024-0.457-0.039-0.611-0.047c-0.15-0.01-0.305-0.013-0.453-0.013c-0.133,0-0.274,0.003-0.424,0.013
				c-0.15,0.008-0.336,0.022-0.564,0.047V9.667c0.146-0.079,0.261-0.182,0.341-0.306c0.084-0.123,0.127-0.275,0.131-0.46
				c0.013-0.571,0.019-1.431,0.019-2.571c0-0.603,0-1.108,0-1.515c0-0.407-0.006-0.821-0.019-1.239l-0.008-0.43
				c-0.283,0-0.533,0.007-0.755,0.026c-0.225,0.015-0.44,0.051-0.657,0.102c-0.063,0.02-0.144,0.05-0.229,0.096
				c-0.092,0.046-0.186,0.112-0.281,0.197c-0.014,0.005-0.032,0.024-0.061,0.053c-0.057,0.057-0.111,0.103-0.166,0.137
				c-0.057,0.035-0.119,0.052-0.188,0.052c-0.047,0-0.1-0.014-0.146-0.038c-0.051-0.026-0.076-0.044-0.076-0.057
				c0.006-0.046,0.055-0.138,0.148-0.274c0.098-0.145,0.162-0.254,0.195-0.328c0.006-0.016,0.022-0.06,0.059-0.129
				c0.09-0.183,0.148-0.336,0.174-0.457h0.344c0.056,0.065,0.103,0.104,0.146,0.121s0.119,0.031,0.228,0.034
				c0.442,0.007,1.108,0.009,1.991,0.009c0.291,0,0.748-0.011,1.367-0.034c0.226-0.005,0.449-0.012,0.677-0.017
				c0.088-0.006,0.202-0.037,0.348-0.096c0.07-0.026,0.125-0.05,0.164-0.06h0.274C120.283,2.592,120.207,2.781,120.078,3.052z"/>
			<path fill="#FFFFFF" d="M123.625,9.703c-0.275-0.046-0.531-0.142-0.773-0.289c-0.242-0.148-0.44-0.371-0.6-0.669
				s-0.238-0.68-0.244-1.147L122,6.99c-0.008-0.369-0.018-0.614-0.018-0.735c0-0.169,0.01-0.479,0.018-0.928
				c0.002-0.412,0.008-0.74,0.008-0.988c0-0.188-0.006-0.444-0.016-0.78c-0.012-0.212-0.049-0.401-0.111-0.559
				c-0.063-0.159-0.184-0.302-0.361-0.43V2.467c0.252,0.023,0.457,0.04,0.603,0.051c0.146,0.012,0.289,0.019,0.422,0.019
				c0.106,0,0.283-0.011,0.524-0.025c0.211-0.019,0.373-0.029,0.48-0.036V2.58c-0.146,0.082-0.252,0.213-0.314,0.396
				c-0.067,0.182-0.104,0.386-0.125,0.611c-0.016,0.22-0.024,0.447-0.026,0.684c-0.004,0.238-0.004,0.536-0.004,0.902v1.031
				c0,0.174,0,0.348,0.004,0.524c0.002,0.175,0.01,0.415,0.021,0.714c0.01,0.398,0.056,0.721,0.138,0.968
				c0.082,0.245,0.188,0.429,0.317,0.554c0.129,0.124,0.273,0.209,0.433,0.249c0.161,0.039,0.352,0.059,0.571,0.059
				c0.306,0,0.551-0.022,0.746-0.07c0.189-0.046,0.353-0.138,0.482-0.276c0.135-0.137,0.238-0.343,0.311-0.615
				c0.072-0.271,0.115-0.63,0.125-1.076c0.004-0.16,0.01-0.357,0.01-0.589V6.228c0-0.075,0.005-0.336,0.009-0.779
				c0-0.302,0-0.575,0-0.824c0-0.479-0.004-0.836-0.019-1.065c-0.01-0.271-0.049-0.473-0.106-0.604
				c-0.063-0.13-0.201-0.254-0.412-0.377V2.475c0.144,0.007,0.299,0.018,0.472,0.036c0.146,0.012,0.245,0.015,0.301,0.015
				c0.104,0,0.276-0.008,0.521-0.025c0.209-0.017,0.375-0.028,0.494-0.033V2.57c-0.168,0.093-0.281,0.207-0.343,0.344
				c-0.059,0.134-0.096,0.355-0.104,0.662c-0.016,0.364-0.024,0.749-0.026,1.157c-0.002,0.406-0.004,0.894-0.004,1.46
				c0,0.046,0,0.171,0,0.371c-0.009,0.209-0.011,0.337-0.011,0.383c0,0.631-0.063,1.136-0.188,1.521
				c-0.127,0.385-0.305,0.669-0.527,0.854c-0.227,0.186-0.48,0.308-0.768,0.364c-0.287,0.059-0.637,0.087-1.039,0.087
				C124.18,9.773,123.893,9.749,123.625,9.703z"/>
			<path fill="#FFFFFF" d="M133.91,8.759c0.08,0.227,0.18,0.41,0.295,0.548c0.119,0.138,0.266,0.25,0.438,0.33v0.14
				c-0.221-0.041-0.418-0.068-0.582-0.087c-0.166-0.018-0.315-0.025-0.457-0.025c-0.168,0-0.336,0.007-0.504,0.022
				c-0.166,0.015-0.371,0.042-0.608,0.083V9.646c0-0.04,0.032-0.11,0.104-0.209c0.104-0.145,0.154-0.26,0.154-0.349
				c0-0.058-0.004-0.119-0.021-0.188c-0.014-0.066-0.024-0.112-0.035-0.135l-0.625-1.829c-0.34-0.029-0.643-0.042-0.907-0.042
				c-0.375,0-0.695,0.013-0.959,0.042l-0.716,1.985v0.01c-0.036,0.094-0.061,0.164-0.071,0.212
				c-0.013,0.052-0.017,0.107-0.017,0.171c0,0.135,0.05,0.25,0.146,0.349V9.77c-0.185-0.031-0.34-0.049-0.463-0.062
				c-0.123-0.012-0.24-0.019-0.347-0.019c-0.127,0-0.258,0.007-0.391,0.019c-0.137,0.013-0.313,0.034-0.527,0.068l0.105-0.14
				c0.199-0.073,0.373-0.184,0.516-0.33c0.144-0.145,0.265-0.343,0.361-0.593l1.93-5.032c0.015-0.023,0.019-0.064,0.019-0.123
				c0-0.173-0.058-0.347-0.168-0.519c-0.108-0.17-0.259-0.326-0.44-0.465l-0.031-0.104c0.416,0.04,0.795,0.062,1.137,0.062h0.348
				l0.387,1.036L133.91,8.759z M131.891,6.468V6.442l-0.717-2.021l-0.76,2.021v0.025c0.322,0.01,0.566,0.017,0.729,0.017
				C131.307,6.484,131.555,6.478,131.891,6.468z"/>
			<path fill="#FFFFFF" d="M135.873,9.756l-0.01-0.148c0.066-0.035,0.129-0.09,0.197-0.164c0.063-0.075,0.123-0.166,0.182-0.27
				c0.057-0.105,0.102-0.215,0.139-0.323c0.033-0.109,0.051-0.208,0.051-0.297c0.012-0.438,0.017-0.803,0.017-1.089
				c0-0.287,0-0.694,0-1.222c0-0.441-0.005-0.89-0.017-1.349c-0.01-0.458-0.026-0.9-0.047-1.329
				c-0.012-0.214-0.049-0.401-0.111-0.562c-0.063-0.158-0.182-0.303-0.36-0.431V2.471c0.254,0.022,0.455,0.04,0.604,0.052
				c0.145,0.01,0.285,0.016,0.42,0.016c0.106,0,0.285-0.007,0.526-0.023c0.211-0.02,0.369-0.031,0.479-0.035v0.103
				c-0.147,0.081-0.252,0.213-0.317,0.396s-0.104,0.388-0.121,0.614c-0.016,0.22-0.024,0.449-0.026,0.687
				c-0.002,0.238-0.002,0.539-0.002,0.905v1.033c0,0.411,0.004,0.781,0.014,1.109c0.014,0.327,0.027,0.734,0.049,1.222
				c0.016,0.29,0.109,0.489,0.279,0.596c0.168,0.107,0.404,0.16,0.701,0.16c0.201,0,0.406-0.032,0.608-0.095
				c0.205-0.063,0.388-0.164,0.543-0.295c0.093-0.076,0.207-0.228,0.341-0.452c0.084-0.135,0.149-0.233,0.207-0.302
				c0.059-0.066,0.12-0.1,0.192-0.1c0.084,0,0.142,0.019,0.17,0.054c0.026,0.032,0.041,0.068,0.041,0.104
				c0,0.046-0.013,0.106-0.037,0.183c-0.022,0.076-0.065,0.182-0.125,0.32c-0.11,0.262-0.18,0.456-0.211,0.583
				c-0.021,0.089-0.069,0.171-0.146,0.254c-0.071,0.08-0.18,0.122-0.319,0.13c-0.021,0-0.125,0.005-0.313,0.017
				c-0.324,0.021-0.568,0.034-0.73,0.034c-0.191,0-0.354-0.002-0.494-0.007c-0.137-0.007-0.311-0.016-0.521-0.027
				c-0.324-0.017-0.582-0.025-0.771-0.025C136.758,9.678,136.396,9.703,135.873,9.756z"/>
			<path fill="#FFFFFF" d="M142.348,9.691c-0.149,0.012-0.352,0.032-0.598,0.061c-0.027,0-0.072,0.004-0.131,0.009V9.57
				c0.064-0.042,0.131-0.099,0.199-0.171c0.065-0.072,0.129-0.161,0.19-0.26c0.132-0.214,0.197-0.412,0.203-0.593
				c0.011-0.443,0.017-0.808,0.017-1.097c0-0.288,0-0.696,0-1.228c0-0.442-0.006-0.896-0.017-1.354
				c-0.012-0.46-0.024-0.906-0.049-1.336c-0.013-0.192-0.065-0.368-0.16-0.529c-0.101-0.159-0.252-0.296-0.457-0.405l-0.024-0.15
				l0.131,0.011c0.311,0.034,0.576,0.06,0.787,0.077c0.213,0.018,0.375,0.027,0.485,0.027c0.089,0,0.205-0.003,0.354-0.01
				c0.15-0.004,0.33-0.015,0.541-0.027c0.104-0.003,0.18-0.009,0.234-0.016c0.399-0.03,0.684-0.043,0.852-0.043
				c0.117,0,0.225,0.001,0.318,0.005c0.09,0.001,0.186,0.012,0.282,0.025c0.101,0.014,0.181,0.035,0.242,0.068
				c0.063,0.032,0.099,0.074,0.099,0.127c0,0.146,0.012,0.311,0.041,0.49c0.016,0.135,0.024,0.238,0.024,0.315
				c0,0.017-0.021,0.041-0.056,0.069c-0.034,0.027-0.084,0.043-0.147,0.043c-0.082,0-0.142-0.018-0.176-0.052
				c-0.033-0.035-0.063-0.085-0.093-0.149c-0.018-0.03-0.026-0.048-0.032-0.051c-0.086-0.142-0.22-0.249-0.397-0.324
				c-0.179-0.076-0.457-0.115-0.837-0.115c-0.112,0-0.307,0.014-0.581,0.036l-0.263,0.027c-0.019,0.064-0.026,0.188-0.031,0.376
				c-0.008,0.074-0.014,0.143-0.018,0.2c-0.021,0.325-0.033,0.845-0.033,1.555v0.621c0.394,0.012,0.676,0.017,0.854,0.017
				c0.162,0,0.283-0.002,0.362-0.009c0.173-0.007,0.318-0.039,0.435-0.1c0.117-0.062,0.238-0.194,0.361-0.398h0.346
				c-0.01,0.083-0.017,0.172-0.027,0.271c-0.021,0.194-0.035,0.361-0.035,0.507c0,0.158,0,0.268,0,0.329
				c0,0.06,0.01,0.186,0.02,0.371h-0.35c-0.082-0.171-0.191-0.286-0.326-0.351c-0.133-0.063-0.299-0.104-0.483-0.123
				c-0.242-0.022-0.63-0.034-1.154-0.034c0,0.408,0.006,0.776,0.017,1.106c0.012,0.328,0.026,0.733,0.049,1.219
				c0.004,0.146,0.049,0.266,0.127,0.361c0.076,0.095,0.18,0.172,0.303,0.223c0.119,0.053,0.248,0.088,0.385,0.105
				c0.133,0.017,0.279,0.027,0.434,0.027c0.234,0,0.429-0.02,0.58-0.053c0.15-0.036,0.301-0.117,0.445-0.246
				c0.082-0.069,0.193-0.197,0.342-0.384c0.105-0.133,0.195-0.233,0.26-0.296c0.063-0.065,0.129-0.098,0.195-0.098
				c0.064,0,0.117,0.016,0.16,0.048c0.045,0.032,0.064,0.057,0.064,0.073c0,0.071-0.057,0.214-0.17,0.429
				c-0.135,0.25-0.221,0.444-0.25,0.577l-0.01,0.02c-0.027,0.111-0.078,0.197-0.152,0.263c-0.076,0.063-0.234,0.095-0.471,0.095
				h-1.211c-0.334,0-0.632-0.004-0.896-0.009c-0.353,0-0.591,0-0.72,0C142.621,9.674,142.496,9.679,142.348,9.691z"/>
			<path fill="#FFFFFF" d="M155.439,5.369c-0.002-0.175-0.006-0.321-0.01-0.434c-0.005-0.115-0.017-0.34-0.035-0.677l-0.019-0.315
				c-0.01-0.223-0.056-0.406-0.127-0.551c-0.069-0.145-0.211-0.235-0.416-0.272V3.04c0.043-0.055,0.106-0.096,0.19-0.126
				c0.09-0.03,0.199-0.062,0.334-0.092c0.115-0.022,0.191-0.041,0.229-0.053c0.043-0.018,0.097-0.048,0.151-0.091
				c0.089-0.066,0.189-0.116,0.302-0.149c0.108-0.032,0.289-0.05,0.537-0.05v0.099c-0.021,0.043-0.041,0.198-0.054,0.467
				c-0.014,0.268-0.024,0.558-0.032,0.875c-0.009,0.314-0.013,0.665-0.015,1.052c-0.004,0.385-0.006,0.749-0.006,1.093
				c0,0.837,0.021,1.725,0.064,2.67c0.006,0.111,0.012,0.177,0.021,0.199c0.008,0.025,0.032,0.036,0.077,0.036
				c0.009,0,0.039-0.008,0.086-0.025c0.121-0.048,0.224-0.074,0.304-0.074c0.096,0,0.164,0.028,0.201,0.083
				c0.036,0.054,0.057,0.108,0.057,0.163c0,0.06-0.045,0.127-0.141,0.202c-0.099,0.075-0.205,0.144-0.328,0.203
				c-0.101,0.054-0.205,0.099-0.326,0.132c-0.119,0.033-0.228,0.05-0.32,0.05c-0.127,0-0.248-0.024-0.367-0.073
				c-0.117-0.048-0.203-0.126-0.271-0.234c-0.147,0.108-0.317,0.195-0.51,0.262c-0.188,0.066-0.375,0.099-0.559,0.099
				c-0.262,0-0.508-0.063-0.74-0.188c-0.23-0.128-0.436-0.3-0.607-0.52c-0.172-0.221-0.309-0.47-0.407-0.75
				c-0.097-0.279-0.146-0.57-0.146-0.871c0-0.307,0.047-0.593,0.141-0.862c0.092-0.267,0.225-0.506,0.398-0.708
				c0.174-0.204,0.387-0.366,0.641-0.479c0.254-0.115,0.539-0.171,0.861-0.171C154.934,5.207,155.215,5.262,155.439,5.369z
				 M153.934,6.122c-0.188,0.269-0.287,0.632-0.287,1.088c0,0.234,0.027,0.461,0.078,0.677c0.053,0.217,0.129,0.414,0.234,0.593
				c0.105,0.18,0.236,0.316,0.393,0.419c0.154,0.104,0.33,0.152,0.531,0.152c0.131,0,0.234-0.015,0.314-0.048
				c0.082-0.033,0.156-0.088,0.229-0.168V8.789c0.012-0.582,0.014-1.474,0.014-2.671c-0.09-0.139-0.188-0.241-0.295-0.303
				c-0.104-0.063-0.235-0.095-0.399-0.095C154.396,5.721,154.129,5.854,153.934,6.122z"/>
			<path fill="#FFFFFF" d="M161.74,7.107c-0.039,0.031-0.09,0.046-0.156,0.046c-0.033,0-0.072-0.003-0.121-0.01
				c-0.027-0.005-0.045-0.009-0.055-0.009h-2.467v0.082c0,0.246,0.026,0.484,0.08,0.715c0.053,0.229,0.133,0.436,0.237,0.619
				c0.105,0.183,0.234,0.329,0.39,0.435c0.156,0.104,0.328,0.157,0.516,0.157c0.139,0,0.27-0.029,0.389-0.092
				c0.121-0.058,0.242-0.143,0.365-0.251c0.047-0.036,0.113-0.112,0.213-0.225c0.092-0.109,0.168-0.19,0.23-0.245
				c0.062-0.055,0.123-0.082,0.182-0.082c0.088,0,0.146,0.036,0.18,0.107c0.031,0.073,0.049,0.147,0.049,0.226
				c-0.006,0.093-0.045,0.196-0.119,0.319c-0.069,0.119-0.159,0.221-0.262,0.306c-0.184,0.175-0.391,0.312-0.61,0.408
				c-0.228,0.097-0.494,0.145-0.802,0.145c-0.362,0-0.676-0.063-0.942-0.187c-0.267-0.122-0.479-0.293-0.646-0.507
				c-0.162-0.215-0.285-0.462-0.365-0.739c-0.077-0.282-0.116-0.579-0.116-0.894c0-0.306,0.049-0.597,0.144-0.868
				c0.094-0.271,0.235-0.508,0.426-0.713c0.188-0.208,0.422-0.368,0.694-0.48c0.271-0.115,0.582-0.171,0.929-0.171
				c0.147,0,0.321,0.032,0.512,0.098c0.188,0.066,0.375,0.169,0.555,0.307c0.184,0.142,0.332,0.324,0.451,0.548
				c0.119,0.227,0.18,0.494,0.18,0.802C161.797,7.025,161.775,7.077,161.74,7.107z M159.021,6.617h1.67
				c-0.031-0.003-0.053-0.021-0.058-0.053V6.557c-0.021-0.224-0.09-0.408-0.207-0.554c-0.114-0.145-0.282-0.216-0.497-0.216
				c-0.232,0-0.421,0.056-0.564,0.172c-0.143,0.115-0.256,0.297-0.336,0.552c-0.004,0.016-0.008,0.047-0.008,0.092V6.617z"/>
			<path fill="#FFFFFF" d="M163.104,9.706c-0.146,0.009-0.336,0.025-0.561,0.05V9.63c0.145-0.087,0.26-0.193,0.34-0.325
				c0.08-0.131,0.127-0.294,0.129-0.486c0.012-0.606,0.018-1.514,0.018-2.732c0-0.34-0.004-0.621-0.01-0.844
				c-0.006-0.221-0.02-0.541-0.039-0.953l-0.018-0.374c-0.01-0.225-0.053-0.413-0.125-0.557c-0.072-0.146-0.213-0.237-0.418-0.272
				V3.003c0.043-0.056,0.107-0.098,0.189-0.128c0.086-0.031,0.197-0.062,0.338-0.092c0.115-0.024,0.188-0.043,0.227-0.055
				c0.043-0.019,0.092-0.048,0.148-0.092c0.084-0.06,0.184-0.109,0.299-0.146c0.115-0.036,0.297-0.055,0.543-0.055v0.103
				c-0.02,0.04-0.039,0.192-0.057,0.451c-0.015,0.259-0.027,0.563-0.037,0.917c-0.008,0.354-0.012,0.714-0.016,1.081
				c0,0.369-0.005,0.725-0.005,1.071c0,0.847,0.021,1.748,0.066,2.703c0.016,0.414,0.174,0.703,0.479,0.868v0.126
				c-0.256-0.024-0.456-0.041-0.612-0.05c-0.154-0.009-0.303-0.015-0.451-0.015C163.395,9.691,163.252,9.697,163.104,9.706z"/>
			<path fill="#FFFFFF" d="M166.053,9.706c-0.146,0.009-0.334,0.025-0.561,0.05V9.63c0.145-0.087,0.26-0.193,0.34-0.325
				c0.08-0.131,0.123-0.294,0.131-0.486c0.01-0.606,0.014-1.514,0.014-2.732c0-0.34-0.002-0.621-0.008-0.844
				c-0.006-0.221-0.018-0.541-0.037-0.953l-0.02-0.374c-0.014-0.225-0.053-0.413-0.125-0.557c-0.074-0.146-0.213-0.237-0.416-0.272
				V3.003c0.043-0.056,0.105-0.098,0.188-0.128c0.086-0.031,0.197-0.062,0.338-0.092c0.113-0.024,0.189-0.043,0.228-0.055
				c0.043-0.019,0.094-0.048,0.146-0.092c0.086-0.06,0.187-0.109,0.299-0.146c0.117-0.036,0.298-0.055,0.545-0.055v0.103
				c-0.021,0.04-0.036,0.192-0.057,0.451c-0.014,0.259-0.027,0.563-0.035,0.917s-0.016,0.714-0.016,1.081
				C167.002,5.356,167,5.712,167,6.059c0,0.847,0.023,1.748,0.064,2.703c0.018,0.414,0.178,0.703,0.479,0.868v0.126
				c-0.256-0.024-0.459-0.041-0.614-0.05c-0.152-0.009-0.306-0.015-0.449-0.015C166.346,9.691,166.205,9.697,166.053,9.706z"/>
			<path fill="#FFFFFF" d="M169.074,2.545c0.068,0.051,0.121,0.115,0.156,0.193c0.039,0.078,0.063,0.162,0.076,0.248
				c0.016,0.088,0.021,0.164,0.021,0.236c0,0.226-0.035,0.397-0.095,0.512c-0.061,0.112-0.186,0.223-0.368,0.332l-0.341-0.195
				c0.093-0.063,0.138-0.141,0.138-0.227c0-0.011,0-0.027,0-0.052c-0.007-0.031-0.007-0.051-0.007-0.063H168.6
				c-0.188,0-0.324-0.055-0.422-0.165c-0.094-0.11-0.141-0.237-0.141-0.379c0-0.065,0.023-0.129,0.072-0.189
				c0.049-0.063,0.115-0.118,0.195-0.167c0.082-0.05,0.17-0.088,0.266-0.119c0.094-0.027,0.184-0.043,0.264-0.043
				C168.93,2.468,169.012,2.493,169.074,2.545z"/>
		</g>
		<g>
			<g>
				<path fill="#FFFFFF" d="M62.683,25.975c0.443,0.202,0.82,0.479,1.133,0.834c0.311,0.353,0.547,0.754,0.707,1.205
					c0.158,0.451,0.24,0.924,0.24,1.414c0,0.403-0.057,0.787-0.166,1.151c-0.107,0.364-0.26,0.698-0.461,0.999
					c-0.201,0.298-0.438,0.558-0.715,0.777c-0.275,0.221-0.58,0.395-0.916,0.524c0.352,0.125,0.852,0.324,1.494,0.595
					c0.832,0.356,1.527,0.625,2.082,0.799c0.559,0.174,1.137,0.262,1.732,0.262c0.238,0,0.455-0.035,0.648-0.107
					c0.195-0.07,0.393-0.195,0.594-0.375c0.008-0.006,0.037-0.018,0.082-0.039c0.049-0.02,0.09-0.029,0.127-0.029
					c0.061,0,0.119,0.019,0.178,0.054l0.01,0.01c0,0.004-0.01,0.021-0.033,0.048c-0.02,0.026-0.061,0.063-0.113,0.112
					c-0.32,0.31-0.695,0.556-1.131,0.742c-0.438,0.188-0.873,0.278-1.313,0.278c-0.645,0-1.246-0.11-1.813-0.332
					c-0.561-0.223-1.188-0.539-1.879-0.948c-0.434-0.257-0.805-0.453-1.115-0.589c-0.307-0.135-0.635-0.215-0.979-0.237
					c-0.488-0.029-0.945-0.136-1.373-0.315c-0.428-0.182-0.803-0.427-1.124-0.744c-0.321-0.313-0.571-0.688-0.755-1.125
					c-0.182-0.437-0.271-0.908-0.271-1.428c0-0.496,0.094-0.979,0.284-1.447c0.188-0.465,0.453-0.879,0.795-1.234
					c0.341-0.359,0.733-0.643,1.173-0.848c0.441-0.203,0.904-0.307,1.383-0.307C61.742,25.672,62.24,25.773,62.683,25.975z
					 M58.902,30.595c0.123,0.409,0.299,0.763,0.531,1.063c0.23,0.298,0.5,0.531,0.809,0.697c0.314,0.168,0.65,0.248,1.014,0.248
					c0.719,0,1.293-0.271,1.725-0.813c0.43-0.541,0.645-1.292,0.645-2.246c0-0.534-0.063-1.012-0.191-1.437
					c-0.125-0.42-0.305-0.771-0.531-1.051c-0.227-0.281-0.486-0.498-0.783-0.64c-0.295-0.14-0.609-0.214-0.943-0.214
					c-0.369,0-0.705,0.074-1.008,0.219c-0.303,0.145-0.564,0.355-0.779,0.626c-0.215,0.276-0.383,0.601-0.5,0.974
					c-0.115,0.381-0.173,0.797-0.173,1.254C58.715,29.751,58.777,30.191,58.902,30.595z"/>
				<path fill="#FFFFFF" d="M67.923,33.072c-0.271-0.045-0.527-0.146-0.77-0.295c-0.246-0.152-0.447-0.379-0.604-0.682
					c-0.156-0.306-0.236-0.695-0.244-1.175l-0.006-0.62c-0.012-0.376-0.02-0.628-0.02-0.752c0-0.17,0.008-0.484,0.02-0.947
					c0.004-0.418,0.006-0.754,0.006-1.008c0-0.188-0.004-0.455-0.016-0.797c-0.01-0.219-0.049-0.408-0.109-0.57
					c-0.063-0.164-0.184-0.309-0.361-0.439V25.68c0.254,0.025,0.455,0.043,0.602,0.055c0.147,0.013,0.285,0.02,0.422,0.02
					c0.105,0,0.285-0.01,0.527-0.027c0.213-0.018,0.373-0.031,0.48-0.035v0.105c-0.148,0.083-0.252,0.219-0.318,0.402
					c-0.066,0.188-0.105,0.395-0.121,0.627c-0.016,0.222-0.025,0.455-0.027,0.695c-0.004,0.242-0.006,0.551-0.006,0.922v1.054
					c0,0.177,0.002,0.358,0.006,0.537c0.002,0.18,0.008,0.422,0.02,0.729c0.012,0.404,0.059,0.734,0.139,0.986
					c0.08,0.249,0.188,0.439,0.314,0.566c0.131,0.129,0.275,0.211,0.436,0.252c0.16,0.039,0.35,0.061,0.572,0.061
					c0.303,0,0.551-0.021,0.744-0.07c0.189-0.047,0.352-0.141,0.484-0.283c0.135-0.14,0.238-0.349,0.309-0.627
					c0.072-0.273,0.115-0.644,0.127-1.096c0.006-0.164,0.006-0.367,0.006-0.604v-0.426c0-0.075,0.006-0.34,0.01-0.797
					c0-0.307,0-0.588,0-0.841c0-0.489-0.004-0.852-0.016-1.089c-0.012-0.277-0.047-0.482-0.111-0.617
					c-0.061-0.131-0.197-0.261-0.41-0.384v-0.106c0.143,0.004,0.299,0.019,0.475,0.035c0.143,0.012,0.244,0.019,0.299,0.019
					c0.102,0,0.275-0.009,0.518-0.025c0.211-0.018,0.375-0.03,0.496-0.038v0.106c-0.168,0.096-0.281,0.214-0.342,0.353
					c-0.059,0.137-0.096,0.361-0.104,0.676c-0.02,0.375-0.027,0.767-0.029,1.183c-0.004,0.418-0.004,0.913-0.004,1.489
					c0,0.048,0,0.179,0,0.383c-0.008,0.216-0.008,0.341-0.008,0.39c0,0.644-0.064,1.162-0.193,1.554
					c-0.125,0.392-0.303,0.685-0.523,0.871c-0.227,0.188-0.484,0.314-0.771,0.371c-0.283,0.062-0.629,0.09-1.037,0.09
					C68.478,33.145,68.193,33.121,67.923,33.072z"/>
				<path fill="#FFFFFF" d="M78.007,25.973c0.441,0.193,0.813,0.461,1.115,0.805c0.305,0.338,0.535,0.732,0.691,1.178
					c0.156,0.45,0.234,0.928,0.234,1.438c0,0.524-0.092,1.017-0.271,1.478c-0.182,0.461-0.436,0.86-0.762,1.2
					c-0.32,0.338-0.699,0.596-1.131,0.781c-0.428,0.188-0.885,0.278-1.365,0.278c-0.482,0-0.939-0.096-1.369-0.291
					c-0.432-0.192-0.807-0.465-1.133-0.812c-0.326-0.344-0.576-0.744-0.756-1.199c-0.184-0.452-0.275-0.922-0.275-1.419
					c0-0.492,0.092-0.966,0.275-1.417c0.18-0.453,0.43-0.854,0.756-1.202c0.326-0.351,0.701-0.623,1.133-0.815
					c0.43-0.195,0.887-0.293,1.369-0.293C77.07,25.68,77.566,25.777,78.007,25.973z M75.572,26.411
					c-0.289,0.144-0.541,0.345-0.754,0.604s-0.381,0.576-0.492,0.943c-0.119,0.366-0.178,0.773-0.178,1.221
					c0,0.446,0.059,0.879,0.18,1.293c0.115,0.408,0.285,0.783,0.502,1.104c0.219,0.323,0.469,0.575,0.76,0.756
					c0.289,0.183,0.598,0.272,0.93,0.272c0.346,0,0.666-0.065,0.961-0.196c0.293-0.132,0.551-0.323,0.775-0.577
					c0.219-0.253,0.393-0.557,0.516-0.918c0.121-0.355,0.184-0.755,0.184-1.195c0-0.553-0.063-1.049-0.184-1.486
					c-0.123-0.438-0.297-0.809-0.516-1.107c-0.225-0.303-0.482-0.532-0.775-0.691c-0.295-0.152-0.615-0.231-0.961-0.231
					C76.175,26.2,75.863,26.271,75.572,26.411z"/>
				<path fill="#FFFFFF" d="M86.727,26.279c-0.129,0.285-0.207,0.494-0.236,0.623c-0.006,0.035-0.039,0.063-0.102,0.09
					c-0.063,0.029-0.113,0.039-0.148,0.039c-0.076,0-0.127-0.025-0.156-0.078c-0.025-0.051-0.045-0.128-0.055-0.229
					c-0.006-0.053-0.012-0.084-0.018-0.097c-0.021-0.082-0.048-0.144-0.093-0.181c-0.047-0.037-0.098-0.061-0.152-0.064
					c-0.127-0.007-0.334-0.01-0.615-0.01h-0.643l-0.039,0.57c-0.027,0.382-0.041,0.856-0.041,1.438c0,0.19,0.002,0.406,0.008,0.64
					c0,0.326,0,0.515,0,0.569c0,0.806,0.02,1.67,0.063,2.593c0.018,0.396,0.18,0.674,0.482,0.832v0.125
					c-0.258-0.023-0.461-0.041-0.613-0.05c-0.154-0.01-0.305-0.012-0.451-0.012c-0.135,0-0.275,0.002-0.426,0.012
					c-0.15,0.009-0.338,0.025-0.564,0.05v-0.125c0.146-0.08,0.26-0.185,0.34-0.31c0.08-0.127,0.123-0.285,0.129-0.472
					c0.014-0.582,0.018-1.459,0.018-2.619c0-0.615,0-1.129,0-1.545c0-0.413-0.004-0.832-0.018-1.262l-0.006-0.438
					c-0.283,0-0.533,0.01-0.754,0.027c-0.227,0.016-0.441,0.053-0.662,0.104c-0.061,0.018-0.139,0.049-0.229,0.096
					s-0.184,0.113-0.279,0.203c-0.01,0.006-0.027,0.024-0.057,0.053c-0.063,0.058-0.117,0.105-0.172,0.141
					c-0.053,0.033-0.115,0.053-0.184,0.053c-0.049,0-0.098-0.014-0.148-0.039c-0.051-0.027-0.072-0.045-0.072-0.058
					c0.004-0.046,0.053-0.142,0.146-0.28c0.098-0.146,0.162-0.259,0.193-0.334c0.008-0.018,0.025-0.061,0.059-0.132
					c0.092-0.187,0.15-0.343,0.178-0.463h0.342c0.055,0.063,0.102,0.104,0.145,0.12c0.043,0.02,0.119,0.031,0.229,0.037
					c0.443,0.007,1.105,0.008,1.986,0.008c0.293,0,0.752-0.012,1.373-0.035c0.221-0.004,0.447-0.012,0.672-0.016
					c0.088-0.008,0.204-0.039,0.352-0.1c0.07-0.027,0.123-0.048,0.162-0.059h0.272C86.93,25.811,86.855,26.004,86.727,26.279z"/>
				<path fill="#FFFFFF" d="M88.923,33.078c-0.149,0.01-0.338,0.025-0.563,0.051v-0.127c0.145-0.08,0.26-0.189,0.34-0.314
					c0.08-0.129,0.125-0.289,0.129-0.477c0.014-0.592,0.018-1.477,0.018-2.656c0-0.451-0.004-0.912-0.018-1.38
					c-0.01-0.467-0.025-0.92-0.049-1.356c-0.01-0.223-0.047-0.412-0.105-0.574c-0.057-0.164-0.178-0.311-0.355-0.439v-0.105
					c0.248,0.023,0.445,0.04,0.593,0.053c0.146,0.012,0.286,0.018,0.422,0.018c0.103,0,0.274-0.008,0.521-0.023
					c0.213-0.021,0.377-0.032,0.496-0.038v0.104c-0.152,0.086-0.261,0.22-0.326,0.405c-0.063,0.187-0.104,0.396-0.121,0.627
					c-0.014,0.226-0.025,0.46-0.027,0.701c-0.006,0.244-0.006,0.552-0.006,0.927v1.057c0,0.815,0.023,1.695,0.066,2.631
					c0.016,0.4,0.174,0.686,0.479,0.844v0.127c-0.256-0.025-0.457-0.041-0.615-0.051c-0.152-0.01-0.303-0.014-0.449-0.014
					C89.212,33.064,89.068,33.068,88.923,33.078z"/>
				<path fill="#FFFFFF" d="M96.732,25.923c0.44,0.161,0.832,0.392,1.162,0.695c0.332,0.307,0.592,0.666,0.778,1.085
					c0.188,0.415,0.281,0.869,0.281,1.357c0,0.57-0.097,1.106-0.287,1.603c-0.188,0.499-0.461,0.935-0.817,1.308
					c-0.354,0.37-0.783,0.659-1.277,0.864c-0.496,0.207-1.039,0.313-1.635,0.317c-0.185,0-0.486-0.014-0.908-0.045
					c-0.398-0.028-0.689-0.043-0.879-0.043c-0.15,0-0.322,0.004-0.517,0.015c-0.188,0.008-0.393,0.022-0.604,0.049v-0.137
					c0.15-0.082,0.289-0.214,0.414-0.39c0.123-0.174,0.189-0.354,0.193-0.539c0.006-0.299,0.012-0.715,0.012-1.262v-1.269
					c0-0.452-0.008-0.913-0.021-1.386c-0.01-0.471-0.024-0.926-0.047-1.365c-0.019-0.354-0.231-0.682-0.649-0.983V25.7
					c0.213,0.024,0.428,0.043,0.646,0.053c0.221,0.013,0.405,0.019,0.555,0.019c0.166,0,0.316-0.002,0.461-0.01
					c0.142-0.005,0.316-0.018,0.521-0.035c0.245-0.013,0.452-0.021,0.62-0.031c0.175-0.008,0.375-0.014,0.608-0.014
					C95.83,25.682,96.295,25.762,96.732,25.923z M94.268,26.229c-0.279,0.017-0.455,0.052-0.521,0.098
					c-0.014,0.088-0.021,0.208-0.027,0.355c-0.004,0.057-0.01,0.098-0.01,0.127c-0.014,0.227-0.025,0.463-0.027,0.705
					c-0.002,0.243-0.004,0.555-0.004,0.93v1.064c0,0.828,0.021,1.709,0.068,2.645c0,0.013,0,0.039,0.006,0.082
					c0,0.029,0,0.059,0,0.09c0.125,0.107,0.307,0.18,0.551,0.217c0.246,0.039,0.59,0.057,1.043,0.057c0.325,0,0.643-0.08,0.944-0.24
					c0.301-0.159,0.563-0.385,0.795-0.676c0.229-0.293,0.41-0.638,0.535-1.031c0.127-0.393,0.19-0.81,0.19-1.25
					c0-0.455-0.067-0.909-0.199-1.361c-0.133-0.45-0.311-0.811-0.532-1.078c-0.229-0.275-0.49-0.471-0.774-0.586
					c-0.289-0.116-0.607-0.174-0.959-0.174C94.906,26.2,94.546,26.208,94.268,26.229z"/>
				<path fill="#FFFFFF" d="M100.705,33.083c-0.148,0.01-0.342,0.024-0.564,0.049v-0.125c0.144-0.084,0.26-0.188,0.342-0.315
					c0.08-0.131,0.123-0.285,0.127-0.478c0.013-0.592,0.019-1.481,0.019-2.664c0-0.45-0.006-0.909-0.019-1.382
					c-0.01-0.466-0.024-0.921-0.047-1.361c-0.01-0.22-0.047-0.408-0.104-0.574c-0.06-0.162-0.181-0.311-0.358-0.44v-0.106
					c0.25,0.022,0.446,0.043,0.596,0.053c0.146,0.014,0.285,0.021,0.418,0.021c0.104,0,0.279-0.013,0.52-0.027
					c0.213-0.021,0.377-0.03,0.498-0.037v0.107c-0.152,0.081-0.26,0.219-0.326,0.402c-0.066,0.188-0.104,0.396-0.123,0.631
					c-0.014,0.225-0.024,0.459-0.027,0.702c-0.002,0.245-0.004,0.553-0.004,0.927v1.059c0,0.822,0.021,1.701,0.063,2.64
					c0.019,0.403,0.179,0.685,0.481,0.845v0.125c-0.256-0.023-0.461-0.039-0.612-0.049c-0.153-0.008-0.304-0.012-0.449-0.012
					C100.996,33.072,100.852,33.076,100.705,33.083z"/>
				<path fill="#FFFFFF" d="M109.66,32.084c0.082,0.23,0.18,0.417,0.297,0.561c0.117,0.141,0.262,0.254,0.434,0.34v0.139
					c-0.223-0.039-0.414-0.068-0.578-0.086c-0.166-0.02-0.319-0.029-0.463-0.029c-0.164,0-0.332,0.008-0.502,0.021
					c-0.166,0.02-0.367,0.047-0.604,0.086v-0.123c0-0.043,0.034-0.115,0.104-0.213c0.103-0.15,0.154-0.271,0.154-0.357
					c0-0.057-0.008-0.121-0.021-0.191c-0.016-0.066-0.026-0.112-0.037-0.133l-0.627-1.869c-0.34-0.028-0.645-0.043-0.907-0.043
					c-0.373,0-0.693,0.015-0.957,0.043l-0.714,2.025v0.01c-0.038,0.094-0.061,0.168-0.073,0.215
					c-0.013,0.052-0.017,0.111-0.017,0.174c0,0.14,0.047,0.259,0.146,0.355v0.107c-0.184-0.027-0.342-0.049-0.463-0.061
					c-0.127-0.015-0.24-0.019-0.348-0.019c-0.125,0-0.254,0.004-0.396,0.019c-0.133,0.012-0.305,0.032-0.522,0.067l0.104-0.14
					c0.201-0.08,0.369-0.19,0.515-0.34c0.145-0.148,0.262-0.35,0.36-0.604l1.933-5.129c0.01-0.023,0.014-0.066,0.014-0.123
					c0-0.183-0.055-0.358-0.162-0.532c-0.111-0.175-0.262-0.332-0.443-0.477l-0.035-0.105c0.42,0.042,0.799,0.063,1.142,0.063h0.35
					l0.388,1.059L109.66,32.084z M107.641,29.751v-0.028l-0.715-2.061l-0.766,2.061v0.028c0.326,0.013,0.57,0.015,0.734,0.015
					C107.057,29.766,107.303,29.764,107.641,29.751z"/>
				<path fill="#FFFFFF" d="M117.063,25.773c0.115,0.019,0.189,0.026,0.228,0.026c0.104,0,0.28-0.009,0.521-0.026
					c0.211-0.018,0.375-0.029,0.484-0.037v0.107c-0.145,0.083-0.25,0.219-0.314,0.401c-0.063,0.185-0.104,0.394-0.121,0.624
					c-0.018,0.225-0.024,0.457-0.028,0.697c-0.002,0.242-0.002,0.549-0.002,0.918v1.052c0,0.216-0.006,0.534-0.009,0.944
					c-0.008,0.562-0.01,0.951-0.01,1.166c0,0.472,0.004,0.804,0.019,1l0.006,0.097c0.006,0.118,0.008,0.196,0.008,0.239
					c0,0.104-0.014,0.183-0.047,0.226c-0.032,0.043-0.094,0.065-0.188,0.065c-0.053,0-0.111-0.028-0.181-0.082
					c-0.067-0.059-0.129-0.121-0.18-0.19l-4.201-5.284v0.627v1.192c0,0.815,0.021,1.692,0.065,2.614
					c0.017,0.408,0.175,0.691,0.478,0.841v0.123c-0.246-0.023-0.448-0.039-0.606-0.048c-0.162-0.01-0.313-0.014-0.455-0.014
					c-0.086,0-0.168,0.002-0.244,0.008c-0.074,0.006-0.23,0.021-0.469,0.045v-0.123c0.141-0.075,0.252-0.18,0.33-0.311
					c0.084-0.131,0.127-0.289,0.133-0.477c0.012-0.582,0.016-1.463,0.016-2.641c0-0.188,0-0.488,0.006-0.893
					c0.008-0.418,0.01-0.735,0.01-0.946c0-0.405-0.006-0.705-0.016-0.899v-0.063c-0.016-0.195-0.061-0.368-0.131-0.521
					c-0.07-0.152-0.188-0.295-0.354-0.424l-0.041-0.123c0.024,0,0.063,0.002,0.11,0.008c0.24,0.029,0.431,0.05,0.563,0.059
					c0.133,0.007,0.27,0.018,0.412,0.021l4.221,5.424v-0.557v-1.096c0-0.447-0.004-0.904-0.018-1.37
					c-0.011-0.466-0.027-0.914-0.052-1.349v-0.012c-0.008-0.235-0.037-0.43-0.086-0.584c-0.051-0.151-0.157-0.293-0.332-0.416
					v-0.112C116.732,25.715,116.891,25.736,117.063,25.773z"/>
				<path fill="#FFFFFF" d="M125.313,32.102c0.08,0.231,0.181,0.422,0.293,0.563c0.119,0.143,0.263,0.258,0.437,0.338v0.143
					c-0.222-0.041-0.416-0.071-0.58-0.09c-0.164-0.016-0.317-0.024-0.459-0.024c-0.17,0-0.336,0.008-0.502,0.022
					c-0.17,0.014-0.371,0.041-0.608,0.082v-0.123c0-0.043,0.034-0.113,0.104-0.215c0.103-0.148,0.151-0.268,0.151-0.354
					c0-0.062-0.006-0.125-0.018-0.191c-0.016-0.068-0.025-0.113-0.037-0.141l-0.625-1.863c-0.34-0.031-0.645-0.045-0.908-0.045
					c-0.375,0-0.694,0.014-0.959,0.045l-0.713,2.025v0.008c-0.039,0.098-0.063,0.168-0.076,0.219
					c-0.008,0.051-0.012,0.107-0.012,0.174c0,0.135,0.045,0.254,0.143,0.355v0.104c-0.186-0.026-0.338-0.051-0.461-0.063
					c-0.129-0.01-0.241-0.018-0.352-0.018c-0.123,0-0.254,0.008-0.389,0.018c-0.133,0.013-0.311,0.035-0.527,0.072L119.322,33
					c0.199-0.078,0.371-0.191,0.514-0.338c0.143-0.148,0.264-0.35,0.359-0.604l1.934-5.133c0.01-0.023,0.018-0.064,0.018-0.125
					c0-0.179-0.055-0.355-0.168-0.529c-0.112-0.174-0.26-0.332-0.44-0.474l-0.035-0.106c0.418,0.043,0.8,0.063,1.14,0.063h0.348
					l0.389,1.057L125.313,32.102z M123.289,29.77v-0.027l-0.715-2.061l-0.762,2.061v0.027c0.324,0.012,0.567,0.018,0.729,0.018
					S122.953,29.78,123.289,29.77z"/>
			</g>
			<g>
				<path fill="#FFFFFF" d="M66.609,13.633c0.121,0.02,0.199,0.028,0.238,0.028c0.111,0,0.291-0.009,0.547-0.028
					c0.223-0.021,0.391-0.035,0.51-0.037v0.111c-0.152,0.091-0.262,0.234-0.33,0.434c-0.068,0.2-0.113,0.425-0.129,0.67
					c-0.018,0.243-0.027,0.492-0.029,0.754c-0.002,0.257-0.006,0.589-0.006,0.987v1.131c0,0.236-0.002,0.576-0.008,1.02
					c-0.004,0.602-0.008,1.021-0.008,1.254c0,0.508,0.006,0.865,0.016,1.076l0.01,0.104c0.004,0.127,0.008,0.211,0.008,0.258
					c0,0.115-0.018,0.194-0.053,0.241c-0.031,0.048-0.098,0.07-0.193,0.07c-0.057,0-0.121-0.029-0.191-0.092
					c-0.072-0.056-0.131-0.126-0.184-0.2l-4.414-5.688v0.676v1.281c0,0.883,0.021,1.82,0.067,2.815
					c0.016,0.447,0.185,0.746,0.503,0.902v0.133c-0.26-0.024-0.477-0.042-0.645-0.051c-0.166-0.01-0.326-0.016-0.473-0.016
					c-0.089,0-0.176,0.006-0.254,0.012c-0.081,0.006-0.248,0.021-0.496,0.045v-0.131c0.149-0.084,0.266-0.192,0.35-0.334
					c0.086-0.138,0.131-0.311,0.138-0.515c0.01-0.626,0.016-1.577,0.016-2.841c0-0.205,0.004-0.524,0.008-0.961
					c0.007-0.451,0.011-0.791,0.011-1.018c0-0.439-0.009-0.762-0.019-0.97v-0.069c-0.016-0.207-0.063-0.395-0.137-0.559
					c-0.071-0.166-0.196-0.319-0.374-0.457l-0.042-0.135c0.027,0,0.067,0.004,0.119,0.011c0.254,0.03,0.452,0.051,0.593,0.062
					c0.137,0.008,0.281,0.017,0.43,0.024l4.43,5.839v-0.6v-1.178c0-0.484-0.004-0.975-0.016-1.476
					c-0.012-0.501-0.027-0.986-0.053-1.454v-0.009c-0.008-0.256-0.041-0.464-0.092-0.628c-0.051-0.166-0.166-0.314-0.352-0.448
					v-0.124C66.259,13.568,66.427,13.596,66.609,13.633z"/>
				<path fill="#FFFFFF" d="M74.888,15.169c-0.045-0.052-0.115-0.135-0.199-0.25c-0.098-0.129-0.182-0.241-0.258-0.328
					c-0.078-0.086-0.168-0.159-0.271-0.216c-0.197-0.105-0.402-0.185-0.611-0.237c-0.213-0.05-0.436-0.073-0.682-0.073
					c-0.428,0-0.813,0.08-1.158,0.24c-0.346,0.158-0.643,0.386-0.887,0.681c-0.244,0.295-0.432,0.644-0.559,1.046
					c-0.127,0.399-0.191,0.839-0.191,1.317c0,0.471,0.072,0.924,0.215,1.365c0.148,0.438,0.346,0.826,0.592,1.166
					c0.25,0.34,0.539,0.604,0.867,0.797c0.324,0.188,0.668,0.286,1.018,0.286c0.176,0,0.359-0.014,0.549-0.041
					c0.193-0.029,0.385-0.074,0.578-0.137c0.441-0.145,0.789-0.354,1.039-0.622c0.029-0.022,0.064-0.073,0.111-0.146
					c0.066-0.091,0.127-0.164,0.176-0.213c0.055-0.051,0.107-0.076,0.162-0.076c0.07,0,0.119,0.014,0.154,0.039
					c0.035,0.023,0.053,0.047,0.059,0.066c0,0.029-0.018,0.1-0.061,0.209c-0.045,0.111-0.104,0.249-0.176,0.411
					c-0.047,0.101-0.078,0.174-0.094,0.216c-0.057,0.15-0.186,0.275-0.389,0.376c-0.338,0.181-0.695,0.315-1.072,0.396
					c-0.381,0.08-0.793,0.123-1.24,0.123c-0.506,0-0.988-0.104-1.436-0.31c-0.455-0.209-0.85-0.497-1.191-0.868
					c-0.34-0.369-0.604-0.797-0.795-1.279c-0.191-0.481-0.287-0.987-0.287-1.516c0-0.531,0.094-1.045,0.279-1.539
					c0.184-0.493,0.447-0.93,0.789-1.313c0.338-0.381,0.746-0.68,1.225-0.897c0.471-0.218,0.99-0.326,1.555-0.326
					c0.207,0,0.438,0.018,0.695,0.054c0.256,0.033,0.516,0.079,0.785,0.136c0.014,0,0.07,0.013,0.178,0.037
					c0.203,0.051,0.346,0.076,0.428,0.076c0-0.014,0.016-0.025,0.057-0.038c0.037-0.013,0.088-0.018,0.154-0.018
					c0.102,0,0.17,0.038,0.197,0.12c0.029,0.083,0.043,0.203,0.043,0.357c0,0.089,0.006,0.24,0.025,0.451
					c0.01,0.159,0.016,0.275,0.016,0.35c0,0.051-0.016,0.1-0.047,0.143c-0.027,0.041-0.092,0.065-0.182,0.065
					C74.992,15.25,74.937,15.224,74.888,15.169z"/>
				<path fill="#FFFFFF" d="M81.992,13.854c0.463,0.208,0.855,0.497,1.172,0.861c0.318,0.367,0.559,0.791,0.725,1.271
					c0.164,0.48,0.246,0.994,0.246,1.545c0,0.563-0.092,1.092-0.287,1.586c-0.189,0.496-0.453,0.926-0.793,1.289
					c-0.344,0.365-0.738,0.646-1.191,0.845c-0.449,0.199-0.93,0.298-1.436,0.298c-0.504,0-0.986-0.104-1.434-0.313
					c-0.453-0.209-0.85-0.497-1.191-0.871c-0.34-0.374-0.605-0.803-0.797-1.291c-0.191-0.483-0.283-0.994-0.283-1.523
					c0-0.531,0.092-1.039,0.283-1.527c0.191-0.486,0.457-0.918,0.797-1.293c0.342-0.377,0.738-0.669,1.191-0.877
					c0.447-0.21,0.93-0.313,1.434-0.313C81.007,13.541,81.529,13.645,81.992,13.854z M79.435,14.328
					c-0.303,0.151-0.57,0.368-0.793,0.649c-0.223,0.281-0.396,0.619-0.52,1.015s-0.184,0.831-0.184,1.312s0.063,0.942,0.186,1.389
					c0.125,0.447,0.303,0.841,0.531,1.188c0.227,0.349,0.492,0.619,0.797,0.816c0.301,0.192,0.629,0.293,0.975,0.293
					c0.365,0,0.701-0.069,1.01-0.214c0.309-0.142,0.582-0.35,0.816-0.62c0.23-0.272,0.41-0.601,0.539-0.987
					c0.129-0.384,0.191-0.813,0.191-1.288c0-0.592-0.063-1.127-0.191-1.598c-0.129-0.469-0.309-0.867-0.539-1.193
					c-0.234-0.325-0.508-0.571-0.816-0.739c-0.309-0.166-0.645-0.25-1.01-0.25C80.07,14.102,79.738,14.176,79.435,14.328z"/>
				<path fill="#FFFFFF" d="M90.742,13.612c0.121,0.019,0.201,0.027,0.24,0.027c0.108,0,0.293-0.009,0.547-0.027
					c0.225-0.019,0.395-0.031,0.512-0.038v0.116c-0.156,0.086-0.268,0.231-0.33,0.434c-0.068,0.199-0.111,0.424-0.129,0.67
					c-0.018,0.244-0.029,0.494-0.031,0.754c-0.004,0.26-0.004,0.592-0.004,0.99v1.137c0,0.236-0.004,0.578-0.008,1.021
					c-0.006,0.603-0.01,1.024-0.01,1.261c0,0.508,0.008,0.864,0.018,1.078l0.008,0.103c0.008,0.129,0.01,0.217,0.01,0.258
					c0,0.114-0.018,0.196-0.051,0.244c-0.037,0.047-0.1,0.07-0.195,0.07c-0.059,0-0.123-0.027-0.192-0.09
					c-0.069-0.061-0.133-0.13-0.185-0.205l-4.416-5.703v0.677v1.287c0,0.886,0.025,1.823,0.072,2.823
					c0.016,0.447,0.182,0.748,0.498,0.904v0.135c-0.258-0.023-0.475-0.042-0.643-0.053c-0.166-0.008-0.326-0.012-0.475-0.012
					c-0.09,0-0.174,0.002-0.254,0.01c-0.08,0.004-0.244,0.021-0.494,0.047v-0.135c0.146-0.082,0.264-0.192,0.352-0.334
					c0.084-0.14,0.129-0.313,0.135-0.517c0.014-0.628,0.018-1.58,0.018-2.851c0-0.203,0.002-0.523,0.01-0.965
					c0.004-0.449,0.006-0.791,0.006-1.019c0-0.438-0.002-0.763-0.016-0.974v-0.066c-0.018-0.211-0.063-0.398-0.137-0.561
					c-0.074-0.169-0.199-0.32-0.375-0.461l-0.043-0.133c0.029,0,0.066,0.003,0.121,0.01c0.254,0.033,0.451,0.052,0.588,0.063
					c0.143,0.008,0.285,0.016,0.431,0.023l4.435,5.854v-0.6v-1.182c0-0.483-0.006-0.978-0.019-1.479
					c-0.014-0.502-0.028-0.988-0.051-1.459v-0.01c-0.012-0.254-0.041-0.465-0.096-0.627c-0.051-0.169-0.166-0.316-0.348-0.451
					v-0.123C90.395,13.549,90.563,13.574,90.742,13.612z"/>
				<path fill="#FFFFFF" d="M94.24,21.5c-0.172-0.038-0.377-0.1-0.621-0.182c-0.105-0.031-0.172-0.053-0.207-0.066
					c-0.15-0.05-0.254-0.125-0.299-0.225c-0.051-0.098-0.072-0.231-0.072-0.404c0-0.005-0.004-0.039-0.01-0.098
					c-0.016-0.086-0.029-0.189-0.043-0.309c-0.012-0.117-0.018-0.226-0.018-0.328c0-0.082,0.022-0.166,0.071-0.248
					c0.049-0.084,0.129-0.125,0.242-0.125c0.051,0,0.096,0.029,0.133,0.09c0.039,0.063,0.084,0.162,0.144,0.303
					c0.084,0.223,0.155,0.376,0.221,0.458c0.145,0.188,0.338,0.35,0.574,0.476c0.235,0.131,0.44,0.192,0.61,0.192
					c0.13,0,0.261-0.028,0.396-0.081c0.133-0.057,0.26-0.139,0.377-0.248c0.119-0.112,0.217-0.253,0.287-0.425
					c0.072-0.171,0.104-0.367,0.104-0.581c0-0.213-0.037-0.406-0.11-0.583c-0.072-0.177-0.172-0.341-0.302-0.49
					c-0.131-0.148-0.266-0.287-0.413-0.416c-0.148-0.129-0.337-0.279-0.57-0.457c-0.25-0.191-0.457-0.355-0.616-0.49
					c-0.158-0.139-0.308-0.291-0.445-0.463c-0.141-0.172-0.25-0.361-0.332-0.568c-0.084-0.203-0.123-0.432-0.123-0.671
					c0-0.243,0.039-0.479,0.117-0.716c0.08-0.236,0.203-0.451,0.365-0.646c0.157-0.198,0.364-0.357,0.614-0.479
					c0.25-0.122,0.541-0.181,0.871-0.181c0.147,0,0.354,0.029,0.621,0.085c0.219,0.053,0.37,0.077,0.465,0.077
					c0.004,0,0.016-0.007,0.028-0.019c0.05-0.025,0.095-0.047,0.152-0.062c0.053-0.017,0.129-0.024,0.225-0.024
					c0.08,0,0.136,0.016,0.164,0.048c0.031,0.032,0.048,0.061,0.048,0.087c0,0.157,0.018,0.391,0.047,0.694
					c0.018,0.28,0.03,0.49,0.03,0.631c0,0.037-0.019,0.082-0.051,0.134c-0.033,0.05-0.093,0.075-0.17,0.075
					c-0.084,0-0.158-0.044-0.222-0.129c-0.063-0.087-0.133-0.209-0.213-0.369c-0.078-0.151-0.137-0.246-0.17-0.283
					c-0.16-0.153-0.334-0.264-0.516-0.334c-0.186-0.071-0.365-0.105-0.543-0.105c-0.215,0-0.418,0.102-0.605,0.306
					c-0.187,0.202-0.281,0.442-0.281,0.715c0,0.335,0.109,0.632,0.33,0.891c0.217,0.259,0.553,0.569,1.01,0.931
					c0.256,0.203,0.465,0.381,0.635,0.529c0.168,0.148,0.328,0.318,0.48,0.51c0.154,0.191,0.274,0.4,0.367,0.623
					c0.09,0.229,0.139,0.471,0.143,0.73c0,0.287-0.047,0.563-0.143,0.834c-0.099,0.271-0.242,0.515-0.439,0.729
					c-0.197,0.217-0.441,0.391-0.744,0.521c-0.295,0.129-0.637,0.195-1.021,0.195C94.602,21.559,94.41,21.537,94.24,21.5z"/>
				<path fill="#FFFFFF" d="M104.295,20.452c0.084,0.25,0.189,0.448,0.309,0.604c0.123,0.153,0.273,0.274,0.459,0.361v0.15
					c-0.235-0.043-0.438-0.073-0.608-0.094c-0.177-0.02-0.336-0.029-0.483-0.029c-0.177,0-0.353,0.011-0.525,0.024
					c-0.178,0.015-0.389,0.046-0.639,0.093v-0.136c0-0.046,0.032-0.12,0.108-0.229c0.108-0.159,0.162-0.287,0.162-0.384
					c0-0.063-0.007-0.131-0.021-0.205c-0.017-0.073-0.027-0.123-0.039-0.147l-0.658-2.008c-0.354-0.031-0.674-0.049-0.951-0.049
					c-0.393,0-0.73,0.018-1.008,0.049l-0.748,2.182v0.009c-0.041,0.101-0.064,0.181-0.076,0.233
					c-0.012,0.056-0.016,0.116-0.016,0.187c0,0.146,0.049,0.274,0.147,0.383v0.115c-0.188-0.033-0.353-0.054-0.485-0.066
					c-0.13-0.014-0.255-0.02-0.363-0.02c-0.131,0-0.269,0.006-0.408,0.02c-0.145,0.014-0.328,0.038-0.555,0.074l0.11-0.151
					c0.211-0.082,0.39-0.204,0.539-0.362c0.149-0.16,0.277-0.377,0.379-0.649l2.029-5.526c0.014-0.024,0.019-0.07,0.019-0.135
					c0-0.19-0.058-0.378-0.175-0.568c-0.118-0.188-0.272-0.359-0.467-0.511l-0.035-0.115c0.438,0.046,0.838,0.066,1.195,0.066h0.366
					l0.406,1.14L104.295,20.452z M102.172,17.937V17.91l-0.75-2.217l-0.801,2.217v0.027c0.342,0.014,0.596,0.021,0.768,0.021
					C101.559,17.958,101.82,17.95,102.172,17.937z"/>
				<path fill="#FFFFFF" d="M107.947,13.584c0.354-0.024,0.611-0.038,0.777-0.038c0.202,0,0.436,0.036,0.696,0.112
					c0.267,0.073,0.479,0.166,0.647,0.283c0.308,0.21,0.533,0.478,0.689,0.799c0.156,0.321,0.234,0.649,0.234,0.983
					c0,0.354-0.094,0.705-0.275,1.051c-0.186,0.345-0.422,0.637-0.717,0.865c-0.215,0.174-0.459,0.289-0.727,0.338
					c-0.271,0.053-0.568,0.078-0.894,0.078c-0.104,0-0.213-0.01-0.334-0.023c-0.119-0.018-0.228-0.041-0.332-0.074
					c0,0.946,0.024,1.793,0.07,2.545c0.016,0.274,0.059,0.474,0.127,0.595c0.069,0.116,0.194,0.225,0.375,0.322v0.135
					c-0.263-0.024-0.476-0.046-0.642-0.055c-0.172-0.009-0.328-0.016-0.477-0.016c-0.342,0-0.719,0.023-1.141,0.068v-0.146
					c0.178-0.103,0.315-0.22,0.426-0.354c0.107-0.137,0.164-0.299,0.17-0.492c0.012-0.643,0.018-1.604,0.018-2.88
					c0-0.488-0.006-0.986-0.018-1.494c-0.01-0.508-0.027-1-0.051-1.477c-0.012-0.23-0.053-0.428-0.123-0.59
					c-0.068-0.166-0.207-0.305-0.404-0.42v-0.145c0.5,0.053,0.869,0.077,1.107,0.077C107.344,13.633,107.609,13.616,107.947,13.584z
					 M107.723,15.487c-0.004,0.255-0.006,0.576-0.006,0.967v1.129c0.086,0,0.211,0.02,0.375,0.057
					c0.127,0.033,0.211,0.051,0.256,0.051c0.203-0.008,0.404-0.055,0.604-0.146c0.194-0.09,0.368-0.223,0.524-0.405
					c0.117-0.147,0.203-0.35,0.256-0.611c0.056-0.259,0.082-0.55,0.082-0.872c0-0.256-0.057-0.505-0.166-0.749
					c-0.108-0.245-0.248-0.432-0.414-0.561c-0.145-0.109-0.299-0.184-0.459-0.226c-0.162-0.042-0.334-0.063-0.52-0.063
					c-0.086,0-0.229,0.012-0.426,0.038h-0.027c-0.027,0.077-0.041,0.218-0.041,0.424c0,0.103-0.002,0.18-0.008,0.229
					C107.736,14.987,107.727,15.232,107.723,15.487z"/>
				<path fill="#FFFFFF" d="M112.984,21.464c-0.154,0.013-0.361,0.036-0.625,0.065c-0.029,0-0.076,0.004-0.137,0.012v-0.21
					c0.067-0.046,0.139-0.108,0.211-0.187c0.069-0.082,0.137-0.174,0.198-0.281c0.136-0.234,0.207-0.452,0.214-0.648
					c0.01-0.484,0.018-0.886,0.018-1.199c0-0.315,0-0.763,0-1.343c0-0.482-0.008-0.975-0.018-1.48
					c-0.013-0.503-0.029-0.988-0.054-1.461c-0.006-0.209-0.067-0.401-0.168-0.577c-0.104-0.175-0.265-0.323-0.479-0.442
					l-0.025-0.163l0.141,0.011c0.326,0.037,0.604,0.065,0.826,0.084c0.221,0.021,0.389,0.031,0.508,0.031
					c0.09,0,0.213-0.004,0.371-0.01c0.156-0.007,0.346-0.019,0.566-0.03c0.109-0.005,0.191-0.015,0.248-0.02
					c0.42-0.031,0.719-0.047,0.896-0.047c0.121,0,0.238,0.002,0.33,0.006c0.097,0.003,0.195,0.013,0.302,0.025
					c0.1,0.017,0.186,0.044,0.254,0.078c0.065,0.036,0.102,0.08,0.102,0.138c0,0.161,0.014,0.337,0.043,0.536
					c0.016,0.146,0.025,0.262,0.025,0.344c0,0.019-0.019,0.044-0.056,0.075c-0.038,0.033-0.09,0.049-0.159,0.049
					c-0.082,0-0.144-0.02-0.183-0.057c-0.037-0.04-0.067-0.094-0.097-0.163c-0.016-0.03-0.028-0.052-0.036-0.059
					c-0.089-0.152-0.229-0.271-0.414-0.353c-0.188-0.082-0.481-0.124-0.882-0.124c-0.116,0-0.321,0.014-0.612,0.039l-0.271,0.027
					c-0.017,0.07-0.027,0.206-0.033,0.41c-0.004,0.083-0.012,0.157-0.016,0.222c-0.027,0.354-0.035,0.922-0.035,1.697v0.679
					c0.408,0.013,0.707,0.021,0.893,0.021c0.172,0,0.299-0.004,0.383-0.012c0.182-0.004,0.336-0.043,0.459-0.107
					c0.121-0.068,0.246-0.215,0.377-0.435h0.357c-0.004,0.089-0.012,0.186-0.025,0.296c-0.021,0.209-0.033,0.393-0.033,0.551
					c0,0.172,0,0.293,0,0.357c0,0.068,0.004,0.205,0.016,0.41h-0.364c-0.084-0.188-0.201-0.313-0.342-0.385
					c-0.142-0.068-0.313-0.113-0.513-0.133c-0.254-0.023-0.658-0.037-1.207-0.037c0,0.445,0.004,0.847,0.019,1.207
					c0.01,0.359,0.028,0.803,0.051,1.332c0.004,0.16,0.05,0.291,0.132,0.395c0.084,0.106,0.186,0.188,0.313,0.245
					c0.127,0.056,0.264,0.095,0.403,0.114s0.295,0.029,0.461,0.029c0.246,0,0.445-0.019,0.604-0.057
					c0.16-0.041,0.317-0.131,0.472-0.27c0.086-0.076,0.2-0.217,0.356-0.419c0.112-0.149,0.203-0.257,0.271-0.326
					c0.073-0.069,0.137-0.104,0.209-0.104c0.065,0,0.125,0.018,0.168,0.053c0.047,0.035,0.067,0.062,0.067,0.082
					c0,0.076-0.057,0.231-0.176,0.468c-0.144,0.272-0.229,0.481-0.271,0.631l-0.006,0.019c-0.027,0.121-0.082,0.218-0.162,0.287
					c-0.078,0.069-0.244,0.105-0.492,0.105h-1.27c-0.354,0-0.668-0.005-0.939-0.01c-0.369,0-0.621,0-0.76,0
					C113.279,21.445,113.143,21.451,112.984,21.464z"/>
				<path fill="#FFFFFF" d="M119.473,16.542c-0.166-0.412-0.359-0.897-0.578-1.451l-0.146-0.351l-0.022-0.056
					c-0.095-0.248-0.188-0.443-0.287-0.591c-0.103-0.148-0.263-0.286-0.482-0.412l-0.025-0.133l0.246,0.028
					c0.406,0.038,0.688,0.058,0.846,0.058c0.199,0,0.541-0.015,1.021-0.048l0.059,0.123c-0.123,0.089-0.188,0.253-0.188,0.493
					c0,0.206,0.029,0.396,0.084,0.567c0.141,0.402,0.297,0.859,0.486,1.369c0.186,0.512,0.361,1.004,0.531,1.477
					c0.146,0.422,0.385,1.057,0.713,1.9l0.035,0.073c0.186-0.508,0.389-1.069,0.614-1.682c0.113-0.328,0.24-0.701,0.384-1.12
					c0.135-0.421,0.299-0.927,0.485-1.517c0.045-0.141,0.094-0.295,0.146-0.464c0.078-0.214,0.119-0.413,0.119-0.599
					c0-0.138-0.029-0.247-0.084-0.33c-0.06-0.081-0.166-0.141-0.324-0.18l0.057-0.151c0.441,0.049,0.775,0.076,1.01,0.076
					c0.109,0,0.301-0.01,0.568-0.028c0.229-0.02,0.41-0.033,0.541-0.037l-0.053,0.122c-0.189,0.091-0.353,0.226-0.488,0.415
					c-0.137,0.192-0.268,0.421-0.391,0.693c-0.129,0.314-0.259,0.646-0.392,0.996c-0.131,0.351-0.283,0.775-0.465,1.281
					c-0.089,0.266-0.156,0.457-0.203,0.576c-0.074,0.203-0.192,0.521-0.363,0.958c-0.184,0.459-0.354,0.903-0.518,1.338
					c-0.16,0.432-0.341,0.924-0.543,1.479c-0.013,0.023-0.037,0.056-0.082,0.086c-0.048,0.029-0.104,0.046-0.173,0.046
					c-0.067,0-0.129-0.019-0.18-0.055c-0.049-0.039-0.084-0.077-0.102-0.115c-0.088-0.265-0.205-0.575-0.34-0.933
					c-0.137-0.355-0.326-0.834-0.561-1.432c-0.136-0.324-0.234-0.576-0.31-0.766c-0.076-0.19-0.146-0.375-0.216-0.549
					C119.785,17.341,119.637,16.955,119.473,16.542z"/>
				<path fill="#FFFFFF" d="M130.938,13.854c0.463,0.208,0.854,0.497,1.172,0.861c0.318,0.367,0.56,0.791,0.726,1.271
					c0.162,0.48,0.246,0.994,0.246,1.545c0,0.563-0.099,1.092-0.285,1.586c-0.188,0.496-0.457,0.926-0.795,1.289
					c-0.342,0.365-0.739,0.646-1.19,0.845s-0.933,0.298-1.438,0.298c-0.504,0-0.985-0.104-1.435-0.313
					c-0.453-0.209-0.846-0.497-1.19-0.871c-0.34-0.374-0.604-0.803-0.795-1.291c-0.188-0.483-0.285-0.994-0.285-1.523
					c0-0.531,0.097-1.039,0.285-1.527c0.188-0.486,0.455-0.918,0.795-1.293c0.346-0.377,0.737-0.669,1.19-0.877
					c0.447-0.21,0.931-0.313,1.435-0.313C129.953,13.541,130.473,13.645,130.938,13.854z M128.379,14.328
					c-0.303,0.151-0.568,0.368-0.791,0.649c-0.227,0.281-0.398,0.619-0.52,1.015c-0.123,0.396-0.182,0.831-0.182,1.312
					s0.059,0.942,0.186,1.389c0.125,0.447,0.301,0.841,0.525,1.188c0.229,0.349,0.495,0.619,0.801,0.816
					c0.303,0.192,0.629,0.293,0.973,0.293c0.363,0,0.703-0.069,1.01-0.214c0.313-0.142,0.582-0.35,0.816-0.62
					c0.232-0.272,0.412-0.601,0.543-0.987c0.125-0.384,0.189-0.813,0.189-1.288c0-0.592-0.064-1.127-0.189-1.598
					c-0.131-0.469-0.311-0.867-0.543-1.193c-0.234-0.325-0.504-0.571-0.816-0.739c-0.307-0.166-0.646-0.25-1.01-0.25
					C129.018,14.102,128.686,14.176,128.379,14.328z"/>
				<path fill="#FFFFFF" d="M134.23,21.537l-0.01-0.162c0.069-0.037,0.139-0.1,0.204-0.182c0.07-0.082,0.132-0.182,0.191-0.299
					c0.059-0.112,0.106-0.23,0.146-0.353c0.035-0.122,0.057-0.229,0.057-0.327c0.011-0.484,0.015-0.885,0.015-1.201
					c0-0.314,0-0.764,0-1.346c0-0.484-0.004-0.979-0.015-1.484c-0.014-0.503-0.03-0.991-0.055-1.466
					c-0.012-0.233-0.051-0.439-0.113-0.615c-0.065-0.176-0.192-0.332-0.379-0.474v-0.115c0.267,0.025,0.478,0.045,0.633,0.058
					c0.152,0.012,0.3,0.02,0.441,0.02c0.113,0,0.299-0.011,0.553-0.031c0.226-0.02,0.392-0.031,0.504-0.037v0.114
					c-0.153,0.093-0.266,0.237-0.334,0.437c-0.065,0.201-0.11,0.426-0.127,0.675c-0.016,0.242-0.024,0.494-0.026,0.756
					c-0.006,0.264-0.008,0.594-0.008,0.996v1.139c0,0.455,0.008,0.863,0.02,1.222c0.011,0.359,0.027,0.81,0.05,1.347
					c0.021,0.315,0.114,0.536,0.293,0.655c0.182,0.115,0.43,0.178,0.739,0.178c0.209,0,0.425-0.035,0.64-0.105
					c0.213-0.071,0.401-0.179,0.572-0.326c0.096-0.084,0.217-0.248,0.356-0.496c0.086-0.148,0.155-0.258,0.219-0.332
					c0.058-0.072,0.123-0.109,0.197-0.109c0.094,0,0.149,0.02,0.18,0.059c0.029,0.039,0.041,0.076,0.041,0.113
					c0,0.051-0.012,0.117-0.034,0.201c-0.027,0.083-0.07,0.203-0.134,0.354c-0.112,0.287-0.188,0.502-0.226,0.645
					c-0.02,0.096-0.069,0.188-0.146,0.275c-0.075,0.09-0.188,0.14-0.336,0.146c-0.022,0-0.133,0.007-0.332,0.021
					c-0.342,0.024-0.598,0.037-0.769,0.037c-0.2,0-0.37-0.004-0.516-0.01s-0.332-0.018-0.551-0.027
					c-0.342-0.021-0.609-0.03-0.809-0.03C135.16,21.451,134.781,21.482,134.23,21.537z"/>
				<path fill="#FFFFFF" d="M140.871,21.464c-0.156,0.013-0.367,0.036-0.623,0.065c-0.029,0-0.076,0.004-0.139,0.012v-0.21
					c0.065-0.046,0.139-0.108,0.209-0.187c0.07-0.082,0.137-0.174,0.199-0.283c0.137-0.232,0.207-0.45,0.213-0.648
					c0.012-0.482,0.018-0.884,0.018-1.197c0-0.315,0-0.763,0-1.343c0-0.486-0.006-0.979-0.018-1.482
					c-0.01-0.502-0.029-0.988-0.051-1.463c-0.013-0.208-0.066-0.399-0.173-0.576c-0.1-0.174-0.258-0.322-0.478-0.444l-0.022-0.161
					l0.134,0.01c0.33,0.038,0.606,0.064,0.827,0.084c0.222,0.02,0.394,0.031,0.515,0.031c0.088,0,0.213-0.005,0.369-0.012
					c0.155-0.005,0.346-0.016,0.567-0.028c0.104-0.008,0.188-0.013,0.242-0.019c0.426-0.031,0.721-0.049,0.896-0.049
					c0.127,0,0.236,0,0.336,0.007c0.094,0.002,0.195,0.011,0.297,0.026c0.103,0.015,0.188,0.043,0.252,0.079
					c0.072,0.034,0.105,0.081,0.105,0.138c0,0.158,0.012,0.336,0.041,0.534c0.02,0.146,0.027,0.261,0.027,0.343
					c0,0.02-0.018,0.047-0.057,0.076c-0.037,0.033-0.088,0.049-0.16,0.049c-0.084,0-0.144-0.019-0.181-0.057
					c-0.036-0.04-0.071-0.094-0.1-0.162c-0.015-0.031-0.027-0.051-0.031-0.058c-0.092-0.155-0.231-0.27-0.42-0.354
					c-0.188-0.082-0.479-0.123-0.879-0.123c-0.117,0-0.322,0.012-0.611,0.034l-0.272,0.031c-0.016,0.069-0.025,0.207-0.033,0.411
					c-0.006,0.082-0.01,0.156-0.016,0.22c-0.021,0.354-0.039,0.923-0.039,1.699v0.68c0.412,0.012,0.709,0.018,0.899,0.018
					c0.166,0,0.295-0.002,0.382-0.01c0.182-0.007,0.336-0.041,0.457-0.111c0.125-0.064,0.252-0.209,0.379-0.434h0.356
					c-0.009,0.09-0.017,0.19-0.022,0.299c-0.025,0.209-0.037,0.395-0.037,0.553c0,0.172,0,0.293,0,0.357
					c0,0.066,0.008,0.203,0.02,0.406h-0.367c-0.086-0.184-0.199-0.313-0.342-0.383c-0.139-0.068-0.311-0.113-0.51-0.131
					c-0.258-0.027-0.66-0.041-1.215-0.041c0,0.449,0.008,0.851,0.02,1.211c0.012,0.357,0.029,0.801,0.053,1.332
					c0.004,0.16,0.051,0.291,0.133,0.395c0.08,0.106,0.187,0.188,0.314,0.245c0.127,0.056,0.262,0.095,0.404,0.114
					c0.141,0.02,0.295,0.027,0.461,0.027c0.244,0,0.445-0.019,0.605-0.055c0.157-0.041,0.313-0.131,0.469-0.27
					c0.082-0.076,0.201-0.217,0.356-0.421c0.113-0.147,0.205-0.255,0.272-0.324c0.068-0.069,0.136-0.104,0.205-0.104
					c0.064,0,0.123,0.018,0.17,0.053c0.043,0.035,0.066,0.062,0.066,0.08c0,0.074-0.061,0.233-0.178,0.47
					c-0.139,0.272-0.23,0.481-0.264,0.631l-0.01,0.017c-0.029,0.123-0.082,0.22-0.162,0.289s-0.246,0.105-0.494,0.105h-1.271
					c-0.35,0-0.664-0.005-0.938-0.01c-0.367,0-0.619,0-0.76,0C141.162,21.445,141.025,21.451,140.871,21.464z"/>
				<path fill="#FFFFFF" d="M148.734,21.51c-0.313,0.014-0.592,0.022-0.844,0.023c-0.254,0.004-0.656,0.007-1.218,0.007
					c0,0-0.014,0-0.021,0c-0.032,0.007-0.061,0.01-0.086,0.01c-0.063,0-0.114-0.013-0.157-0.034
					c-0.043-0.022-0.062-0.065-0.062-0.13c0-0.011,0.033-0.067,0.104-0.168c0.073-0.099,0.26-0.354,0.56-0.771
					c0.399-0.543,0.709-0.969,0.938-1.277c0.223-0.311,0.502-0.696,0.836-1.154c0.332-0.461,0.734-1.006,1.189-1.639
					c0.457-0.633,0.989-1.375,1.604-2.231c-0.168-0.014-0.336-0.021-0.513-0.021c-0.17,0-0.385,0-0.637,0h-0.537
					c-0.59,0-1.072,0.027-1.442,0.083c-0.367,0.054-0.646,0.136-0.843,0.243c-0.08,0.051-0.141,0.108-0.182,0.172
					c-0.045,0.063-0.082,0.144-0.119,0.24c-0.031,0.089-0.065,0.153-0.094,0.191c-0.033,0.037-0.08,0.057-0.145,0.057
					c-0.07,0-0.131-0.027-0.174-0.09c-0.039-0.063-0.064-0.108-0.064-0.14c0-0.089,0.016-0.229,0.043-0.422
					c0.035-0.254,0.053-0.46,0.053-0.612c0-0.096,0.039-0.169,0.111-0.222c0.072-0.051,0.213-0.076,0.424-0.076
					c0.164,0,0.33,0.001,0.492,0.005c0.162,0.003,0.496,0.01,1,0.023c0.324,0.007,0.576,0.013,0.752,0.017
					c0.176,0.002,0.324,0.003,0.439,0.003c0.168,0,0.662,0.001,1.485,0.012c0.92,0.012,1.392,0.017,1.414,0.017
					c0.08,0,0.144,0.019,0.188,0.05c0.045,0.031,0.067,0.063,0.067,0.097c0,0.012-0.012,0.041-0.034,0.085l-0.007,0.019
					l-5.073,6.896l-0.006,0.021c-0.007,0.013-0.009,0.032-0.009,0.06c0,0.049,0.041,0.084,0.129,0.104
					c0.091,0.02,0.25,0.029,0.482,0.029c0.094,0,0.286-0.006,0.569-0.01l0.232-0.01c0.033,0,0.078-0.003,0.133-0.011
					c0.242-0.006,0.48-0.019,0.725-0.033c0.246-0.016,0.511-0.041,0.791-0.075c0.281-0.037,0.543-0.088,0.791-0.154
					c0.248-0.068,0.433-0.146,0.562-0.245c0.097-0.069,0.213-0.183,0.349-0.334c0.086-0.099,0.155-0.165,0.205-0.206
					c0.051-0.042,0.106-0.063,0.17-0.063c0.071,0,0.129,0.02,0.178,0.052c0.039,0.035,0.061,0.063,0.061,0.082
					c0,0.07-0.061,0.213-0.186,0.424c-0.08,0.125-0.146,0.24-0.195,0.334c-0.045,0.096-0.082,0.195-0.104,0.3
					c-0.013,0.043-0.029,0.093-0.056,0.146c-0.026,0.055-0.067,0.11-0.123,0.166c-0.059,0.06-0.133,0.107-0.229,0.146
					c-0.094,0.038-0.207,0.059-0.338,0.059c-0.102,0-0.547-0.01-1.338-0.028c-0.131-0.006-0.362-0.013-0.699-0.02
					c-0.332-0.007-0.553-0.011-0.661-0.011C149.354,21.499,149.059,21.504,148.734,21.51z"/>
				<path fill="#FFFFFF" d="M156.893,21.502c-0.313,0.014-0.598,0.02-0.846,0.021c-0.25,0.006-0.654,0.006-1.219,0.006
					c-0.006,0-0.01,0-0.01,0c-0.039,0.008-0.066,0.011-0.092,0.011c-0.063,0-0.113-0.011-0.156-0.033s-0.063-0.065-0.063-0.13
					c0-0.013,0.033-0.066,0.104-0.167c0.07-0.099,0.257-0.354,0.56-0.771c0.396-0.545,0.705-0.971,0.933-1.278
					c0.225-0.312,0.502-0.695,0.84-1.154c0.332-0.461,0.731-1.004,1.186-1.635c0.459-0.633,0.996-1.375,1.611-2.231
					c-0.174-0.013-0.344-0.018-0.512-0.018c-0.174,0-0.385,0-0.642,0h-0.537c-0.592,0-1.073,0.026-1.44,0.08
					c-0.369,0.053-0.65,0.135-0.844,0.243c-0.08,0.052-0.144,0.109-0.183,0.173c-0.045,0.064-0.084,0.146-0.117,0.24
					c-0.032,0.089-0.067,0.151-0.096,0.189c-0.033,0.041-0.078,0.058-0.144,0.058c-0.074,0-0.133-0.027-0.172-0.091
					c-0.045-0.06-0.065-0.107-0.065-0.14c0-0.089,0.014-0.229,0.043-0.421c0.032-0.254,0.049-0.458,0.049-0.612
					c0-0.094,0.039-0.167,0.112-0.22c0.074-0.051,0.216-0.076,0.427-0.076c0.164,0,0.33,0.002,0.491,0.003
					c0.16,0.006,0.492,0.013,0.996,0.027c0.326,0.005,0.578,0.01,0.757,0.013c0.174,0.004,0.319,0.006,0.438,0.006
					c0.166,0,0.66,0.002,1.484,0.008c0.918,0.013,1.395,0.02,1.414,0.02c0.08,0,0.143,0.017,0.189,0.05
					c0.045,0.031,0.063,0.063,0.063,0.094c0,0.013-0.011,0.042-0.029,0.087l-0.012,0.017l-5.07,6.896l-0.008,0.018
					c-0.006,0.013-0.01,0.031-0.01,0.059c0,0.049,0.045,0.086,0.135,0.104c0.086,0.02,0.248,0.028,0.479,0.028
					c0.097,0,0.287-0.004,0.568-0.01l0.234-0.011c0.033,0,0.078-0.002,0.133-0.009c0.24-0.008,0.48-0.016,0.725-0.035
					c0.246-0.016,0.506-0.041,0.791-0.074c0.279-0.036,0.543-0.088,0.787-0.154c0.248-0.067,0.436-0.147,0.561-0.242
					c0.101-0.071,0.216-0.184,0.353-0.338c0.084-0.096,0.154-0.162,0.205-0.205c0.052-0.041,0.104-0.063,0.168-0.063
					c0.076,0,0.134,0.018,0.177,0.055c0.041,0.033,0.061,0.061,0.061,0.08c0,0.07-0.057,0.209-0.184,0.422
					c-0.08,0.127-0.146,0.238-0.189,0.336c-0.051,0.095-0.086,0.194-0.109,0.295c-0.01,0.045-0.031,0.097-0.057,0.148
					c-0.023,0.057-0.063,0.111-0.119,0.168c-0.059,0.059-0.133,0.104-0.227,0.145c-0.094,0.037-0.207,0.058-0.34,0.058
					c-0.104,0-0.55-0.011-1.336-0.03c-0.134-0.006-0.367-0.011-0.699-0.019c-0.338-0.007-0.558-0.009-0.664-0.009
					C157.51,21.486,157.215,21.495,156.893,21.502z"/>
				<path fill="#FFFFFF" d="M168.906,20.441c0.084,0.248,0.189,0.447,0.313,0.603c0.121,0.151,0.271,0.272,0.453,0.358v0.154
					c-0.232-0.045-0.434-0.074-0.607-0.096c-0.172-0.021-0.336-0.029-0.483-0.029c-0.174,0-0.353,0.01-0.526,0.026
					c-0.177,0.015-0.388,0.045-0.642,0.088v-0.133c0-0.045,0.039-0.119,0.11-0.228c0.109-0.158,0.162-0.287,0.162-0.383
					c0-0.063-0.006-0.132-0.018-0.205c-0.018-0.074-0.029-0.123-0.039-0.146l-0.658-2.002c-0.354-0.033-0.678-0.049-0.953-0.049
					c-0.395,0-0.729,0.016-1.008,0.049l-0.748,2.173v0.009c-0.041,0.102-0.063,0.182-0.078,0.233
					c-0.01,0.057-0.018,0.116-0.018,0.187c0,0.146,0.053,0.274,0.154,0.381v0.114c-0.193-0.03-0.357-0.055-0.486-0.063
					c-0.131-0.016-0.254-0.021-0.369-0.021c-0.129,0-0.262,0.006-0.406,0.021c-0.143,0.01-0.324,0.037-0.555,0.074l0.113-0.154
					c0.209-0.082,0.389-0.2,0.537-0.358c0.15-0.161,0.277-0.377,0.383-0.649l2.025-5.506c0.012-0.025,0.018-0.069,0.018-0.135
					c0-0.189-0.057-0.378-0.172-0.566c-0.119-0.188-0.275-0.357-0.467-0.509l-0.035-0.115c0.438,0.046,0.84,0.067,1.193,0.067h0.364
					l0.412,1.135L168.906,20.441z M166.783,17.935v-0.027l-0.748-2.211l-0.805,2.211v0.027c0.342,0.016,0.6,0.02,0.77,0.02
					C166.172,17.954,166.432,17.95,166.783,17.935z"/>
				<path fill="#FFFFFF" d="M58.027,21.509c-0.154,0.007-0.354,0.024-0.595,0.054v-0.136c0.155-0.089,0.274-0.204,0.362-0.341
					c0.084-0.141,0.129-0.313,0.134-0.516c0.013-0.641,0.017-1.6,0.017-2.872c0-0.488-0.004-0.982-0.017-1.49
					c-0.011-0.506-0.028-0.998-0.05-1.469c-0.013-0.239-0.049-0.445-0.109-0.619c-0.064-0.179-0.191-0.336-0.378-0.477v-0.116
					c0.261,0.026,0.469,0.045,0.62,0.057c0.156,0.014,0.304,0.02,0.445,0.02c0.106,0,0.288-0.008,0.547-0.026
					c0.221-0.021,0.395-0.034,0.518-0.041v0.116c-0.158,0.089-0.271,0.235-0.339,0.438c-0.069,0.2-0.11,0.428-0.128,0.677
					c-0.018,0.242-0.027,0.498-0.031,0.76c-0.003,0.264-0.005,0.596-0.005,0.998v1.145c0,0.886,0.023,1.831,0.069,2.845
					c0.017,0.437,0.184,0.738,0.503,0.914v0.135c-0.267-0.028-0.479-0.047-0.646-0.054c-0.159-0.01-0.317-0.017-0.471-0.017
					C58.332,21.492,58.184,21.499,58.027,21.509z"/>
			</g>
		</g>
	</g>
	<g>
		<g>
			<path fill="#FFFFFF" d="M9.434,2.904c-0.35-0.39-0.857-0.641-1.426-0.641H3.241c-1.056,0-1.912,0.857-1.912,1.913v27.36
				c0,1.039,0.833,1.885,1.868,1.912c0.016,0,3.9,0,3.914,0c1.038-0.027,1.871-0.873,1.871-1.912v-12.55
				c0-1.055,0.855-1.912,1.913-1.912c0.616,0,1.162,0.295,1.513,0.748l6.855,9.646v-10.63C19.263,16.838,9.533,3.018,9.434,2.904z"
				/>
			<path fill="#FFFFFF" d="M40.45,32.805c0.351,0.395,0.858,0.645,1.424,0.645h4.766c1.055,0,1.911-0.859,1.911-1.912V4.175
				c0-1.042-0.832-1.886-1.867-1.911c-0.014,0-3.9,0-3.914,0c-1.035,0.025-1.871,0.869-1.871,1.911v12.546
				c0,1.057-0.857,1.915-1.913,1.915c-0.616,0-1.164-0.296-1.512-0.748l-6.856-9.643v10.628
				C30.619,18.873,40.347,32.691,40.45,32.805z"/>
			<path fill="#FFFFFF" d="M21.888,4.177c0-0.379,0.13-0.745,0.369-1.04l0.007-0.007c0.035-0.041,0.068-0.078,0.102-0.11
				c0.004-0.005,0.008-0.01,0.014-0.017c0.03-0.029,0.066-0.063,0.1-0.089l0.026-0.021c0.033-0.025,0.065-0.051,0.098-0.075
				l0.037-0.021c0.033-0.021,0.063-0.041,0.098-0.06c0.007-0.005,0.016-0.007,0.02-0.012l0.028-0.013
				c0.034-0.016,0.065-0.033,0.092-0.045c0.01-0.004,0.021-0.007,0.029-0.012l0.027-0.011c0.036-0.014,0.063-0.023,0.095-0.034
				c0.009-0.003,0.023-0.006,0.036-0.008l0.026-0.007c0.036-0.013,0.064-0.021,0.094-0.027c0.012,0,0.025-0.005,0.04-0.005
				l0.026-0.003c0.035-0.007,0.064-0.013,0.094-0.018c0.014,0,0.029,0,0.045,0l0.062-0.009c0.012,0,0.026-0.001,0.038-0.001
				c0,0,3.874,0,3.909,0c0.878,0.021,1.035-0.246,0-0.271c-0.012,0-3.438,0-3.87,0l0,0h-0.003c-0.027,0-0.042,0-0.042,0
				c-0.029,0.002-0.059,0.004-0.089,0.007c-0.028,0-0.054,0.004-0.081,0.006c-0.036,0.005-0.075,0.01-0.109,0.018
				c-0.025,0.004-0.051,0.007-0.078,0.011c-0.036,0.007-0.073,0.021-0.109,0.029c-0.023,0.008-0.047,0.013-0.073,0.021
				c-0.035,0.011-0.072,0.025-0.109,0.042c-0.02,0.005-0.042,0.014-0.064,0.022c-0.036,0.017-0.073,0.035-0.11,0.053
				c-0.021,0.01-0.037,0.02-0.055,0.028c-0.039,0.021-0.076,0.045-0.11,0.068c-0.014,0.009-0.031,0.017-0.046,0.027
				c-0.041,0.027-0.077,0.057-0.114,0.085c-0.013,0.011-0.021,0.018-0.029,0.024c-0.043,0.032-0.078,0.067-0.117,0.106
				c-0.003,0.003-0.014,0.009-0.019,0.016c-0.041,0.041-0.08,0.082-0.117,0.128l-0.005,0.003c-0.274,0.336-0.437,0.756-0.437,1.217
				v0.002l0,0v1.935l0.273,0.386L21.888,4.177L21.888,4.177z"/>
			<path fill="#FFFFFF" d="M28.626,32.57c0,0-0.079,0.088-0.109,0.121c-0.005,0.002-0.011,0.008-0.018,0.014
				c-0.031,0.035-0.064,0.063-0.1,0.094l-0.026,0.02c-0.031,0.025-0.064,0.052-0.098,0.072l-0.037,0.025
				c-0.032,0.02-0.065,0.039-0.095,0.059c-0.007,0.004-0.015,0.004-0.021,0.01l-0.027,0.011c-0.034,0.021-0.063,0.034-0.095,0.047
				c-0.008,0.002-0.019,0.008-0.028,0.015l-0.026,0.01c-0.037,0.012-0.064,0.022-0.093,0.033c-0.012,0.004-0.022,0.008-0.035,0.01
				l-0.028,0.008c-0.037,0.008-0.064,0.018-0.093,0.021c-0.014,0.006-0.028,0.006-0.041,0.008l-0.026,0.006
				c-0.036,0.004-0.066,0.012-0.093,0.018c-0.017,0-0.031,0-0.044,0l-0.063,0.004c-0.013,0-0.025,0.004-0.039,0.004
				c0,0-1.092,0-1.935,0c-0.967,0-1.938,0-1.971,0c-0.882-0.021-1.598-0.756-1.598-1.639V20.43l-0.273-0.384v11.493
				c0,1.039,0.832,1.885,1.867,1.912c0.017,0,3.441,0,3.871,0l0,0h0.005c0.026,0,0.04,0,0.04,0c0.029,0,0.06-0.01,0.089-0.01
				c0.024,0,0.053-0.004,0.079-0.008c0.039-0.004,0.074-0.011,0.112-0.013c0.024-0.008,0.051-0.01,0.078-0.014
				c0.038-0.011,0.072-0.021,0.109-0.031c0.022-0.006,0.048-0.015,0.07-0.021c0.038-0.012,0.076-0.024,0.108-0.039
				c0.022-0.008,0.045-0.016,0.066-0.024c0.037-0.015,0.073-0.033,0.11-0.053c0.016-0.011,0.037-0.019,0.053-0.027
				c0.039-0.021,0.076-0.043,0.114-0.067c0.013-0.011,0.028-0.015,0.044-0.027c0.037-0.025,0.075-0.057,0.112-0.086
				c0.01-0.006,0.02-0.014,0.031-0.023c0.042-0.031,0.129-0.117,0.135-0.121c0.042-0.041,0.079-0.086,0.116-0.129
				c0-0.002,0.004-0.004,0.008-0.004C29.104,32.419,28.862,32.279,28.626,32.57z"/>
			<path fill="#FFFFFF" d="M38.705,31.898L18.2,3.074c-0.345-0.492-0.917-0.811-1.562-0.811h-4.804
				c-0.522,0-0.949,0.428-0.949,0.951c0,0.203,0.065,0.39,0.173,0.544l20.47,28.795c0.345,0.498,0.923,0.82,1.571,0.82h4.818
				c0.525,0,0.95-0.426,0.95-0.951C38.867,32.229,38.806,32.049,38.705,31.898z"/>
		</g>
	</g>
</g>
</svg>
