<?xml version="1.0" encoding="utf-8"?>
<!-- Generator: Adobe Illustrator 16.0.3, SVG Export Plug-In . SVG Version: 6.00 Build 0)  -->
<!DOCTYPE svg PUBLIC "-//W3C//DTD SVG 1.1//EN" "http://www.w3.org/Graphics/SVG/1.1/DTD/svg11.dtd">
<svg version="1.1" id="Livello_1" xmlns="http://www.w3.org/2000/svg" xmlns:xlink="http://www.w3.org/1999/xlink" x="0px" y="0px"
	 width="250px" height="64.814px" viewBox="0 0 250 64.814" enable-background="new 0 0 250 64.814" xml:space="preserve">
<g>
	<path fill="#FFFFFF" d="M48.547,54.287c0,0-7.952,0-7.999,0c-1.198-0.027-2.181-1.029-2.181-2.233V36.945l-0.365-0.527v15.636
		c0,1.419,1.133,2.569,2.546,2.603h7.999V54.287z"/>
	<path fill="#FFFFFF" d="M44.203,12.597c0,0-3.608,0-3.655,0.004c-1.198,0.026-2.181,1.029-2.181,2.23v4.091l-0.365-0.521v-3.57
		c0-1.419,1.133-2.572,2.546-2.601c0,0,2.821,0,3.408,0L44.203,12.597z"/>
	<g>
		<path opacity="0.9" fill="#FFFFFF" d="M21.434,13.102c-0.478-0.53-1.168-0.871-1.94-0.871h-6.481
			c-1.438,0-2.603,1.166-2.603,2.605v37.218c0,1.419,1.132,2.569,2.541,2.603c0.021,0,5.307,0,5.327,0
			c1.41-0.033,2.543-1.184,2.543-2.603V34.984c0-1.438,1.165-2.604,2.602-2.604c0.839,0,1.584,0.4,2.06,1.02L35.878,47.91V33.446
			C35.878,33.446,21.57,13.257,21.434,13.102z"/>
		<path fill="#FFFFFF" d="M60.998,52.552L33.101,13.333c-0.473-0.666-1.248-1.103-2.126-1.103H24.44
			c-0.713,0-1.292,0.58-1.292,1.293c0,0.275,0.087,0.531,0.233,0.741l27.85,39.182c0.472,0.672,1.253,1.116,2.138,1.116h6.556
			c0.712,0,1.29-0.579,1.29-1.291C61.216,53.002,61.136,52.761,60.998,52.552z"/>
		<path opacity="0.9" fill="#FFFFFF" d="M63.108,53.788c0.478,0.532,1.168,0.868,1.938,0.868h6.483c1.438,0,2.603-1.164,2.603-2.603
			V14.832c0-1.418-1.133-2.567-2.542-2.6c-0.021-0.002-5.305-0.002-5.326,0c-1.409,0.032-2.543,1.182-2.543,2.6v17.069
			c0,1.437-1.163,2.601-2.601,2.601c-0.84,0-1.586-0.398-2.062-1.016L48.509,18.737v14.46
			C48.509,33.197,62.972,53.635,63.108,53.788z"/>
	</g>
</g>
<g>
	<g>
		<path fill="#FFFFFF" d="M96.211,20.882c0.044,0.312,0.145,0.563,0.307,0.763c0.158,0.196,0.37,0.354,0.639,0.463v0.19
			c-0.305-0.051-0.568-0.095-0.792-0.116c-0.232-0.023-0.446-0.038-0.641-0.038c-0.226,0-0.455,0.015-0.684,0.03
			c-0.23,0.022-0.514,0.063-0.838,0.112v-0.164c0-0.071,0.065-0.157,0.191-0.249c0.085-0.074,0.156-0.14,0.2-0.197
			c0.054-0.062,0.077-0.146,0.077-0.259c0,0-0.007-0.021-0.012-0.039v-0.039l-0.669-5.302l-2.354,6.097
			c-0.022,0.031-0.063,0.067-0.116,0.106c-0.055,0.042-0.12,0.058-0.198,0.058c-0.096,0-0.165-0.012-0.211-0.045
			c-0.04-0.03-0.084-0.079-0.121-0.146c-0.03-0.058-0.064-0.131-0.103-0.204c-0.035-0.078-0.08-0.173-0.136-0.289
			c-0.055-0.117-0.158-0.337-0.303-0.665c-0.145-0.321-0.368-0.829-0.674-1.517c-0.855-1.915-1.369-3.056-1.543-3.429l-0.592,4.862
			c-0.007,0.041-0.008,0.121-0.008,0.238c0,0.25,0.045,0.452,0.14,0.606c0.093,0.157,0.244,0.278,0.455,0.376l0.074,0.199
			c-0.261-0.037-0.529-0.063-0.798-0.085c-0.272-0.02-0.501-0.029-0.696-0.029c-0.171,0-0.349,0.003-0.537,0.024
			c-0.183,0.013-0.427,0.044-0.721,0.09l0.143-0.188c0.246-0.085,0.443-0.267,0.598-0.537c0.15-0.27,0.25-0.598,0.297-0.982
			l0.882-6.954c0-0.469-0.23-0.875-0.684-1.217v-0.145c0.285,0.029,0.526,0.051,0.723,0.063c0.203,0.005,0.457,0.009,0.761,0.009
			l3.18,7.434l2.377-6.013l0.56-1.421c0.163,0,0.302-0.003,0.412-0.004c0.115-0.005,0.31-0.017,0.576-0.03
			c0.222-0.019,0.385-0.03,0.491-0.037v0.145c-0.197,0.112-0.348,0.283-0.464,0.508c-0.114,0.229-0.174,0.457-0.174,0.688
			c0,0.021,0,0.056,0,0.096c0.012,0.04,0.012,0.066,0.012,0.083L96.211,20.882z"/>
		<path fill="#FFFFFF" d="M100.657,22.203c-0.374-0.06-0.729-0.19-1.06-0.397c-0.334-0.199-0.608-0.506-0.827-0.913
			c-0.212-0.412-0.324-0.936-0.334-1.58l-0.011-0.831c-0.017-0.51-0.021-0.847-0.021-1.013c0-0.229,0.005-0.658,0.021-1.277
			c0.005-0.557,0.011-1.015,0.011-1.355c0-0.255-0.006-0.607-0.02-1.071c-0.015-0.293-0.07-0.549-0.154-0.768
			c-0.083-0.22-0.253-0.415-0.492-0.59v-0.145c0.349,0.035,0.622,0.061,0.821,0.071c0.201,0.018,0.397,0.026,0.581,0.026
			c0.147,0,0.396-0.009,0.725-0.035c0.295-0.025,0.51-0.044,0.658-0.048v0.144c-0.2,0.111-0.346,0.288-0.432,0.543
			c-0.092,0.244-0.146,0.527-0.167,0.835c-0.028,0.3-0.038,0.615-0.04,0.941c-0.005,0.329-0.005,0.742-0.005,1.239v1.418
			c0,0.237,0,0.479,0.005,0.719c0.002,0.246,0.008,0.567,0.026,0.98c0.018,0.549,0.077,0.995,0.189,1.33
			c0.111,0.336,0.256,0.591,0.434,0.763c0.183,0.175,0.376,0.282,0.596,0.34c0.222,0.055,0.484,0.081,0.788,0.081
			c0.415,0,0.759-0.032,1.021-0.096c0.264-0.063,0.489-0.189,0.673-0.38c0.18-0.188,0.317-0.474,0.42-0.848
			c0.101-0.37,0.161-0.862,0.177-1.473c0.004-0.223,0.014-0.494,0.014-0.813v-0.569c0-0.102,0-0.46,0.004-1.07
			c0-0.414,0-0.791,0-1.13c0-0.661-0.004-1.147-0.018-1.468c-0.016-0.375-0.071-0.651-0.157-0.826
			c-0.083-0.182-0.271-0.353-0.558-0.518v-0.144c0.185,0.004,0.407,0.022,0.644,0.048c0.201,0.013,0.341,0.026,0.413,0.026
			c0.141,0,0.382-0.018,0.718-0.042c0.29-0.022,0.513-0.037,0.676-0.047v0.145c-0.228,0.126-0.386,0.283-0.467,0.472
			c-0.085,0.186-0.131,0.49-0.149,0.908c-0.02,0.501-0.027,1.031-0.036,1.592c-0.003,0.561-0.008,1.23-0.008,2.008
			c0,0.063,0,0.233,0,0.508c-0.005,0.289-0.009,0.457-0.009,0.527c0,0.866-0.086,1.559-0.261,2.089
			c-0.177,0.522-0.417,0.921-0.721,1.171c-0.309,0.253-0.665,0.422-1.057,0.5c-0.397,0.083-0.876,0.116-1.434,0.116
			C101.423,22.298,101.025,22.272,100.657,22.203z"/>
		<path fill="#FFFFFF" d="M108.744,22.245c-0.221-0.049-0.493-0.123-0.811-0.229c-0.134-0.04-0.224-0.07-0.274-0.088
			c-0.198-0.061-0.329-0.153-0.39-0.278c-0.067-0.121-0.095-0.292-0.095-0.506c0,0-0.004-0.05-0.012-0.121
			c-0.022-0.116-0.043-0.242-0.056-0.389c-0.017-0.146-0.024-0.287-0.024-0.411c0-0.104,0.03-0.209,0.096-0.311
			c0.062-0.107,0.168-0.156,0.316-0.156c0.069,0,0.122,0.038,0.172,0.109c0.049,0.079,0.118,0.206,0.188,0.38
			c0.112,0.278,0.203,0.47,0.291,0.574c0.191,0.239,0.443,0.437,0.751,0.597c0.308,0.161,0.572,0.239,0.796,0.239
			c0.173,0,0.347-0.036,0.519-0.1c0.172-0.065,0.342-0.169,0.497-0.309c0.158-0.144,0.282-0.321,0.375-0.535
			c0.089-0.22,0.14-0.458,0.14-0.729c0-0.266-0.051-0.507-0.146-0.729c-0.096-0.225-0.23-0.431-0.397-0.616
			c-0.166-0.188-0.347-0.362-0.54-0.522c-0.192-0.16-0.442-0.349-0.745-0.572c-0.332-0.24-0.597-0.444-0.806-0.617
			c-0.208-0.168-0.407-0.362-0.588-0.578c-0.184-0.215-0.317-0.45-0.429-0.711c-0.112-0.259-0.164-0.542-0.164-0.844
			s0.049-0.601,0.155-0.896c0.103-0.295,0.261-0.563,0.477-0.813c0.21-0.247,0.475-0.448,0.807-0.599
			c0.325-0.152,0.706-0.229,1.14-0.229c0.191,0,0.461,0.035,0.813,0.108c0.278,0.067,0.481,0.099,0.6,0.099
			c0,0,0.025-0.012,0.045-0.024c0.061-0.032,0.13-0.058,0.195-0.079c0.067-0.019,0.171-0.03,0.295-0.03
			c0.11,0,0.179,0.021,0.221,0.061c0.038,0.042,0.063,0.076,0.063,0.11c0,0.195,0.019,0.488,0.052,0.871
			c0.028,0.351,0.045,0.615,0.045,0.788c0,0.051-0.025,0.104-0.065,0.164c-0.046,0.065-0.119,0.097-0.225,0.097
			c-0.112,0-0.207-0.051-0.293-0.158c-0.077-0.107-0.172-0.262-0.273-0.46c-0.105-0.199-0.183-0.312-0.227-0.358
			c-0.21-0.189-0.433-0.331-0.673-0.424c-0.24-0.082-0.479-0.124-0.712-0.124c-0.278,0-0.543,0.124-0.786,0.378
			c-0.249,0.257-0.367,0.555-0.367,0.898c0,0.423,0.136,0.796,0.427,1.12c0.289,0.32,0.727,0.711,1.318,1.165
			c0.337,0.254,0.613,0.478,0.835,0.663c0.218,0.183,0.429,0.396,0.627,0.643c0.2,0.236,0.363,0.494,0.478,0.777
			c0.122,0.283,0.185,0.588,0.189,0.916c0,0.36-0.057,0.707-0.189,1.049c-0.123,0.333-0.315,0.639-0.572,0.911
			c-0.254,0.273-0.576,0.489-0.972,0.65c-0.389,0.169-0.834,0.247-1.339,0.247C109.217,22.314,108.972,22.286,108.744,22.245z"/>
		<path fill="#FFFFFF" d="M115.397,22.189c-0.207,0.014-0.481,0.047-0.823,0.084c-0.032,0-0.092,0.003-0.178,0.013v-0.266
			c0.091-0.056,0.184-0.135,0.27-0.233c0.102-0.097,0.183-0.223,0.268-0.354c0.178-0.296,0.27-0.566,0.278-0.817
			c0.012-0.604,0.021-1.108,0.021-1.505s0-0.96,0-1.686c0-0.608-0.01-1.229-0.021-1.859c-0.018-0.633-0.037-1.246-0.065-1.84
			c-0.016-0.266-0.089-0.503-0.226-0.729c-0.135-0.22-0.341-0.401-0.625-0.555l-0.028-0.205l0.178,0.017
			c0.428,0.044,0.788,0.077,1.082,0.106c0.289,0.021,0.51,0.03,0.664,0.03c0.124,0,0.285,0,0.484-0.009
			c0.206-0.009,0.451-0.021,0.745-0.036c0.141-0.012,0.248-0.016,0.322-0.022c0.552-0.042,0.942-0.061,1.174-0.061
			c0.163,0,0.308,0,0.433,0c0.126,0.007,0.256,0.019,0.39,0.042c0.136,0.021,0.247,0.049,0.334,0.094
			c0.09,0.048,0.137,0.103,0.137,0.181c0,0.194,0.021,0.418,0.059,0.667c0.019,0.186,0.028,0.328,0.028,0.434
			c0,0.021-0.024,0.052-0.07,0.093c-0.051,0.043-0.117,0.061-0.209,0.061c-0.11,0-0.188-0.022-0.234-0.068
			c-0.055-0.051-0.098-0.116-0.133-0.205c-0.024-0.042-0.035-0.068-0.045-0.073c-0.116-0.191-0.299-0.342-0.544-0.445
			c-0.246-0.103-0.631-0.156-1.15-0.156c-0.156,0-0.421,0.018-0.801,0.05l-0.357,0.032c-0.024,0.091-0.038,0.261-0.048,0.52
			c-0.005,0.104-0.016,0.195-0.017,0.278c-0.032,0.446-0.05,1.159-0.05,2.134v0.854c0.538,0.012,0.927,0.026,1.177,0.026
			c0.218,0,0.385-0.008,0.496-0.015c0.237-0.005,0.441-0.052,0.599-0.143c0.157-0.079,0.326-0.259,0.498-0.54h0.467
			c-0.006,0.11-0.018,0.239-0.035,0.37c-0.026,0.264-0.046,0.496-0.046,0.694c0,0.217,0,0.371,0,0.448
			c0,0.084,0.007,0.261,0.022,0.515h-0.477c-0.113-0.232-0.26-0.389-0.446-0.481c-0.184-0.084-0.407-0.144-0.67-0.169
			c-0.336-0.029-0.862-0.051-1.585-0.051c0,0.564,0.008,1.07,0.023,1.522c0.014,0.455,0.038,1.01,0.066,1.677
			c0.007,0.2,0.063,0.363,0.175,0.498c0.105,0.131,0.245,0.234,0.412,0.306c0.169,0.07,0.339,0.119,0.528,0.146
			c0.189,0.021,0.385,0.035,0.602,0.035c0.317,0,0.583-0.027,0.794-0.073c0.208-0.051,0.411-0.164,0.61-0.342
			c0.115-0.095,0.275-0.27,0.472-0.522c0.15-0.185,0.27-0.318,0.358-0.408c0.086-0.09,0.177-0.132,0.263-0.132
			c0.089,0,0.168,0.017,0.224,0.066c0.063,0.043,0.089,0.079,0.089,0.104c0,0.095-0.076,0.289-0.232,0.584
			c-0.182,0.346-0.298,0.609-0.343,0.793l-0.012,0.028c-0.038,0.148-0.111,0.268-0.213,0.36c-0.105,0.084-0.323,0.125-0.647,0.125
			h-1.663c-0.457,0-0.867-0.001-1.224-0.01c-0.486,0-0.818,0-0.998,0C115.777,22.165,115.6,22.174,115.397,22.189z"/>
		<path fill="#FFFFFF" d="M129.041,12.63c0.606,0.261,1.118,0.625,1.53,1.079c0.416,0.464,0.737,0.995,0.953,1.597
			c0.212,0.604,0.322,1.248,0.322,1.938c0,0.707-0.125,1.371-0.373,1.994c-0.248,0.62-0.599,1.159-1.046,1.618
			c-0.444,0.453-0.962,0.806-1.552,1.057c-0.594,0.249-1.222,0.374-1.881,0.374c-0.667,0-1.288-0.128-1.88-0.395
			c-0.593-0.258-1.11-0.625-1.559-1.092c-0.446-0.47-0.792-1.005-1.046-1.616c-0.248-0.611-0.371-1.251-0.371-1.915
			c0-0.668,0.123-1.305,0.371-1.914c0.254-0.614,0.6-1.151,1.046-1.625c0.448-0.471,0.966-0.839,1.559-1.1
			c0.592-0.265,1.213-0.393,1.88-0.393C127.755,12.237,128.434,12.365,129.041,12.63z M125.696,13.224
			c-0.398,0.19-0.744,0.46-1.041,0.814c-0.29,0.352-0.519,0.78-0.682,1.274c-0.157,0.493-0.238,1.045-0.238,1.646
			c0,0.601,0.081,1.183,0.244,1.742c0.167,0.56,0.396,1.057,0.693,1.49c0.298,0.438,0.645,0.778,1.043,1.027
			c0.4,0.246,0.825,0.365,1.279,0.365c0.476,0,0.913-0.087,1.323-0.268c0.404-0.18,0.757-0.435,1.063-0.777
			c0.303-0.341,0.542-0.753,0.716-1.239c0.158-0.48,0.243-1.019,0.243-1.617c0-0.743-0.085-1.411-0.243-2.003
			c-0.174-0.591-0.413-1.09-0.716-1.494c-0.307-0.413-0.659-0.72-1.063-0.931c-0.41-0.212-0.848-0.316-1.323-0.316
			C126.524,12.938,126.091,13.035,125.696,13.224z"/>
		<path fill="#FFFFFF" d="M141.375,16.018c-0.212-0.523-0.464-1.132-0.76-1.824l-0.185-0.442l-0.035-0.071
			c-0.117-0.308-0.245-0.556-0.369-0.741c-0.135-0.188-0.347-0.359-0.636-0.518l-0.033-0.164l0.322,0.035
			c0.532,0.042,0.901,0.069,1.106,0.069c0.259,0,0.703-0.02,1.339-0.059l0.08,0.15c-0.167,0.118-0.248,0.32-0.248,0.625
			c0,0.257,0.04,0.496,0.114,0.709c0.178,0.505,0.383,1.078,0.629,1.723c0.242,0.641,0.471,1.254,0.7,1.85
			c0.191,0.531,0.5,1.324,0.934,2.388l0.044,0.098c0.242-0.642,0.505-1.346,0.801-2.117c0.152-0.409,0.313-0.88,0.5-1.403
			c0.183-0.528,0.398-1.162,0.644-1.91c0.055-0.174,0.121-0.367,0.185-0.581c0.104-0.268,0.161-0.516,0.161-0.748
			c0-0.17-0.039-0.312-0.113-0.416c-0.074-0.098-0.219-0.174-0.425-0.223l0.074-0.189c0.579,0.061,1.017,0.095,1.319,0.095
			c0.151,0,0.396-0.018,0.746-0.038c0.299-0.021,0.535-0.036,0.704-0.044l-0.064,0.151c-0.25,0.112-0.461,0.287-0.64,0.521
			c-0.179,0.241-0.35,0.53-0.51,0.869c-0.173,0.396-0.347,0.815-0.512,1.255c-0.172,0.436-0.374,0.972-0.605,1.604
			c-0.121,0.335-0.209,0.578-0.266,0.728c-0.102,0.251-0.257,0.651-0.481,1.203c-0.242,0.575-0.465,1.133-0.677,1.675
			c-0.208,0.545-0.446,1.166-0.709,1.864c-0.014,0.025-0.047,0.063-0.107,0.101c-0.061,0.042-0.134,0.058-0.219,0.058
			c-0.094,0-0.175-0.021-0.235-0.067c-0.07-0.049-0.121-0.091-0.135-0.144c-0.121-0.33-0.269-0.719-0.451-1.169
			c-0.178-0.444-0.42-1.048-0.736-1.798c-0.172-0.406-0.302-0.722-0.399-0.963c-0.095-0.236-0.196-0.467-0.279-0.688
			C141.782,17.017,141.593,16.53,141.375,16.018z"/>
		<path fill="#FFFFFF" d="M151.485,22.259c-0.202,0.014-0.46,0.032-0.777,0.066v-0.167c0.205-0.117,0.36-0.255,0.471-0.428
			c0.115-0.174,0.168-0.385,0.182-0.648c0.015-0.798,0.018-1.996,0.018-3.599c0-0.61-0.003-1.232-0.018-1.866
			c-0.017-0.636-0.04-1.247-0.066-1.842c-0.017-0.294-0.068-0.553-0.149-0.778c-0.083-0.22-0.244-0.418-0.49-0.593v-0.147
			c0.343,0.035,0.615,0.057,0.814,0.073c0.198,0.016,0.393,0.023,0.581,0.023c0.145,0,0.377-0.012,0.713-0.036
			c0.293-0.025,0.515-0.04,0.684-0.048v0.146c-0.216,0.113-0.364,0.294-0.448,0.549c-0.093,0.252-0.145,0.535-0.172,0.847
			c-0.019,0.308-0.033,0.621-0.036,0.95c0,0.331,0,0.749,0,1.257v1.432c0,1.105,0.021,2.298,0.088,3.563
			c0.018,0.547,0.238,0.927,0.659,1.146v0.167c-0.356-0.034-0.632-0.053-0.848-0.066c-0.212-0.012-0.421-0.019-0.616-0.019
			C151.882,22.24,151.687,22.247,151.485,22.259z"/>
		<path fill="#FFFFFF" d="M157.734,12.325c0.448-0.033,0.787-0.053,1.008-0.053c0.27,0,0.587,0.041,0.942,0.126
			c0.354,0.088,0.64,0.202,0.85,0.349c0.398,0.25,0.705,0.588,0.893,1c0.191,0.406,0.29,0.824,0.29,1.25
			c0,0.455-0.102,0.893-0.307,1.306c-0.204,0.412-0.495,0.756-0.864,1.028c-0.147,0.107-0.29,0.182-0.428,0.229
			c0.104,0.177,0.273,0.464,0.505,0.866c0.31,0.548,0.586,1.01,0.817,1.393c0.226,0.38,0.472,0.743,0.74,1.084
			c0.263,0.339,0.534,0.612,0.811,0.819c0.269,0.207,0.541,0.305,0.801,0.305c0.043,0,0.107-0.002,0.19-0.01
			c0.132-0.018,0.236-0.023,0.311-0.023c0.069,0,0.131,0.014,0.185,0.041c0.057,0.023,0.097,0.053,0.117,0.081
			c0,0.06-0.047,0.125-0.138,0.183c-0.085,0.065-0.201,0.118-0.343,0.169c-0.145,0.052-0.283,0.093-0.428,0.122
			c-0.137,0.027-0.252,0.039-0.336,0.039c-0.443,0-0.841-0.083-1.203-0.256c-0.364-0.171-0.684-0.407-0.973-0.696
			c-0.286-0.285-0.542-0.597-0.767-0.924c-0.219-0.332-0.487-0.747-0.787-1.254c-0.242-0.401-0.451-0.733-0.623-0.996
			c-0.169-0.256-0.342-0.495-0.53-0.714h-0.445c-0.093,0-0.244,0.012-0.457,0.035l-0.131,0.015c0,1.118,0.024,2.163,0.077,3.146
			c0.021,0.333,0.078,0.577,0.172,0.733c0.095,0.151,0.262,0.282,0.499,0.398v0.167c-0.354-0.035-0.637-0.052-0.849-0.066
			c-0.215-0.013-0.423-0.015-0.626-0.015c-0.446,0-0.944,0.021-1.496,0.081v-0.167c0.229-0.131,0.417-0.281,0.558-0.45
			c0.146-0.168,0.219-0.37,0.226-0.613c0.015-0.802,0.021-2.009,0.021-3.613c0-0.606-0.006-1.229-0.021-1.863
			c-0.017-0.636-0.041-1.251-0.07-1.846c-0.01-0.287-0.063-0.537-0.155-0.74c-0.091-0.2-0.262-0.378-0.521-0.522v-0.18
			c0.636,0.064,1.12,0.097,1.436,0.097C156.927,12.384,157.28,12.365,157.734,12.325z M157.435,15.801v1.335
			c0.115,0,0.28-0.001,0.491-0.006c0.172,0,0.275,0,0.323,0c0.727,0,1.234-0.171,1.51-0.514c0.279-0.343,0.414-0.908,0.414-1.705
			c0-0.338-0.064-0.664-0.202-0.98c-0.135-0.318-0.313-0.559-0.525-0.715c-0.175-0.131-0.36-0.21-0.571-0.249
			c-0.212-0.035-0.457-0.052-0.743-0.052c-0.114,0-0.303,0.015-0.565,0.045h-0.033c-0.03,0.098-0.044,0.268-0.044,0.506
			c0,0.138,0,0.239-0.01,0.313C157.445,14.203,157.435,14.877,157.435,15.801z"/>
		<path fill="#FFFFFF" d="M171.701,13.064c-0.178,0.387-0.288,0.665-0.325,0.839c-0.004,0.045-0.054,0.088-0.138,0.126
			c-0.085,0.036-0.155,0.056-0.202,0.056c-0.108,0-0.179-0.038-0.215-0.11c-0.037-0.071-0.068-0.176-0.074-0.307
			c-0.014-0.069-0.021-0.113-0.024-0.133c-0.019-0.109-0.066-0.189-0.131-0.24c-0.067-0.054-0.135-0.079-0.205-0.091
			c-0.178-0.006-0.464-0.012-0.851-0.012h-0.878l-0.058,0.771c-0.037,0.513-0.057,1.157-0.057,1.938c0,0.258,0.003,0.549,0.01,0.861
			c0,0.445,0,0.7,0,0.774c0,1.086,0.033,2.251,0.091,3.493c0.022,0.533,0.242,0.915,0.658,1.127v0.164
			c-0.349-0.036-0.636-0.053-0.84-0.063c-0.216-0.012-0.421-0.019-0.621-0.019c-0.189,0-0.381,0.007-0.586,0.019
			c-0.207,0.011-0.465,0.027-0.773,0.063v-0.164c0.201-0.108,0.353-0.252,0.471-0.421c0.111-0.173,0.169-0.383,0.175-0.633
			c0.013-0.787,0.016-1.967,0.016-3.532c0-0.835,0-1.523,0-2.086c0-0.559-0.003-1.123-0.016-1.701l-0.01-0.593
			c-0.387,0-0.733,0.012-1.037,0.035c-0.309,0.027-0.612,0.073-0.904,0.145c-0.088,0.022-0.191,0.066-0.315,0.13
			c-0.125,0.063-0.259,0.152-0.391,0.271c-0.014,0.009-0.04,0.034-0.081,0.074c-0.077,0.077-0.155,0.141-0.229,0.187
			c-0.08,0.052-0.161,0.072-0.259,0.072c-0.063,0-0.132-0.017-0.194-0.057c-0.068-0.03-0.104-0.058-0.104-0.074
			c0.01-0.064,0.074-0.189,0.198-0.376c0.134-0.2,0.224-0.344,0.275-0.454c0.004-0.021,0.033-0.08,0.074-0.178
			c0.127-0.249,0.205-0.459,0.238-0.625h0.472c0.076,0.085,0.144,0.145,0.201,0.166c0.061,0.024,0.169,0.038,0.313,0.049
			c0.615,0.009,1.524,0.015,2.734,0.015c0.404,0,1.029-0.018,1.887-0.048c0.303-0.013,0.609-0.02,0.925-0.028
			c0.119-0.009,0.277-0.049,0.479-0.13c0.098-0.04,0.174-0.065,0.225-0.084h0.381C171.978,12.433,171.876,12.69,171.701,13.064z"/>
		<path fill="#FFFFFF" d="M176.575,22.203c-0.374-0.06-0.727-0.19-1.06-0.397c-0.34-0.199-0.608-0.506-0.827-0.917
			c-0.216-0.408-0.326-0.932-0.332-1.576l-0.014-0.835c-0.015-0.51-0.024-0.845-0.024-1.01c0-0.233,0.01-0.659,0.024-1.276
			c0.006-0.567,0.014-1.018,0.014-1.357c0-0.256-0.008-0.612-0.028-1.075c-0.014-0.29-0.063-0.551-0.147-0.765
			c-0.087-0.217-0.253-0.415-0.495-0.59v-0.144c0.343,0.031,0.623,0.053,0.821,0.069c0.198,0.016,0.4,0.023,0.582,0.023
			c0.148,0,0.39-0.012,0.726-0.036c0.294-0.025,0.512-0.036,0.659-0.048v0.146c-0.208,0.113-0.346,0.293-0.434,0.543
			c-0.098,0.25-0.147,0.528-0.175,0.84c-0.017,0.3-0.034,0.613-0.04,0.938c0,0.329,0,0.739,0,1.241v1.416c0,0.239,0,0.479,0,0.721
			c0.006,0.237,0.017,0.569,0.033,0.982c0.014,0.549,0.074,0.995,0.192,1.33c0.104,0.336,0.255,0.591,0.431,0.76
			c0.179,0.172,0.377,0.285,0.595,0.343c0.229,0.055,0.487,0.081,0.786,0.081c0.421,0,0.761-0.032,1.022-0.096
			c0.266-0.063,0.486-0.189,0.674-0.38c0.178-0.188,0.323-0.474,0.421-0.848c0.104-0.37,0.158-0.866,0.177-1.479
			c0.004-0.22,0.012-0.488,0.012-0.809v-0.569c0-0.103,0-0.458,0.01-1.073c0-0.413,0-0.786,0-1.135c0-0.656-0.01-1.146-0.021-1.464
			c-0.019-0.373-0.066-0.646-0.15-0.827c-0.088-0.179-0.275-0.35-0.565-0.517V12.27c0.196,0.012,0.403,0.022,0.649,0.048
			c0.194,0.017,0.336,0.024,0.407,0.024c0.144,0,0.383-0.012,0.717-0.037c0.288-0.023,0.514-0.035,0.679-0.044v0.144
			c-0.232,0.128-0.387,0.28-0.467,0.467c-0.084,0.187-0.129,0.493-0.146,0.914c-0.022,0.503-0.033,1.033-0.04,1.585
			c-0.004,0.565-0.007,1.23-0.007,2.017c0,0.059,0,0.227,0,0.506c-0.011,0.288-0.011,0.459-0.011,0.525
			c0,0.865-0.087,1.563-0.265,2.088c-0.172,0.527-0.411,0.926-0.72,1.176c-0.307,0.253-0.66,0.422-1.054,0.5
			c-0.396,0.083-0.871,0.116-1.428,0.116C177.338,22.298,176.942,22.272,176.575,22.203z"/>
		<path fill="#FFFFFF" d="M190.714,20.907c0.108,0.315,0.243,0.561,0.407,0.754c0.158,0.19,0.356,0.346,0.593,0.454v0.191
			c-0.3-0.054-0.566-0.098-0.794-0.122c-0.232-0.023-0.434-0.032-0.627-0.032c-0.234,0-0.464,0.009-0.691,0.029
			c-0.232,0.021-0.515,0.059-0.838,0.112V22.13c0-0.059,0.047-0.153,0.142-0.29c0.145-0.198,0.212-0.353,0.212-0.476
			c0-0.081-0.008-0.166-0.03-0.26c-0.014-0.093-0.034-0.155-0.048-0.183l-0.86-2.517c-0.468-0.036-0.882-0.057-1.248-0.057
			c-0.508,0-0.951,0.021-1.314,0.057l-0.983,2.729v0.01c-0.053,0.131-0.087,0.229-0.096,0.297c-0.018,0.069-0.025,0.146-0.025,0.234
			c0,0.185,0.059,0.344,0.199,0.477v0.142c-0.249-0.039-0.471-0.063-0.636-0.085c-0.172-0.008-0.333-0.024-0.48-0.024
			c-0.172,0-0.351,0.017-0.536,0.024c-0.184,0.021-0.427,0.05-0.723,0.098l0.142-0.191c0.275-0.099,0.515-0.254,0.713-0.454
			c0.196-0.196,0.361-0.468,0.495-0.809l2.656-6.922c0.014-0.033,0.021-0.089,0.021-0.172c0-0.233-0.081-0.474-0.229-0.71
			c-0.154-0.237-0.357-0.448-0.609-0.642l-0.044-0.145c0.573,0.061,1.098,0.089,1.562,0.089h0.479l0.536,1.421L190.714,20.907z
			 M187.937,17.764v-0.041l-0.985-2.778l-1.044,2.778v0.041c0.448,0.011,0.781,0.019,1,0.019
			C187.13,17.782,187.477,17.774,187.937,17.764z"/>
		<path fill="#FFFFFF" d="M193.405,22.276l-0.011-0.196c0.091-0.054,0.182-0.126,0.272-0.232c0.088-0.101,0.172-0.229,0.246-0.37
			c0.077-0.139,0.141-0.291,0.195-0.444c0.043-0.148,0.066-0.281,0.066-0.403c0.018-0.606,0.024-1.107,0.024-1.501s0-0.951,0-1.679
			c0-0.607-0.007-1.223-0.024-1.848c-0.01-0.634-0.034-1.239-0.063-1.83c-0.014-0.298-0.067-0.555-0.155-0.775
			c-0.085-0.215-0.245-0.415-0.494-0.59v-0.145c0.35,0.035,0.629,0.061,0.828,0.071c0.205,0.018,0.393,0.026,0.581,0.026
			c0.145,0,0.392-0.009,0.72-0.035c0.293-0.025,0.515-0.044,0.659-0.048v0.144c-0.198,0.111-0.343,0.288-0.43,0.543
			c-0.091,0.252-0.146,0.531-0.169,0.843c-0.023,0.307-0.033,0.611-0.041,0.945c-0.003,0.327-0.003,0.74-0.003,1.242v1.421
			c0,0.566,0.003,1.071,0.021,1.523c0.014,0.446,0.037,1.007,0.067,1.677c0.023,0.402,0.151,0.676,0.387,0.82
			c0.231,0.148,0.555,0.221,0.963,0.221c0.274,0,0.555-0.042,0.837-0.131c0.279-0.084,0.535-0.226,0.746-0.405
			c0.128-0.103,0.282-0.313,0.469-0.622c0.113-0.185,0.208-0.319,0.285-0.414c0.076-0.09,0.165-0.139,0.263-0.139
			c0.117,0,0.194,0.025,0.231,0.077c0.04,0.045,0.061,0.092,0.061,0.141c0,0.065-0.021,0.148-0.051,0.254
			c-0.036,0.103-0.091,0.251-0.175,0.438c-0.15,0.358-0.245,0.625-0.289,0.801c-0.029,0.119-0.098,0.235-0.195,0.351
			c-0.1,0.108-0.249,0.167-0.437,0.175c-0.034,0-0.179,0.008-0.441,0.021c-0.443,0.037-0.78,0.05-1.002,0.05
			c-0.262,0-0.487,0-0.675-0.008c-0.189-0.009-0.432-0.022-0.724-0.042c-0.444-0.021-0.798-0.031-1.058-0.031
			C194.626,22.172,194.132,22.203,193.405,22.276z"/>
		<path fill="#FFFFFF" d="M202.304,22.189c-0.201,0.014-0.48,0.047-0.821,0.084c-0.033,0-0.093,0.003-0.174,0.013v-0.266
			c0.088-0.056,0.178-0.135,0.272-0.233c0.091-0.097,0.175-0.223,0.258-0.354c0.18-0.296,0.273-0.566,0.281-0.817
			c0.016-0.605,0.026-1.108,0.026-1.505c0-0.398,0-0.96,0-1.686c0-0.608-0.011-1.233-0.026-1.859
			c-0.012-0.635-0.034-1.246-0.064-1.84c-0.015-0.266-0.092-0.508-0.223-0.729c-0.135-0.22-0.343-0.409-0.625-0.558l-0.033-0.203
			l0.185,0.015c0.423,0.041,0.787,0.079,1.076,0.103c0.288,0.024,0.511,0.037,0.669,0.037c0.114,0,0.279,0,0.485-0.013
			c0.204-0.005,0.453-0.018,0.745-0.036c0.139-0.008,0.246-0.016,0.323-0.024c0.546-0.04,0.936-0.061,1.167-0.061
			c0.165,0,0.31,0.006,0.434,0.006c0.129,0.007,0.26,0.019,0.395,0.04c0.131,0.021,0.248,0.049,0.333,0.095
			c0.083,0.045,0.134,0.104,0.134,0.174c0,0.202,0.018,0.426,0.058,0.675c0.022,0.186,0.03,0.328,0.03,0.43
			c0,0.024-0.026,0.056-0.074,0.097c-0.051,0.041-0.114,0.057-0.208,0.057c-0.108,0-0.186-0.019-0.235-0.07
			c-0.051-0.045-0.095-0.114-0.129-0.2c-0.022-0.041-0.033-0.067-0.043-0.075c-0.122-0.192-0.304-0.34-0.548-0.442
			c-0.246-0.103-0.626-0.156-1.151-0.156c-0.153,0-0.423,0.018-0.804,0.047l-0.353,0.035c-0.024,0.091-0.041,0.261-0.051,0.517
			c-0.003,0.107-0.006,0.198-0.017,0.275c-0.034,0.452-0.051,1.161-0.051,2.14v0.854c0.538,0.012,0.929,0.026,1.174,0.026
			c0.226,0,0.391-0.008,0.505-0.015c0.231-0.012,0.434-0.052,0.599-0.143c0.158-0.079,0.319-0.264,0.487-0.544h0.475
			c-0.007,0.114-0.021,0.235-0.033,0.374c-0.03,0.264-0.044,0.494-0.044,0.694c0,0.217,0,0.367,0,0.448
			c0,0.084,0.007,0.261,0.023,0.515h-0.48c-0.112-0.232-0.26-0.389-0.448-0.481c-0.189-0.084-0.409-0.146-0.666-0.172
			c-0.333-0.026-0.864-0.048-1.591-0.048c0,0.564,0.011,1.07,0.027,1.522c0.014,0.451,0.037,1.01,0.066,1.677
			c0.008,0.2,0.068,0.363,0.176,0.495c0.106,0.134,0.245,0.237,0.41,0.309c0.165,0.07,0.339,0.119,0.528,0.146
			c0.188,0.021,0.391,0.035,0.603,0.035c0.321,0,0.585-0.027,0.793-0.073c0.205-0.051,0.413-0.164,0.615-0.342
			c0.111-0.095,0.266-0.27,0.467-0.522c0.149-0.185,0.27-0.324,0.36-0.408c0.081-0.09,0.176-0.132,0.263-0.132
			c0.095,0,0.165,0.017,0.227,0.066c0.06,0.043,0.086,0.076,0.086,0.101c0,0.098-0.077,0.292-0.235,0.585
			c-0.186,0.348-0.302,0.611-0.34,0.795l-0.014,0.028c-0.04,0.148-0.107,0.268-0.212,0.36c-0.104,0.084-0.318,0.125-0.645,0.125
			h-1.665c-0.458,0-0.868-0.001-1.229-0.01c-0.483,0-0.816,0-0.991,0C202.684,22.165,202.51,22.174,202.304,22.189z"/>
		<path fill="#FFFFFF" d="M220.312,16.249c-0.017-0.238-0.017-0.44-0.023-0.597c-0.004-0.158-0.021-0.466-0.051-0.928l-0.023-0.437
			c-0.01-0.307-0.071-0.559-0.168-0.757c-0.108-0.196-0.3-0.323-0.579-0.369v-0.113c0.062-0.078,0.151-0.134,0.269-0.178
			c0.119-0.036,0.276-0.08,0.458-0.122c0.157-0.031,0.26-0.059,0.313-0.074c0.057-0.023,0.127-0.063,0.212-0.125
			c0.124-0.093,0.252-0.159,0.407-0.204c0.151-0.043,0.396-0.068,0.742-0.068v0.138c-0.034,0.06-0.053,0.27-0.074,0.637
			c-0.017,0.37-0.037,0.771-0.043,1.209c-0.013,0.432-0.017,0.913-0.024,1.442c0,0.524-0.003,1.029-0.003,1.506
			c0,1.143,0.03,2.37,0.088,3.669c0.01,0.147,0.014,0.242,0.03,0.273c0.014,0.033,0.043,0.047,0.104,0.047
			c0,0,0.057-0.012,0.124-0.034c0.161-0.069,0.3-0.102,0.413-0.102c0.131,0,0.226,0.036,0.279,0.113
			c0.048,0.072,0.072,0.149,0.072,0.221c0,0.084-0.06,0.175-0.193,0.279c-0.131,0.107-0.282,0.197-0.45,0.279
			c-0.136,0.074-0.285,0.135-0.447,0.185c-0.165,0.042-0.313,0.063-0.447,0.063c-0.171,0-0.333-0.031-0.491-0.098
			c-0.165-0.066-0.29-0.177-0.38-0.322c-0.209,0.146-0.438,0.268-0.704,0.36c-0.255,0.093-0.518,0.133-0.763,0.133
			c-0.36,0-0.699-0.084-1.016-0.256c-0.323-0.18-0.605-0.41-0.84-0.713c-0.244-0.304-0.424-0.649-0.559-1.032
			s-0.203-0.786-0.203-1.197c0-0.422,0.068-0.817,0.192-1.188c0.129-0.364,0.311-0.692,0.545-0.974
			c0.239-0.279,0.531-0.496,0.885-0.652c0.349-0.164,0.743-0.24,1.185-0.24C219.602,16.024,219.991,16.101,220.312,16.249z
			 M218.236,17.282c-0.263,0.375-0.397,0.868-0.397,1.495c0,0.324,0.033,0.638,0.104,0.934c0.073,0.299,0.185,0.564,0.326,0.813
			c0.142,0.243,0.323,0.434,0.536,0.574c0.211,0.143,0.456,0.21,0.731,0.21c0.175,0,0.32-0.018,0.435-0.061
			c0.11-0.05,0.212-0.128,0.313-0.236v-0.063c0.011-0.801,0.027-2.024,0.027-3.671c-0.136-0.188-0.266-0.327-0.414-0.416
			c-0.142-0.084-0.329-0.13-0.548-0.13C218.868,16.732,218.498,16.917,218.236,17.282z"/>
		<path fill="#FFFFFF" d="M228.961,18.639c-0.053,0.039-0.124,0.063-0.211,0.063c-0.045,0-0.102-0.003-0.165-0.011
			c-0.044-0.013-0.068-0.015-0.081-0.015h-3.394v0.115c0,0.338,0.041,0.666,0.115,0.982c0.069,0.315,0.178,0.595,0.325,0.853
			c0.146,0.249,0.324,0.45,0.535,0.597c0.212,0.142,0.447,0.213,0.709,0.213c0.195,0,0.37-0.039,0.532-0.127
			c0.167-0.081,0.336-0.194,0.508-0.346c0.057-0.045,0.158-0.153,0.289-0.309c0.125-0.148,0.225-0.263,0.315-0.337
			c0.088-0.074,0.169-0.114,0.246-0.114c0.125,0,0.209,0.054,0.245,0.151c0.048,0.098,0.074,0.203,0.074,0.313
			c-0.01,0.121-0.064,0.265-0.161,0.434c-0.104,0.164-0.218,0.305-0.363,0.424c-0.253,0.238-0.535,0.429-0.844,0.559
			c-0.31,0.132-0.677,0.198-1.101,0.198c-0.5,0-0.921-0.081-1.291-0.256c-0.366-0.166-0.658-0.402-0.888-0.694
			c-0.226-0.299-0.395-0.635-0.498-1.02c-0.108-0.389-0.168-0.793-0.168-1.227c0-0.423,0.066-0.822,0.194-1.195
			c0.135-0.373,0.329-0.699,0.592-0.978c0.259-0.288,0.579-0.505,0.952-0.662c0.37-0.154,0.802-0.233,1.282-0.233
			c0.201,0,0.437,0.041,0.698,0.137c0.26,0.088,0.516,0.229,0.762,0.42c0.251,0.189,0.46,0.442,0.622,0.754
			c0.167,0.311,0.244,0.679,0.244,1.098C229.038,18.527,229.005,18.601,228.961,18.639z M225.226,17.968h2.293
			c-0.04-0.008-0.067-0.035-0.077-0.077v-0.006c-0.031-0.313-0.121-0.566-0.283-0.764c-0.164-0.2-0.386-0.297-0.688-0.297
			c-0.316,0-0.576,0.081-0.773,0.234c-0.199,0.16-0.35,0.41-0.461,0.758c-0.006,0.027-0.01,0.068-0.01,0.127V17.968z"/>
		<path fill="#FFFFFF" d="M230.842,22.209c-0.209,0.014-0.468,0.038-0.78,0.067v-0.173c0.201-0.116,0.356-0.266,0.471-0.444
			c0.11-0.182,0.168-0.408,0.175-0.672c0.021-0.831,0.022-2.077,0.022-3.753c0-0.464,0-0.853-0.009-1.157
			c-0.004-0.305-0.027-0.744-0.054-1.313l-0.024-0.514c-0.013-0.31-0.074-0.567-0.17-0.765c-0.103-0.201-0.294-0.324-0.579-0.377
			v-0.112c0.064-0.077,0.147-0.133,0.259-0.178c0.12-0.042,0.273-0.079,0.471-0.123c0.154-0.033,0.259-0.06,0.313-0.075
			c0.056-0.025,0.12-0.067,0.197-0.126c0.115-0.085,0.256-0.149,0.41-0.203c0.158-0.052,0.408-0.073,0.751-0.073v0.142
			c-0.031,0.055-0.058,0.265-0.077,0.614c-0.023,0.36-0.041,0.776-0.052,1.266c-0.014,0.484-0.02,0.979-0.026,1.485
			c0,0.502-0.004,0.996-0.004,1.473c0,1.164,0.03,2.399,0.091,3.709c0.024,0.573,0.239,0.973,0.657,1.196v0.173
			c-0.351-0.029-0.626-0.054-0.838-0.067c-0.215-0.008-0.418-0.017-0.622-0.017C231.236,22.192,231.047,22.201,230.842,22.209z"/>
		<path fill="#FFFFFF" d="M234.889,22.209c-0.2,0.014-0.462,0.038-0.771,0.067v-0.173c0.202-0.116,0.356-0.266,0.464-0.444
			c0.114-0.182,0.175-0.408,0.183-0.672c0.009-0.831,0.022-2.077,0.022-3.753c0-0.464-0.003-0.853-0.014-1.157
			c-0.006-0.305-0.023-0.744-0.056-1.313l-0.021-0.514c-0.016-0.31-0.07-0.567-0.175-0.765c-0.097-0.201-0.289-0.324-0.568-0.377
			v-0.112c0.055-0.077,0.145-0.133,0.256-0.178c0.117-0.042,0.272-0.079,0.464-0.123c0.155-0.033,0.264-0.06,0.313-0.075
			c0.058-0.025,0.129-0.067,0.199-0.126c0.121-0.085,0.26-0.149,0.413-0.203c0.158-0.052,0.407-0.073,0.751-0.073v0.142
			c-0.031,0.055-0.054,0.265-0.081,0.614c-0.02,0.36-0.037,0.776-0.044,1.266c-0.014,0.484-0.027,0.979-0.027,1.485
			c-0.006,0.502-0.006,0.996-0.006,1.473c0,1.164,0.033,2.399,0.091,3.709c0.02,0.573,0.245,0.973,0.66,1.196v0.173
			c-0.351-0.029-0.63-0.054-0.843-0.067c-0.211-0.008-0.42-0.017-0.622-0.017C235.287,22.192,235.097,22.201,234.889,22.209z"/>
		<path fill="#FFFFFF" d="M239.044,12.365c0.088,0.074,0.165,0.163,0.209,0.269c0.057,0.11,0.091,0.221,0.108,0.34
			c0.021,0.118,0.029,0.227,0.029,0.327c0,0.307-0.043,0.546-0.131,0.7c-0.084,0.156-0.252,0.308-0.505,0.459l-0.47-0.267
			c0.13-0.095,0.188-0.194,0.188-0.315c0,0,0-0.036,0-0.067c-0.007-0.041-0.007-0.072-0.007-0.088h-0.081
			c-0.252,0-0.44-0.073-0.575-0.231c-0.132-0.152-0.195-0.319-0.195-0.518c0-0.089,0.03-0.172,0.101-0.259
			c0.067-0.088,0.155-0.165,0.27-0.229c0.11-0.069,0.229-0.121,0.356-0.161c0.135-0.044,0.252-0.063,0.367-0.063
			C238.844,12.263,238.953,12.298,239.044,12.365z"/>
	</g>
	<g>
		<path fill="#FFFFFF" d="M97.612,28.132c0.158,0.029,0.26,0.04,0.311,0.04c0.138,0,0.381-0.011,0.715-0.04
			c0.292-0.022,0.515-0.042,0.67-0.048v0.151c-0.201,0.115-0.347,0.306-0.439,0.562c-0.08,0.265-0.144,0.56-0.165,0.881
			c-0.018,0.315-0.031,0.643-0.036,0.985c-0.002,0.34-0.006,0.773-0.006,1.293v1.479c0,0.312-0.003,0.757-0.019,1.336
			c0,0.791-0.005,1.334-0.005,1.644c0,0.666,0.005,1.13,0.023,1.41l0.011,0.133c0.005,0.165,0.014,0.273,0.014,0.337
			c0,0.152-0.024,0.256-0.065,0.32c-0.046,0.06-0.135,0.094-0.262,0.094c-0.071,0-0.157-0.04-0.254-0.121
			c-0.093-0.074-0.168-0.167-0.232-0.262l-5.782-7.451v0.882v1.679c0,1.157,0.029,2.388,0.087,3.686
			c0.025,0.585,0.243,0.983,0.662,1.184v0.175c-0.342-0.029-0.625-0.054-0.843-0.063c-0.217-0.018-0.429-0.021-0.621-0.021
			c-0.119,0-0.229,0.004-0.331,0.01c-0.108,0.016-0.327,0.034-0.651,0.061v-0.171c0.193-0.11,0.351-0.252,0.459-0.434
			c0.111-0.182,0.168-0.407,0.18-0.673c0.015-0.823,0.019-2.066,0.019-3.722c0-0.266,0.007-0.688,0.014-1.262
			c0.009-0.591,0.012-1.033,0.012-1.33c0-0.574-0.005-0.993-0.025-1.267v-0.086c-0.019-0.28-0.078-0.524-0.172-0.734
			c-0.099-0.218-0.266-0.416-0.493-0.603l-0.059-0.175c0.038,0,0.091,0.005,0.159,0.017c0.333,0.038,0.59,0.063,0.773,0.076
			c0.182,0.014,0.371,0.024,0.564,0.029l5.8,7.647v-0.785v-1.546c0-0.628-0.01-1.272-0.024-1.928
			c-0.014-0.654-0.037-1.29-0.064-1.906v-0.007c-0.011-0.336-0.061-0.61-0.124-0.82c-0.065-0.218-0.221-0.416-0.461-0.586v-0.163
			C97.153,28.054,97.373,28.084,97.612,28.132z"/>
		<path fill="#FFFFFF" d="M108.45,30.148c-0.061-0.071-0.151-0.176-0.263-0.327c-0.129-0.172-0.24-0.313-0.341-0.432
			c-0.102-0.109-0.214-0.207-0.352-0.286c-0.26-0.135-0.526-0.239-0.803-0.307c-0.273-0.065-0.57-0.098-0.895-0.098
			c-0.558,0-1.057,0.105-1.514,0.314c-0.454,0.211-0.84,0.508-1.16,0.893c-0.321,0.387-0.566,0.842-0.733,1.373
			c-0.166,0.523-0.247,1.094-0.247,1.723c0,0.613,0.09,1.209,0.281,1.782c0.192,0.575,0.449,1.085,0.773,1.533
			c0.331,0.442,0.709,0.789,1.139,1.039c0.423,0.249,0.864,0.376,1.331,0.376c0.227,0,0.472-0.02,0.717-0.054
			c0.252-0.04,0.5-0.095,0.756-0.183c0.578-0.187,1.033-0.456,1.358-0.813c0.04-0.03,0.09-0.097,0.147-0.181
			c0.087-0.125,0.166-0.223,0.233-0.29c0.063-0.063,0.139-0.097,0.213-0.097c0.086,0,0.156,0.02,0.199,0.053
			c0.046,0.035,0.07,0.058,0.08,0.088c0,0.036-0.028,0.127-0.085,0.276c-0.06,0.142-0.131,0.319-0.226,0.53
			c-0.06,0.136-0.106,0.233-0.123,0.287c-0.076,0.194-0.244,0.355-0.517,0.49c-0.44,0.242-0.906,0.41-1.397,0.521
			c-0.494,0.104-1.035,0.158-1.625,0.158c-0.658,0-1.29-0.135-1.879-0.407c-0.593-0.272-1.112-0.648-1.56-1.134
			c-0.442-0.483-0.791-1.045-1.041-1.676c-0.245-0.632-0.373-1.29-0.373-1.981c0-0.7,0.121-1.371,0.363-2.016
			c0.238-0.647,0.585-1.213,1.032-1.723c0.447-0.495,0.979-0.89,1.601-1.169c0.622-0.287,1.299-0.432,2.03-0.432
			c0.283,0,0.582,0.025,0.918,0.071c0.337,0.047,0.68,0.104,1.024,0.18c0,0,0.096,0.015,0.236,0.048
			c0.271,0.064,0.453,0.098,0.559,0.098c0-0.017,0.021-0.033,0.073-0.049c0.05-0.017,0.115-0.022,0.206-0.022
			c0.133,0,0.219,0.05,0.258,0.154c0.038,0.112,0.057,0.267,0.057,0.476c0,0.111,0.009,0.31,0.034,0.586
			c0.015,0.208,0.017,0.364,0.017,0.457c0,0.068-0.017,0.129-0.058,0.187c-0.04,0.056-0.123,0.087-0.24,0.087
			C108.584,30.254,108.516,30.217,108.45,30.148z"/>
		<path fill="#FFFFFF" d="M117.743,28.424c0.606,0.275,1.116,0.65,1.533,1.131c0.414,0.483,0.731,1.035,0.95,1.663
			c0.214,0.633,0.32,1.301,0.32,2.021c0,0.737-0.119,1.429-0.371,2.076c-0.25,0.652-0.596,1.218-1.046,1.692
			c-0.444,0.478-0.958,0.844-1.552,1.103c-0.591,0.263-1.214,0.39-1.878,0.39s-1.291-0.134-1.886-0.409
			c-0.587-0.272-1.106-0.653-1.55-1.139c-0.446-0.489-0.794-1.048-1.046-1.691c-0.248-0.635-0.371-1.302-0.371-1.992
			c0-0.701,0.123-1.365,0.371-1.999c0.252-0.637,0.6-1.201,1.046-1.694c0.443-0.49,0.963-0.875,1.55-1.15
			c0.595-0.271,1.222-0.404,1.886-0.404C116.457,28.02,117.14,28.152,117.743,28.424z M114.396,29.045
			c-0.395,0.202-0.743,0.482-1.035,0.854c-0.296,0.362-0.521,0.808-0.682,1.325c-0.163,0.514-0.24,1.094-0.24,1.715
			c0,0.632,0.078,1.241,0.245,1.821c0.167,0.585,0.393,1.104,0.689,1.558c0.301,0.453,0.646,0.81,1.046,1.066
			c0.4,0.262,0.822,0.382,1.28,0.382c0.471,0,0.91-0.087,1.316-0.275c0.407-0.188,0.765-0.457,1.068-0.811
			c0.306-0.356,0.543-0.787,0.708-1.297c0.168-0.504,0.248-1.063,0.248-1.688c0-0.771-0.08-1.473-0.248-2.089
			c-0.165-0.614-0.402-1.136-0.708-1.563c-0.304-0.426-0.661-0.745-1.068-0.967c-0.406-0.217-0.846-0.328-1.316-0.328
			S114.796,28.847,114.396,29.045z"/>
		<path fill="#FFFFFF" d="M129.2,28.109c0.158,0.022,0.262,0.038,0.316,0.038c0.138,0,0.377-0.016,0.708-0.038
			c0.297-0.025,0.515-0.045,0.674-0.048v0.146c-0.202,0.12-0.353,0.305-0.434,0.57c-0.094,0.265-0.151,0.555-0.172,0.88
			c-0.021,0.315-0.033,0.644-0.037,0.985c-0.006,0.342-0.006,0.771-0.006,1.301v1.481c0,0.313-0.004,0.756-0.014,1.34
			c-0.004,0.787-0.012,1.34-0.012,1.649c0,0.666,0.008,1.13,0.025,1.41l0.01,0.137c0.007,0.164,0.013,0.276,0.013,0.336
			c0,0.152-0.022,0.253-0.07,0.317c-0.043,0.066-0.128,0.094-0.256,0.094c-0.069,0-0.157-0.034-0.248-0.115
			c-0.095-0.08-0.176-0.172-0.236-0.268l-5.779-7.47v0.887v1.683c0,1.161,0.026,2.393,0.086,3.695c0.024,0.585,0.24,0.983,0.66,1.19
			v0.175c-0.347-0.036-0.627-0.061-0.843-0.065c-0.221-0.016-0.429-0.021-0.619-0.021c-0.116,0-0.233,0-0.336,0.014
			c-0.107,0.008-0.324,0.026-0.648,0.063v-0.179c0.194-0.106,0.349-0.255,0.457-0.437c0.11-0.182,0.175-0.407,0.181-0.673
			c0.013-0.823,0.023-2.07,0.023-3.735c0-0.267,0.002-0.685,0.01-1.261c0.006-0.594,0.01-1.036,0.01-1.336
			c0-0.574-0.01-0.996-0.02-1.274v-0.086c-0.023-0.276-0.085-0.52-0.184-0.734c-0.096-0.218-0.252-0.421-0.489-0.603l-0.054-0.176
			c0.037,0,0.092,0.005,0.155,0.013c0.334,0.043,0.595,0.069,0.778,0.086c0.183,0.009,0.369,0.02,0.563,0.028l5.8,7.664v-0.789
			v-1.542c0-0.633-0.007-1.281-0.022-1.937c-0.011-0.658-0.041-1.294-0.068-1.912v-0.013c-0.016-0.334-0.053-0.605-0.12-0.82
			c-0.064-0.218-0.223-0.415-0.457-0.592V28.01C128.742,28.026,128.961,28.062,129.2,28.109z"/>
		<path fill="#FFFFFF" d="M133.777,38.438c-0.222-0.054-0.498-0.135-0.82-0.242c-0.132-0.04-0.219-0.067-0.263-0.084
			c-0.198-0.068-0.337-0.164-0.393-0.295c-0.064-0.129-0.095-0.307-0.095-0.528c0-0.008-0.004-0.048-0.018-0.128
			c-0.02-0.115-0.036-0.253-0.053-0.406c-0.014-0.152-0.021-0.293-0.021-0.432c0-0.107,0.033-0.215,0.091-0.323
			c0.067-0.107,0.168-0.161,0.319-0.161c0.067,0,0.123,0.036,0.171,0.118c0.051,0.083,0.111,0.211,0.186,0.394
			c0.113,0.292,0.208,0.491,0.292,0.601c0.189,0.247,0.441,0.458,0.754,0.627c0.306,0.161,0.571,0.248,0.794,0.248
			c0.175,0,0.343-0.04,0.521-0.107c0.175-0.073,0.336-0.182,0.494-0.322c0.154-0.146,0.281-0.334,0.372-0.555
			c0.095-0.233,0.143-0.481,0.143-0.771c0-0.271-0.048-0.522-0.148-0.756c-0.094-0.23-0.229-0.447-0.396-0.644
			c-0.161-0.191-0.343-0.376-0.538-0.542c-0.195-0.171-0.437-0.368-0.743-0.601c-0.33-0.249-0.599-0.464-0.807-0.642
			c-0.208-0.179-0.407-0.379-0.586-0.607c-0.185-0.228-0.326-0.473-0.437-0.742c-0.104-0.269-0.162-0.566-0.162-0.879
			c0-0.316,0.05-0.627,0.158-0.934c0.104-0.306,0.263-0.591,0.471-0.851c0.215-0.259,0.483-0.466,0.813-0.626
			c0.32-0.158,0.703-0.237,1.138-0.237c0.188,0,0.464,0.039,0.813,0.114c0.281,0.067,0.48,0.098,0.603,0.098
			c0,0,0.02-0.009,0.043-0.021c0.061-0.038,0.125-0.063,0.195-0.083c0.066-0.018,0.168-0.034,0.293-0.034
			c0.111,0,0.179,0.025,0.222,0.066c0.044,0.042,0.058,0.081,0.058,0.111c0,0.208,0.02,0.513,0.06,0.911
			c0.028,0.365,0.048,0.642,0.048,0.826c0,0.05-0.03,0.106-0.067,0.171c-0.047,0.07-0.122,0.103-0.226,0.103
			c-0.11,0-0.212-0.058-0.296-0.167c-0.077-0.117-0.172-0.277-0.273-0.483c-0.107-0.198-0.181-0.323-0.224-0.375
			c-0.21-0.198-0.435-0.345-0.674-0.435c-0.245-0.096-0.477-0.14-0.709-0.14c-0.286,0-0.549,0.135-0.793,0.401
			c-0.247,0.264-0.368,0.578-0.368,0.935c0,0.441,0.143,0.83,0.431,1.167c0.283,0.34,0.727,0.745,1.322,1.219
			c0.333,0.265,0.606,0.496,0.834,0.69c0.215,0.194,0.428,0.417,0.629,0.668c0.198,0.248,0.356,0.525,0.476,0.817
			c0.117,0.297,0.184,0.615,0.19,0.958c0,0.375-0.061,0.737-0.19,1.088c-0.126,0.356-0.317,0.68-0.577,0.962
			c-0.252,0.282-0.577,0.504-0.968,0.672c-0.387,0.175-0.841,0.263-1.339,0.263C134.248,38.513,133.997,38.485,133.777,38.438z"/>
		<path fill="#FFFFFF" d="M146.931,37.063c0.118,0.327,0.253,0.591,0.414,0.791c0.161,0.202,0.354,0.355,0.592,0.475v0.198
			c-0.306-0.055-0.565-0.102-0.793-0.128c-0.229-0.021-0.438-0.033-0.633-0.033c-0.229,0-0.457,0.013-0.693,0.029
			c-0.231,0.025-0.504,0.058-0.833,0.121v-0.175c0-0.06,0.048-0.157,0.144-0.299c0.143-0.208,0.208-0.377,0.208-0.505
			c0-0.084-0.005-0.171-0.022-0.262c-0.021-0.101-0.04-0.169-0.054-0.195l-0.857-2.631c-0.472-0.043-0.885-0.068-1.247-0.068
			c-0.517,0-0.953,0.025-1.319,0.068l-0.979,2.85v0.016c-0.049,0.132-0.09,0.233-0.097,0.307c-0.026,0.067-0.026,0.152-0.026,0.246
			c0,0.188,0.066,0.356,0.194,0.498v0.15c-0.249-0.04-0.46-0.069-0.625-0.091c-0.176-0.013-0.337-0.026-0.488-0.026
			c-0.165,0-0.351,0.014-0.527,0.026c-0.192,0.021-0.435,0.054-0.73,0.102l0.144-0.198c0.28-0.104,0.516-0.267,0.711-0.475
			c0.19-0.208,0.362-0.497,0.498-0.854l2.653-7.232c0.014-0.033,0.017-0.092,0.017-0.177c0-0.244-0.074-0.495-0.226-0.747
			c-0.148-0.24-0.35-0.464-0.605-0.667l-0.047-0.146c0.571,0.055,1.101,0.087,1.564,0.087h0.478l0.541,1.491L146.931,37.063z
			 M144.156,33.768v-0.035l-0.979-2.899l-1.049,2.899v0.035c0.443,0.021,0.778,0.027,1.005,0.027
			C143.353,33.795,143.696,33.789,144.156,33.768z"/>
		<path fill="#FFFFFF" d="M151.714,28.075c0.465-0.037,0.801-0.052,1.022-0.052c0.262,0,0.567,0.052,0.91,0.146
			c0.341,0.093,0.624,0.219,0.849,0.372c0.404,0.271,0.703,0.622,0.902,1.042c0.2,0.426,0.301,0.854,0.301,1.291
			c0,0.463-0.116,0.919-0.36,1.375c-0.234,0.452-0.544,0.83-0.934,1.131c-0.279,0.23-0.599,0.373-0.952,0.443
			c-0.354,0.069-0.743,0.104-1.164,0.104c-0.134,0-0.281-0.014-0.438-0.035c-0.161-0.023-0.302-0.052-0.436-0.094
			c0,1.237,0.029,2.35,0.09,3.332c0.024,0.359,0.077,0.622,0.168,0.777c0.088,0.153,0.256,0.296,0.491,0.42v0.178
			c-0.339-0.03-0.625-0.057-0.837-0.067c-0.229-0.014-0.431-0.019-0.626-0.019c-0.447,0-0.944,0.029-1.493,0.086v-0.188
			c0.229-0.134,0.414-0.288,0.559-0.467c0.141-0.18,0.215-0.394,0.218-0.643c0.021-0.844,0.024-2.099,0.024-3.773
			c0-0.638-0.003-1.292-0.024-1.953c-0.013-0.668-0.033-1.312-0.063-1.933c-0.014-0.302-0.066-0.56-0.16-0.779
			c-0.091-0.213-0.266-0.396-0.529-0.547v-0.185c0.653,0.064,1.137,0.094,1.446,0.094C150.931,28.132,151.27,28.116,151.714,28.075z
			 M151.418,30.562c0,0.333-0.003,0.757-0.003,1.271v1.476c0.114,0,0.271,0.024,0.493,0.071c0.165,0.042,0.277,0.067,0.333,0.067
			c0.267-0.013,0.532-0.07,0.788-0.193c0.252-0.112,0.483-0.29,0.689-0.527c0.151-0.195,0.269-0.462,0.336-0.799
			c0.07-0.342,0.101-0.72,0.101-1.145c0-0.333-0.067-0.662-0.212-0.981c-0.147-0.318-0.326-0.563-0.541-0.732
			c-0.194-0.145-0.395-0.244-0.602-0.3c-0.209-0.053-0.435-0.08-0.681-0.08c-0.113,0-0.295,0.015-0.558,0.052h-0.033
			c-0.038,0.102-0.058,0.287-0.058,0.558c0,0.134-0.003,0.23-0.01,0.303C151.438,29.911,151.424,30.23,151.418,30.562z"/>
		<path fill="#FFFFFF" d="M158.316,38.391c-0.213,0.014-0.481,0.042-0.824,0.088c-0.043,0-0.103,0-0.179,0.011v-0.276
			c0.088-0.057,0.179-0.138,0.276-0.245c0.09-0.101,0.172-0.223,0.259-0.362c0.178-0.31,0.275-0.599,0.278-0.854
			c0.014-0.636,0.024-1.157,0.024-1.571s0-0.999,0-1.758c0-0.632-0.011-1.276-0.024-1.934c-0.014-0.659-0.036-1.296-0.065-1.914
			c-0.015-0.273-0.092-0.525-0.227-0.753c-0.128-0.23-0.343-0.422-0.625-0.583l-0.03-0.212l0.178,0.012
			c0.431,0.05,0.794,0.089,1.083,0.114c0.289,0.023,0.508,0.035,0.67,0.035c0.117,0,0.278-0.003,0.483-0.012
			c0.206-0.007,0.451-0.02,0.74-0.037c0.142-0.008,0.252-0.017,0.323-0.022c0.552-0.041,0.938-0.063,1.174-0.063
			c0.164,0,0.309,0,0.434,0.008c0.128,0,0.252,0.014,0.394,0.032c0.128,0.022,0.242,0.057,0.333,0.099
			c0.088,0.051,0.137,0.111,0.137,0.182c0,0.211,0.014,0.447,0.052,0.7c0.021,0.192,0.03,0.345,0.03,0.449
			c0,0.028-0.024,0.06-0.068,0.104c-0.05,0.044-0.117,0.062-0.209,0.062c-0.106,0-0.19-0.024-0.237-0.074
			c-0.05-0.049-0.092-0.124-0.128-0.211c-0.024-0.043-0.04-0.068-0.051-0.075c-0.111-0.202-0.296-0.357-0.538-0.464
			c-0.249-0.106-0.633-0.165-1.153-0.165c-0.155,0-0.424,0.018-0.805,0.052l-0.353,0.039c-0.024,0.089-0.041,0.269-0.047,0.538
			c-0.003,0.105-0.014,0.201-0.027,0.286c-0.027,0.463-0.037,1.207-0.037,2.223v0.888c0.531,0.018,0.922,0.027,1.167,0.027
			c0.227,0,0.392-0.009,0.501-0.016c0.239-0.005,0.441-0.056,0.599-0.144c0.162-0.085,0.326-0.275,0.497-0.566h0.466
			c-0.004,0.116-0.014,0.248-0.035,0.388c-0.022,0.273-0.04,0.515-0.04,0.725c0,0.227,0,0.382,0,0.468
			c0,0.089,0.008,0.263,0.021,0.53h-0.478c-0.111-0.24-0.26-0.404-0.447-0.495c-0.189-0.096-0.411-0.155-0.667-0.18
			c-0.336-0.032-0.867-0.048-1.584-0.048c0,0.582,0.004,1.113,0.021,1.58c0.015,0.472,0.041,1.05,0.066,1.743
			c0.008,0.214,0.065,0.383,0.175,0.521c0.108,0.138,0.243,0.245,0.412,0.319c0.168,0.067,0.346,0.127,0.527,0.148
			c0.192,0.026,0.383,0.035,0.605,0.035c0.318,0,0.581-0.022,0.786-0.073c0.212-0.05,0.418-0.168,0.612-0.353
			c0.118-0.095,0.27-0.282,0.471-0.549c0.151-0.192,0.27-0.336,0.357-0.423c0.097-0.091,0.181-0.142,0.271-0.142
			c0.088,0,0.164,0.026,0.22,0.069c0.063,0.047,0.091,0.085,0.091,0.108c0,0.104-0.078,0.303-0.236,0.612
			c-0.181,0.357-0.296,0.633-0.346,0.827l-0.011,0.027c-0.033,0.158-0.104,0.282-0.214,0.37c-0.099,0.091-0.314,0.141-0.64,0.141
			h-1.666c-0.46,0-0.87-0.006-1.224-0.017c-0.487,0-0.82,0-0.999,0C158.689,38.361,158.521,38.372,158.316,38.391z"/>
		<path fill="#FFFFFF" d="M166.801,31.943c-0.215-0.539-0.468-1.172-0.759-1.899l-0.189-0.461l-0.03-0.07
			c-0.127-0.321-0.245-0.575-0.373-0.771c-0.138-0.195-0.343-0.375-0.632-0.54l-0.03-0.175l0.319,0.038
			c0.528,0.052,0.892,0.074,1.104,0.074c0.262,0,0.706-0.021,1.339-0.063l0.08,0.163c-0.168,0.116-0.249,0.331-0.249,0.641
			c0,0.271,0.041,0.524,0.11,0.744c0.179,0.527,0.391,1.132,0.633,1.795c0.242,0.667,0.475,1.313,0.696,1.933
			c0.191,0.552,0.508,1.384,0.941,2.488l0.045,0.095c0.234-0.664,0.5-1.401,0.797-2.201c0.15-0.427,0.318-0.917,0.501-1.468
			c0.182-0.546,0.394-1.209,0.642-1.983c0.058-0.182,0.121-0.383,0.188-0.606c0.104-0.281,0.155-0.541,0.155-0.784
			c0-0.178-0.034-0.321-0.114-0.431c-0.074-0.105-0.215-0.185-0.418-0.237l0.075-0.196c0.574,0.063,1.016,0.101,1.318,0.101
			c0.147,0,0.396-0.011,0.742-0.039c0.3-0.023,0.539-0.042,0.707-0.05l-0.068,0.163c-0.248,0.114-0.46,0.296-0.639,0.544
			c-0.178,0.248-0.347,0.554-0.507,0.904c-0.172,0.412-0.347,0.848-0.516,1.301c-0.171,0.462-0.377,1.021-0.603,1.682
			c-0.12,0.346-0.211,0.597-0.269,0.756c-0.098,0.262-0.258,0.681-0.48,1.249c-0.235,0.601-0.461,1.188-0.673,1.754
			c-0.211,0.564-0.451,1.215-0.709,1.938c-0.018,0.033-0.047,0.07-0.108,0.11c-0.063,0.04-0.134,0.061-0.229,0.061
			c-0.087,0-0.165-0.021-0.229-0.074c-0.068-0.047-0.114-0.097-0.135-0.146c-0.121-0.344-0.27-0.754-0.453-1.22
			c-0.172-0.469-0.418-1.092-0.73-1.876c-0.172-0.423-0.303-0.753-0.404-1.003c-0.09-0.249-0.188-0.488-0.278-0.718
			C167.205,32.992,167.02,32.488,166.801,31.943z"/>
		<path fill="#FFFFFF" d="M181.805,28.424c0.606,0.275,1.119,0.65,1.538,1.131c0.413,0.483,0.732,1.035,0.943,1.663
			c0.216,0.633,0.324,1.301,0.324,2.021c0,0.737-0.125,1.429-0.37,2.076c-0.25,0.652-0.598,1.218-1.047,1.692
			c-0.442,0.478-0.964,0.844-1.557,1.103c-0.588,0.263-1.217,0.39-1.873,0.39c-0.666,0-1.295-0.134-1.881-0.409
			c-0.591-0.272-1.112-0.653-1.557-1.139c-0.446-0.489-0.801-1.048-1.046-1.691c-0.248-0.635-0.369-1.302-0.369-1.992
			c0-0.701,0.121-1.365,0.369-1.999c0.245-0.637,0.6-1.201,1.046-1.694c0.444-0.49,0.966-0.875,1.557-1.15
			c0.586-0.271,1.215-0.404,1.881-0.404C180.521,28.02,181.202,28.152,181.805,28.424z M178.459,29.045
			c-0.397,0.202-0.744,0.482-1.036,0.854c-0.295,0.362-0.521,0.808-0.68,1.325c-0.164,0.514-0.242,1.094-0.242,1.715
			c0,0.632,0.084,1.241,0.246,1.821c0.165,0.585,0.394,1.104,0.688,1.558c0.304,0.453,0.652,0.81,1.051,1.066
			c0.393,0.262,0.819,0.382,1.277,0.382c0.471,0,0.918-0.087,1.318-0.275c0.406-0.188,0.757-0.457,1.063-0.811
			c0.306-0.356,0.544-0.787,0.713-1.297c0.164-0.504,0.248-1.063,0.248-1.688c0-0.771-0.084-1.473-0.248-2.089
			c-0.169-0.614-0.407-1.136-0.713-1.563c-0.307-0.426-0.657-0.745-1.063-0.967c-0.4-0.217-0.848-0.328-1.318-0.328
			C179.289,28.749,178.858,28.847,178.459,29.045z"/>
		<path fill="#FFFFFF" d="M186.119,38.485l-0.017-0.215c0.095-0.047,0.179-0.128,0.272-0.235c0.091-0.11,0.172-0.239,0.25-0.39
			c0.077-0.155,0.141-0.31,0.191-0.464c0.047-0.158,0.074-0.3,0.074-0.431c0.013-0.63,0.017-1.156,0.017-1.571c0-0.414,0-1,0-1.761
			c0-0.635-0.004-1.279-0.017-1.943c-0.017-0.658-0.044-1.299-0.071-1.913c-0.014-0.311-0.063-0.581-0.151-0.812
			c-0.084-0.23-0.245-0.436-0.494-0.62v-0.149c0.344,0.029,0.623,0.057,0.824,0.073c0.201,0.021,0.396,0.029,0.582,0.029
			c0.148,0,0.391-0.02,0.727-0.043c0.285-0.021,0.504-0.041,0.655-0.046v0.147c-0.198,0.113-0.347,0.31-0.434,0.57
			c-0.092,0.263-0.145,0.559-0.165,0.886c-0.027,0.315-0.036,0.647-0.036,0.988c-0.011,0.342-0.011,0.777-0.011,1.303v1.49
			c0,0.596,0.011,1.125,0.02,1.6c0.021,0.475,0.04,1.061,0.071,1.765c0.016,0.417,0.145,0.702,0.388,0.861
			c0.228,0.15,0.551,0.229,0.964,0.229c0.266,0,0.548-0.048,0.834-0.138c0.283-0.091,0.528-0.232,0.744-0.428
			c0.131-0.107,0.282-0.323,0.468-0.652c0.109-0.192,0.204-0.337,0.288-0.435c0.074-0.095,0.161-0.142,0.26-0.142
			c0.124,0,0.194,0.028,0.234,0.075c0.038,0.053,0.058,0.097,0.058,0.15c0,0.068-0.016,0.152-0.05,0.267
			c-0.038,0.104-0.091,0.258-0.172,0.461c-0.151,0.373-0.249,0.652-0.292,0.841c-0.031,0.123-0.099,0.245-0.191,0.362
			c-0.105,0.118-0.253,0.182-0.445,0.188c-0.026,0-0.175,0.01-0.438,0.027c-0.443,0.034-0.775,0.048-0.998,0.048
			c-0.26,0-0.491-0.008-0.676-0.011c-0.192-0.011-0.435-0.024-0.723-0.037c-0.444-0.027-0.795-0.04-1.06-0.04
			C187.331,38.372,186.839,38.412,186.119,38.485z"/>
		<path fill="#FFFFFF" d="M194.808,38.391c-0.205,0.014-0.475,0.042-0.817,0.088c-0.037,0-0.102,0-0.179,0.011v-0.276
			c0.089-0.057,0.179-0.138,0.266-0.245c0.098-0.101,0.183-0.223,0.27-0.362c0.179-0.31,0.275-0.599,0.279-0.854
			c0.009-0.636,0.024-1.157,0.024-1.571s0-0.999,0-1.758c0-0.632-0.016-1.279-0.024-1.938c-0.01-0.657-0.037-1.295-0.067-1.909
			c-0.017-0.275-0.091-0.532-0.223-0.762c-0.134-0.228-0.346-0.42-0.625-0.577l-0.033-0.212l0.179,0.015
			c0.431,0.046,0.794,0.084,1.078,0.109c0.286,0.021,0.515,0.037,0.673,0.037c0.122,0,0.28-0.004,0.484-0.016
			c0.202-0.008,0.454-0.017,0.74-0.037c0.141-0.007,0.253-0.014,0.323-0.022c0.555-0.045,0.948-0.063,1.175-0.063
			c0.164,0,0.308,0.004,0.433,0.008c0.127,0.001,0.256,0.017,0.396,0.036c0.128,0.02,0.242,0.058,0.33,0.103
			c0.091,0.043,0.134,0.105,0.134,0.179c0,0.207,0.018,0.441,0.055,0.698c0.022,0.197,0.036,0.34,0.036,0.452
			c0,0.024-0.022,0.06-0.076,0.101c-0.045,0.042-0.112,0.063-0.206,0.063c-0.107,0-0.195-0.024-0.239-0.076
			c-0.047-0.046-0.091-0.121-0.127-0.209c-0.02-0.043-0.033-0.071-0.047-0.081c-0.115-0.196-0.297-0.35-0.542-0.458
			c-0.248-0.109-0.632-0.163-1.153-0.163c-0.154,0-0.424,0.016-0.801,0.048l-0.356,0.042c-0.02,0.087-0.041,0.269-0.044,0.531
			c-0.01,0.111-0.017,0.205-0.022,0.29c-0.03,0.469-0.048,1.209-0.048,2.225v0.892c0.538,0.016,0.933,0.023,1.177,0.023
			c0.219,0,0.384-0.006,0.498-0.012c0.243-0.01,0.435-0.056,0.6-0.145c0.158-0.089,0.325-0.274,0.497-0.568h0.464
			c-0.007,0.116-0.018,0.245-0.026,0.391c-0.04,0.27-0.051,0.515-0.051,0.721c0,0.226,0,0.386,0,0.47
			c0,0.087,0.011,0.265,0.022,0.531h-0.479c-0.112-0.243-0.26-0.414-0.449-0.503c-0.181-0.087-0.409-0.148-0.665-0.171
			c-0.34-0.037-0.864-0.052-1.588-0.052c0,0.586,0.007,1.108,0.021,1.584c0.016,0.468,0.039,1.05,0.073,1.743
			c0.003,0.214,0.057,0.383,0.171,0.521c0.107,0.138,0.242,0.245,0.41,0.319c0.169,0.067,0.348,0.127,0.528,0.148
			c0.191,0.026,0.39,0.035,0.605,0.035c0.323,0,0.581-0.022,0.79-0.073c0.212-0.05,0.414-0.168,0.616-0.353
			c0.114-0.095,0.268-0.282,0.468-0.552c0.146-0.192,0.269-0.333,0.352-0.42c0.091-0.091,0.186-0.142,0.27-0.142
			c0.095,0,0.168,0.023,0.229,0.069c0.062,0.047,0.085,0.085,0.085,0.108c0,0.102-0.078,0.303-0.236,0.612
			c-0.182,0.357-0.296,0.633-0.347,0.827l-0.006,0.021c-0.04,0.165-0.111,0.289-0.213,0.377c-0.103,0.091-0.321,0.141-0.647,0.141
			h-1.662c-0.461,0-0.864-0.006-1.231-0.017c-0.474,0-0.81,0-0.988,0C195.19,38.361,195.016,38.372,194.808,38.391z"/>
		<path fill="#FFFFFF" d="M205.103,38.449c-0.41,0.014-0.779,0.029-1.109,0.029c-0.323,0.007-0.854,0.007-1.595,0.007h-0.021
			c-0.039,0.008-0.08,0.014-0.105,0.014c-0.085,0-0.151-0.014-0.209-0.047c-0.059-0.027-0.084-0.08-0.084-0.161
			c0,0,0.047-0.095,0.142-0.229c0.09-0.127,0.335-0.456,0.729-1.003c0.518-0.712,0.93-1.275,1.219-1.676
			c0.295-0.403,0.661-0.911,1.099-1.514c0.441-0.599,0.962-1.314,1.561-2.143s1.296-1.802,2.099-2.922
			c-0.222-0.015-0.446-0.027-0.665-0.027c-0.229,0-0.502,0-0.839,0h-0.702c-0.776,0-1.398,0.035-1.884,0.107
			c-0.486,0.073-0.854,0.177-1.106,0.32c-0.106,0.07-0.186,0.146-0.234,0.228c-0.064,0.08-0.112,0.186-0.159,0.313
			c-0.04,0.116-0.083,0.202-0.124,0.248c-0.037,0.051-0.104,0.076-0.185,0.076c-0.099,0-0.175-0.035-0.232-0.118
			c-0.051-0.079-0.08-0.14-0.08-0.178c0-0.121,0.019-0.301,0.054-0.555c0.047-0.334,0.069-0.604,0.069-0.802
			c0-0.128,0.048-0.225,0.146-0.29c0.09-0.065,0.278-0.101,0.558-0.101c0.214,0,0.427,0.003,0.642,0.007
			c0.21,0.005,0.646,0.013,1.306,0.031c0.427,0.011,0.753,0.017,0.982,0.02c0.234,0,0.427,0.006,0.581,0.006
			c0.216,0,0.864,0,1.943,0.013c1.201,0.016,1.82,0.024,1.854,0.024c0.102,0,0.183,0.023,0.242,0.061
			c0.061,0.046,0.087,0.086,0.087,0.128c0,0.015-0.019,0.056-0.04,0.111l-0.013,0.025l-6.643,9.032l-0.004,0.02
			c-0.006,0.021-0.017,0.044-0.017,0.08c0,0.062,0.061,0.112,0.175,0.139c0.121,0.022,0.323,0.033,0.629,0.033
			c0.129,0,0.377,0,0.75-0.011l0.299-0.006c0.044,0,0.104-0.007,0.179-0.017c0.316-0.01,0.628-0.026,0.949-0.044
			c0.319-0.021,0.662-0.054,1.032-0.101c0.367-0.041,0.716-0.114,1.04-0.202c0.318-0.087,0.563-0.191,0.729-0.317
			c0.124-0.093,0.277-0.244,0.456-0.442c0.112-0.121,0.203-0.216,0.27-0.266c0.064-0.059,0.139-0.085,0.223-0.085
			c0.094,0,0.171,0.026,0.228,0.068c0.055,0.047,0.084,0.084,0.084,0.107c0,0.094-0.084,0.278-0.245,0.555
			c-0.107,0.165-0.188,0.313-0.252,0.435c-0.06,0.128-0.111,0.258-0.138,0.394c-0.013,0.056-0.04,0.124-0.078,0.19
			c-0.029,0.075-0.084,0.146-0.157,0.216c-0.077,0.08-0.172,0.145-0.299,0.194c-0.121,0.054-0.27,0.074-0.442,0.074
			c-0.13,0-0.712-0.014-1.748-0.039c-0.171-0.008-0.475-0.014-0.911-0.021c-0.443-0.014-0.729-0.014-0.875-0.014
			C205.907,38.429,205.526,38.446,205.103,38.449z"/>
		<path fill="#FFFFFF" d="M215.781,38.438c-0.411,0.014-0.78,0.024-1.109,0.026c-0.324,0.011-0.854,0.011-1.595,0.011h-0.021
			c-0.04,0.006-0.08,0.01-0.115,0.01c-0.083,0-0.146-0.01-0.204-0.039c-0.055-0.03-0.085-0.088-0.085-0.168
			c0-0.021,0.051-0.095,0.143-0.223c0.091-0.131,0.336-0.468,0.729-1.01c0.521-0.712,0.928-1.267,1.221-1.671
			c0.296-0.408,0.659-0.913,1.104-1.51c0.438-0.605,0.955-1.316,1.55-2.146c0.602-0.825,1.305-1.8,2.109-2.922
			c-0.227-0.01-0.454-0.02-0.673-0.02c-0.223,0-0.501,0-0.835,0h-0.709c-0.768,0-1.396,0.035-1.88,0.102
			c-0.487,0.074-0.855,0.183-1.104,0.32c-0.104,0.067-0.185,0.146-0.245,0.23c-0.051,0.083-0.102,0.185-0.149,0.312
			c-0.042,0.118-0.083,0.2-0.124,0.247c-0.04,0.053-0.1,0.079-0.188,0.079c-0.098,0-0.172-0.038-0.226-0.12
			c-0.058-0.078-0.088-0.14-0.088-0.181c0-0.117,0.021-0.303,0.058-0.557c0.047-0.331,0.063-0.595,0.063-0.796
			c0-0.129,0.054-0.222,0.148-0.289c0.091-0.07,0.286-0.099,0.559-0.099c0.216,0,0.431,0,0.639,0.003
			c0.216,0.009,0.649,0.012,1.314,0.032c0.421,0.014,0.751,0.014,0.979,0.02c0.227,0.003,0.427,0.003,0.582,0.003
			c0.218,0,0.864,0.006,1.938,0.017c1.207,0.016,1.826,0.024,1.855,0.024c0.102,0,0.186,0.022,0.246,0.063
			c0.057,0.044,0.084,0.082,0.084,0.123c0,0.02-0.01,0.056-0.041,0.113l-0.01,0.028l-6.645,9.025l-0.004,0.019
			c-0.014,0.015-0.014,0.041-0.014,0.082c0,0.061,0.058,0.107,0.175,0.127c0.117,0.034,0.322,0.04,0.633,0.04
			c0.124,0,0.373,0,0.742-0.006l0.303-0.017c0.044,0,0.104-0.004,0.178-0.018c0.317,0,0.633-0.02,0.949-0.04
			c0.322-0.02,0.666-0.051,1.029-0.1c0.37-0.045,0.716-0.112,1.039-0.199c0.323-0.091,0.569-0.191,0.729-0.32
			c0.132-0.091,0.279-0.239,0.459-0.44c0.114-0.124,0.201-0.215,0.265-0.27c0.067-0.053,0.145-0.08,0.226-0.08
			c0.094,0,0.172,0.021,0.229,0.067c0.054,0.045,0.085,0.085,0.085,0.11c0,0.091-0.085,0.27-0.25,0.552
			c-0.097,0.165-0.185,0.311-0.249,0.438c-0.061,0.121-0.107,0.256-0.141,0.391c-0.011,0.054-0.034,0.121-0.067,0.188
			c-0.034,0.078-0.088,0.148-0.161,0.223c-0.077,0.073-0.176,0.138-0.296,0.192c-0.125,0.044-0.273,0.069-0.445,0.069
			c-0.13,0-0.716-0.01-1.748-0.036c-0.174-0.003-0.478-0.021-0.915-0.024c-0.438-0.005-0.729-0.009-0.871-0.009
			C216.589,38.42,216.198,38.425,215.781,38.438z"/>
		<path fill="#FFFFFF" d="M231.505,37.054c0.11,0.322,0.245,0.585,0.406,0.78c0.158,0.201,0.356,0.36,0.599,0.477v0.202
			c-0.306-0.063-0.571-0.101-0.804-0.128c-0.226-0.023-0.434-0.037-0.626-0.037c-0.234,0-0.464,0.011-0.696,0.03
			c-0.231,0.021-0.51,0.061-0.83,0.118v-0.171c0-0.062,0.044-0.156,0.138-0.3c0.144-0.208,0.215-0.38,0.215-0.501
			c0-0.081-0.006-0.175-0.023-0.266c-0.023-0.098-0.044-0.165-0.054-0.196l-0.86-2.619c-0.465-0.042-0.885-0.063-1.245-0.063
			c-0.515,0-0.951,0.021-1.321,0.063l-0.979,2.846v0.01c-0.052,0.132-0.085,0.238-0.102,0.307c-0.017,0.073-0.027,0.15-0.027,0.241
			c0,0.195,0.07,0.357,0.209,0.501v0.148c-0.256-0.044-0.468-0.071-0.639-0.084c-0.169-0.018-0.333-0.027-0.479-0.027
			c-0.172,0-0.353,0.01-0.534,0.027c-0.189,0.013-0.431,0.048-0.73,0.101l0.146-0.202c0.271-0.106,0.514-0.269,0.712-0.477
			c0.195-0.206,0.36-0.492,0.497-0.849l2.655-7.209c0.013-0.031,0.021-0.088,0.021-0.175c0-0.245-0.08-0.498-0.23-0.737
			c-0.151-0.249-0.357-0.472-0.609-0.672l-0.04-0.151c0.572,0.062,1.09,0.091,1.561,0.091h0.478l0.531,1.482L231.505,37.054z
			 M228.727,33.768v-0.035l-0.981-2.894l-1.051,2.894v0.035c0.448,0.017,0.784,0.023,1.007,0.023
			C227.926,33.791,228.262,33.784,228.727,33.768z"/>
		<path fill="#FFFFFF" d="M92.817,44.573c0.609,0.272,1.131,0.657,1.561,1.144c0.423,0.478,0.751,1.036,0.97,1.655
			c0.219,0.626,0.329,1.271,0.329,1.949c0,0.553-0.077,1.077-0.228,1.581c-0.146,0.505-0.354,0.964-0.634,1.366
			c-0.274,0.417-0.603,0.773-0.98,1.076c-0.38,0.304-0.802,0.538-1.262,0.72c0.483,0.175,1.169,0.444,2.055,0.821
			c1.145,0.49,2.101,0.854,2.861,1.089c0.769,0.242,1.563,0.364,2.38,0.364c0.328,0,0.626-0.048,0.895-0.149
			c0.262-0.095,0.539-0.269,0.815-0.511c0.007-0.007,0.05-0.026,0.113-0.053c0.066-0.028,0.124-0.048,0.173-0.048
			c0.082,0,0.163,0.027,0.246,0.074l0.011,0.02c0,0-0.017,0.021-0.045,0.061c-0.025,0.034-0.078,0.088-0.157,0.155
			c-0.435,0.424-0.959,0.767-1.55,1.021c-0.604,0.256-1.202,0.384-1.805,0.384c-0.89,0-1.714-0.147-2.489-0.457
			c-0.773-0.303-1.636-0.741-2.591-1.304c-0.595-0.351-1.102-0.62-1.524-0.808c-0.421-0.182-0.877-0.297-1.353-0.331
			c-0.666-0.04-1.296-0.188-1.883-0.437c-0.587-0.242-1.104-0.586-1.546-1.016c-0.443-0.431-0.786-0.948-1.036-1.547
			c-0.248-0.599-0.375-1.251-0.375-1.965c0-0.686,0.131-1.351,0.393-1.984c0.256-0.646,0.623-1.21,1.097-1.708
			c0.463-0.491,1.003-0.875,1.607-1.164c0.604-0.276,1.241-0.417,1.902-0.417C91.527,44.156,92.21,44.297,92.817,44.573z
			 M87.621,50.93c0.171,0.56,0.415,1.043,0.729,1.453c0.32,0.417,0.689,0.733,1.117,0.962c0.429,0.223,0.891,0.343,1.387,0.343
			c0.991,0,1.781-0.376,2.373-1.123c0.588-0.746,0.886-1.775,0.886-3.08c0-0.74-0.086-1.4-0.265-1.979
			c-0.171-0.578-0.42-1.056-0.73-1.449c-0.307-0.388-0.67-0.68-1.072-0.874c-0.41-0.195-0.839-0.293-1.303-0.293
			c-0.504,0-0.968,0.098-1.383,0.299c-0.414,0.198-0.773,0.488-1.068,0.857c-0.3,0.384-0.527,0.828-0.686,1.346
			c-0.164,0.519-0.244,1.09-0.244,1.722C87.362,49.767,87.446,50.371,87.621,50.93z"/>
		<path fill="#FFFFFF" d="M100.021,54.326c-0.371-0.066-0.723-0.2-1.06-0.403c-0.335-0.208-0.608-0.518-0.826-0.942
			c-0.215-0.416-0.323-0.947-0.333-1.607l-0.014-0.854c-0.013-0.519-0.022-0.86-0.022-1.035c0-0.229,0.01-0.667,0.022-1.299
			c0.003-0.578,0.014-1.042,0.014-1.386c0-0.263-0.014-0.632-0.024-1.1c-0.014-0.299-0.063-0.562-0.146-0.783
			c-0.085-0.223-0.258-0.424-0.504-0.603v-0.146c0.353,0.034,0.626,0.061,0.827,0.075c0.197,0.014,0.398,0.023,0.581,0.023
			c0.15,0,0.395-0.014,0.729-0.038c0.291-0.026,0.51-0.043,0.655-0.049v0.144c-0.198,0.111-0.347,0.3-0.437,0.556
			c-0.086,0.259-0.142,0.541-0.167,0.857c-0.018,0.309-0.035,0.625-0.039,0.962c-0.004,0.33-0.004,0.753-0.004,1.264v1.453
			c0,0.243,0,0.485,0.004,0.733c0.004,0.249,0.014,0.585,0.031,1.002c0.013,0.565,0.075,1.016,0.191,1.359
			c0.108,0.35,0.256,0.605,0.43,0.78c0.18,0.175,0.381,0.289,0.599,0.35c0.222,0.047,0.481,0.081,0.784,0.081
			c0.419,0,0.761-0.034,1.025-0.095c0.259-0.067,0.484-0.194,0.668-0.391c0.177-0.194,0.326-0.476,0.423-0.867
			c0.102-0.376,0.162-0.88,0.172-1.506c0.007-0.229,0.016-0.505,0.016-0.827V49.45c0-0.107,0-0.472,0.011-1.097
			c0-0.416,0-0.807,0-1.157c0-0.666-0.011-1.169-0.026-1.496c-0.01-0.38-0.066-0.662-0.151-0.848
			c-0.084-0.182-0.269-0.356-0.561-0.528v-0.144c0.189,0.006,0.408,0.022,0.646,0.049c0.206,0.018,0.341,0.024,0.414,0.024
			c0.137,0,0.38-0.01,0.714-0.038c0.291-0.026,0.511-0.043,0.676-0.047v0.146c-0.224,0.132-0.383,0.289-0.467,0.481
			c-0.08,0.191-0.129,0.497-0.146,0.928c-0.018,0.519-0.033,1.056-0.033,1.628c-0.005,0.571-0.009,1.258-0.009,2.052
			c0,0.061,0,0.242,0,0.517c-0.009,0.297-0.009,0.479-0.009,0.546c0,0.875-0.089,1.595-0.265,2.126
			c-0.177,0.538-0.417,0.941-0.722,1.203c-0.312,0.256-0.664,0.431-1.057,0.512c-0.397,0.08-0.872,0.121-1.431,0.121
			C100.787,54.428,100.391,54.394,100.021,54.326z"/>
		<path fill="#FFFFFF" d="M113.877,44.566c0.61,0.27,1.119,0.632,1.538,1.103c0.415,0.465,0.727,1.017,0.949,1.622
			c0.215,0.619,0.324,1.278,0.324,1.979c0,0.72-0.128,1.398-0.373,2.03c-0.253,0.632-0.6,1.184-1.048,1.647
			c-0.443,0.464-0.965,0.821-1.555,1.077c-0.592,0.255-1.219,0.383-1.882,0.383c-0.658,0-1.287-0.134-1.877-0.403
			c-0.592-0.269-1.112-0.64-1.557-1.109c-0.446-0.478-0.791-1.022-1.041-1.655c-0.255-0.618-0.378-1.265-0.378-1.944
			c0-0.679,0.123-1.332,0.378-1.95c0.25-0.619,0.595-1.177,1.041-1.65c0.444-0.485,0.965-0.858,1.557-1.128
			c0.59-0.266,1.219-0.397,1.877-0.397C112.589,44.169,113.273,44.301,113.877,44.566z M110.535,45.173
			c-0.4,0.194-0.747,0.47-1.039,0.825c-0.291,0.364-0.521,0.802-0.684,1.307c-0.155,0.504-0.234,1.063-0.234,1.674
			c0,0.619,0.08,1.205,0.245,1.77c0.158,0.572,0.394,1.083,0.691,1.526c0.299,0.445,0.643,0.794,1.039,1.044
			c0.396,0.249,0.828,0.369,1.277,0.369c0.479,0,0.921-0.087,1.324-0.276c0.407-0.175,0.761-0.436,1.063-0.786
			c0.309-0.351,0.544-0.767,0.712-1.259c0.169-0.489,0.251-1.041,0.251-1.646c0-0.761-0.082-1.439-0.251-2.039
			c-0.168-0.605-0.403-1.116-0.712-1.533c-0.302-0.414-0.655-0.727-1.063-0.942c-0.403-0.218-0.846-0.321-1.324-0.321
			C111.364,44.884,110.935,44.983,110.535,45.173z"/>
		<path fill="#FFFFFF" d="M125.864,44.987c-0.179,0.396-0.287,0.68-0.324,0.857c-0.009,0.048-0.057,0.088-0.139,0.124
			c-0.086,0.041-0.153,0.055-0.204,0.055c-0.105,0-0.178-0.038-0.215-0.108c-0.039-0.07-0.063-0.178-0.079-0.312
			c-0.011-0.071-0.013-0.118-0.013-0.118c-0.033-0.128-0.076-0.207-0.137-0.259c-0.063-0.054-0.137-0.088-0.205-0.088
			c-0.179-0.018-0.467-0.018-0.848-0.018h-0.88l-0.057,0.781c-0.039,0.527-0.059,1.18-0.059,1.98c0,0.262,0.005,0.558,0.01,0.874
			c0,0.451,0,0.714,0,0.788c0,1.109,0.028,2.3,0.09,3.564c0.021,0.545,0.241,0.929,0.66,1.144v0.175
			c-0.353-0.034-0.635-0.054-0.846-0.074c-0.213-0.013-0.412-0.013-0.615-0.013c-0.188,0-0.386,0-0.587,0.013
			c-0.208,0.021-0.467,0.04-0.775,0.074v-0.175c0.203-0.115,0.355-0.249,0.468-0.423c0.115-0.176,0.172-0.391,0.178-0.653
			c0.017-0.794,0.023-1.998,0.023-3.6c0-0.84,0-1.546,0-2.118c0-0.565-0.007-1.144-0.023-1.739l-0.01-0.599
			c-0.387,0-0.731,0.018-1.04,0.034c-0.303,0.027-0.603,0.075-0.898,0.148c-0.093,0.022-0.2,0.069-0.32,0.131
			c-0.121,0.063-0.257,0.155-0.387,0.275c-0.009,0.01-0.041,0.036-0.076,0.075c-0.087,0.08-0.162,0.14-0.239,0.191
			c-0.069,0.047-0.157,0.069-0.252,0.069c-0.066,0-0.135-0.013-0.201-0.053c-0.067-0.034-0.1-0.061-0.1-0.078
			c0.007-0.06,0.074-0.195,0.2-0.383c0.134-0.202,0.224-0.357,0.266-0.461c0.011-0.02,0.037-0.084,0.081-0.179
			c0.129-0.256,0.206-0.47,0.245-0.639h0.468c0.072,0.084,0.144,0.147,0.202,0.169c0.055,0.023,0.161,0.036,0.311,0.049
			c0.612,0,1.52,0.007,2.731,0.007c0.404,0,1.034-0.01,1.89-0.047c0.303-0.007,0.609-0.009,0.923-0.02
			c0.118-0.011,0.28-0.054,0.482-0.138c0.095-0.037,0.168-0.064,0.224-0.077h0.377C126.141,44.349,126.039,44.614,125.864,44.987z"
			/>
		<path fill="#FFFFFF" d="M128.88,54.334c-0.204,0.02-0.46,0.04-0.776,0.066v-0.168c0.199-0.114,0.36-0.255,0.468-0.438
			c0.114-0.175,0.175-0.39,0.185-0.652c0.011-0.807,0.02-2.031,0.02-3.653c0-0.611-0.009-1.243-0.02-1.896
			c-0.023-0.639-0.04-1.265-0.07-1.87c-0.017-0.296-0.061-0.562-0.148-0.788c-0.073-0.221-0.241-0.416-0.486-0.601v-0.148
			c0.342,0.033,0.615,0.061,0.812,0.077c0.2,0.018,0.395,0.024,0.587,0.024c0.133,0,0.373-0.014,0.71-0.034
			c0.289-0.024,0.514-0.044,0.679-0.051v0.146c-0.208,0.11-0.357,0.299-0.447,0.555c-0.088,0.259-0.141,0.544-0.166,0.864
			c-0.022,0.31-0.036,0.629-0.036,0.958c-0.01,0.343-0.01,0.761-0.01,1.272v1.452c0,1.13,0.033,2.335,0.091,3.618
			c0.023,0.559,0.242,0.942,0.658,1.164V54.4c-0.349-0.026-0.628-0.047-0.839-0.066c-0.212-0.014-0.421-0.014-0.623-0.014
			C129.281,54.32,129.085,54.32,128.88,54.334z"/>
		<path fill="#FFFFFF" d="M139.619,44.503c0.605,0.219,1.141,0.538,1.595,0.951c0.457,0.424,0.813,0.922,1.068,1.494
			c0.26,0.571,0.385,1.196,0.385,1.863c0,0.786-0.129,1.527-0.395,2.206c-0.256,0.686-0.632,1.284-1.122,1.795
			c-0.488,0.511-1.073,0.916-1.76,1.191c-0.676,0.283-1.422,0.431-2.243,0.438c-0.252,0-0.669-0.021-1.248-0.06
			c-0.544-0.041-0.945-0.062-1.204-0.062c-0.212,0-0.447,0.006-0.713,0.014c-0.263,0.02-0.545,0.04-0.827,0.073v-0.182
			c0.209-0.12,0.4-0.295,0.568-0.538c0.171-0.241,0.259-0.49,0.266-0.746c0.008-0.411,0.014-0.988,0.014-1.735v-1.742
			c0-0.619-0.01-1.258-0.023-1.903c-0.017-0.646-0.034-1.271-0.067-1.88c-0.027-0.485-0.319-0.937-0.895-1.349v-0.135
			c0.292,0.032,0.585,0.057,0.888,0.07s0.562,0.022,0.764,0.022c0.229,0,0.435-0.002,0.632-0.009
			c0.195-0.01,0.438-0.023,0.719-0.052c0.334-0.014,0.624-0.032,0.853-0.043c0.235-0.014,0.51-0.018,0.834-0.018
			C138.379,44.169,139.015,44.281,139.619,44.503z M136.223,44.919c-0.381,0.028-0.615,0.068-0.717,0.133
			c-0.013,0.121-0.026,0.288-0.033,0.49c-0.004,0.077-0.01,0.135-0.01,0.175c-0.021,0.316-0.034,0.64-0.038,0.969
			c-0.004,0.336-0.006,0.767-0.006,1.277v1.467c0,1.137,0.027,2.349,0.087,3.633c0,0.013,0,0.061,0.01,0.114c0,0.04,0,0.081,0,0.121
			c0.175,0.148,0.428,0.248,0.76,0.303c0.337,0.048,0.808,0.08,1.431,0.08c0.45,0,0.889-0.113,1.298-0.336
			c0.413-0.215,0.776-0.532,1.094-0.928c0.315-0.404,0.564-0.876,0.735-1.413c0.175-0.538,0.263-1.116,0.263-1.722
			c0-0.633-0.09-1.251-0.272-1.87c-0.185-0.619-0.428-1.116-0.732-1.487c-0.317-0.38-0.674-0.643-1.069-0.804
			c-0.391-0.157-0.835-0.237-1.315-0.237C137.104,44.884,136.612,44.896,136.223,44.919z"/>
		<path fill="#FFFFFF" d="M145.071,54.341c-0.202,0.013-0.461,0.041-0.77,0.066v-0.168c0.197-0.113,0.353-0.256,0.464-0.438
			c0.113-0.175,0.172-0.391,0.179-0.652c0.013-0.813,0.026-2.038,0.026-3.665c0-0.612-0.014-1.245-0.026-1.891
			c-0.011-0.646-0.037-1.271-0.065-1.877c-0.02-0.306-0.063-0.562-0.144-0.79c-0.084-0.222-0.249-0.424-0.488-0.605v-0.148
			c0.334,0.034,0.609,0.061,0.811,0.074c0.202,0.017,0.391,0.027,0.575,0.027c0.145,0,0.381-0.015,0.718-0.041
			c0.292-0.023,0.514-0.036,0.682-0.047v0.148c-0.209,0.111-0.36,0.297-0.448,0.555c-0.091,0.259-0.146,0.545-0.168,0.864
			c-0.022,0.31-0.033,0.635-0.039,0.972c0,0.33-0.008,0.761-0.008,1.272v1.452c0,1.13,0.029,2.341,0.091,3.625
			c0.023,0.56,0.246,0.942,0.662,1.164v0.168c-0.352-0.025-0.632-0.054-0.847-0.066c-0.212-0.007-0.414-0.015-0.615-0.015
			C145.475,54.326,145.273,54.334,145.071,54.341z"/>
		<path fill="#FFFFFF" d="M157.388,52.976c0.104,0.315,0.242,0.57,0.404,0.76c0.164,0.201,0.359,0.356,0.591,0.471V54.4
			c-0.299-0.06-0.568-0.094-0.793-0.121c-0.226-0.026-0.438-0.04-0.63-0.04c-0.229,0-0.465,0.014-0.692,0.034
			c-0.231,0.021-0.51,0.053-0.835,0.113v-0.161c0-0.066,0.045-0.161,0.146-0.303c0.135-0.201,0.209-0.369,0.209-0.49
			c0-0.081-0.008-0.161-0.023-0.256c-0.021-0.102-0.041-0.161-0.054-0.196l-0.858-2.562c-0.471-0.04-0.884-0.061-1.248-0.061
			c-0.514,0-0.955,0.021-1.318,0.061l-0.982,2.784v0.014c-0.053,0.128-0.087,0.229-0.1,0.296c-0.014,0.067-0.021,0.154-0.021,0.242
			c0,0.188,0.064,0.351,0.202,0.484v0.147c-0.254-0.04-0.472-0.066-0.64-0.08c-0.171-0.02-0.33-0.027-0.48-0.027
			c-0.168,0-0.347,0.008-0.532,0.027c-0.185,0.014-0.427,0.047-0.727,0.094l0.146-0.194c0.274-0.107,0.512-0.263,0.709-0.471
			c0.198-0.195,0.36-0.472,0.491-0.828l2.66-7.052c0.018-0.034,0.018-0.088,0.018-0.175c0-0.242-0.068-0.485-0.222-0.72
			c-0.159-0.246-0.36-0.461-0.61-0.66l-0.053-0.145c0.582,0.06,1.104,0.088,1.574,0.088h0.474l0.534,1.45L157.388,52.976z
			 M154.606,49.759V49.72l-0.982-2.826l-1.05,2.826v0.039c0.451,0.021,0.784,0.027,1.003,0.027
			C153.806,49.786,154.143,49.78,154.606,49.759z"/>
		<path fill="#FFFFFF" d="M167.559,44.297c0.158,0.024,0.262,0.038,0.313,0.038c0.142,0,0.376-0.014,0.716-0.038
			c0.289-0.025,0.512-0.039,0.67-0.05v0.147c-0.205,0.112-0.347,0.3-0.438,0.553c-0.087,0.251-0.145,0.538-0.167,0.851
			c-0.024,0.313-0.037,0.632-0.041,0.968c0,0.33,0,0.747,0,1.259v1.446c0,0.302-0.007,0.733-0.014,1.298
			c-0.011,0.772-0.011,1.305-0.011,1.601c0,0.646,0.004,1.111,0.024,1.373l0.004,0.133c0.006,0.163,0.013,0.277,0.013,0.331
			c0,0.147-0.017,0.249-0.064,0.309c-0.05,0.062-0.127,0.094-0.259,0.094c-0.077,0-0.158-0.04-0.249-0.12
			c-0.094-0.074-0.175-0.162-0.242-0.256l-5.778-7.258v0.854v1.643c0,1.129,0.03,2.326,0.087,3.592
			c0.027,0.564,0.246,0.948,0.66,1.163v0.161c-0.339-0.033-0.618-0.053-0.841-0.066c-0.219-0.014-0.428-0.014-0.622-0.014
			c-0.113,0-0.229,0-0.33,0.006c-0.104,0.008-0.319,0.028-0.649,0.062v-0.168c0.194-0.107,0.347-0.249,0.458-0.431
			c0.111-0.175,0.171-0.39,0.178-0.646c0.014-0.808,0.023-2.019,0.023-3.633c0-0.263,0-0.672,0.007-1.23
			c0.011-0.572,0.018-1.01,0.018-1.292c0-0.564-0.01-0.978-0.024-1.251v-0.081c-0.023-0.266-0.084-0.504-0.178-0.716
			c-0.098-0.208-0.262-0.403-0.491-0.582l-0.057-0.172c0.037,0,0.09,0.008,0.157,0.014c0.334,0.043,0.593,0.067,0.775,0.081
			c0.181,0.007,0.365,0.021,0.56,0.029l5.807,7.453v-0.76v-1.506c0-0.612-0.011-1.245-0.023-1.885
			c-0.015-0.638-0.037-1.258-0.067-1.856v-0.02c-0.017-0.32-0.058-0.585-0.125-0.797c-0.067-0.208-0.219-0.4-0.457-0.572v-0.157
			C167.101,44.216,167.318,44.247,167.559,44.297z"/>
		<path fill="#FFFFFF" d="M178.885,53.002c0.119,0.316,0.256,0.573,0.411,0.767c0.166,0.195,0.359,0.35,0.604,0.464v0.195
			c-0.311-0.054-0.576-0.102-0.802-0.121c-0.226-0.027-0.434-0.041-0.629-0.041c-0.232,0-0.46,0.014-0.693,0.034
			c-0.231,0.021-0.508,0.054-0.833,0.114v-0.175c0-0.047,0.047-0.147,0.141-0.289c0.142-0.202,0.22-0.363,0.22-0.484
			c0-0.087-0.011-0.168-0.031-0.269c-0.021-0.088-0.038-0.155-0.053-0.188l-0.854-2.563c-0.472-0.04-0.886-0.061-1.256-0.061
			c-0.512,0-0.955,0.021-1.312,0.061l-0.981,2.785v0.014c-0.055,0.127-0.095,0.222-0.102,0.296
			c-0.017,0.074-0.027,0.147-0.027,0.235c0,0.188,0.068,0.351,0.202,0.49v0.148c-0.259-0.04-0.464-0.067-0.632-0.088
			c-0.176-0.014-0.337-0.02-0.484-0.02c-0.172,0-0.344,0.006-0.534,0.02c-0.183,0.021-0.425,0.048-0.72,0.102l0.141-0.195
			c0.279-0.106,0.511-0.263,0.713-0.464c0.195-0.201,0.359-0.478,0.494-0.834l2.651-7.057c0.014-0.03,0.026-0.091,0.026-0.168
			c0-0.246-0.078-0.483-0.229-0.723c-0.161-0.249-0.356-0.464-0.608-0.655l-0.047-0.148c0.572,0.054,1.092,0.088,1.567,0.088h0.471
			l0.542,1.448L178.885,53.002z M176.113,49.786v-0.033l-0.978-2.832l-1.053,2.832v0.033c0.448,0.021,0.784,0.028,1.006,0.028
			S175.657,49.807,176.113,49.786z"/>
		<path fill="#FFFFFF" d="M86.376,38.446c-0.198,0.006-0.467,0.032-0.774,0.069v-0.178c0.199-0.114,0.358-0.269,0.474-0.447
			c0.106-0.186,0.169-0.406,0.174-0.672c0.016-0.842,0.021-2.093,0.021-3.763c0-0.636-0.005-1.286-0.021-1.949
			c-0.013-0.661-0.037-1.305-0.067-1.924c-0.014-0.312-0.061-0.582-0.143-0.813c-0.085-0.227-0.248-0.434-0.49-0.619v-0.155
			c0.341,0.034,0.608,0.06,0.809,0.08c0.205,0.015,0.4,0.025,0.582,0.025c0.143,0,0.378-0.017,0.717-0.039
			c0.291-0.023,0.515-0.042,0.678-0.051v0.15c-0.21,0.116-0.353,0.309-0.447,0.573c-0.09,0.263-0.143,0.564-0.166,0.888
			c-0.026,0.319-0.033,0.65-0.036,0.995c-0.008,0.342-0.008,0.778-0.008,1.305v1.495c0,1.159,0.03,2.4,0.09,3.724
			c0.022,0.572,0.243,0.972,0.659,1.197v0.178c-0.352-0.037-0.629-0.063-0.845-0.069c-0.212-0.018-0.417-0.021-0.617-0.021
			C86.776,38.425,86.586,38.429,86.376,38.446z"/>
	</g>
</g>
</svg>
